<svg width="90" height="90" viewBox="0 0 90 90" fill="none" xmlns="http://www.w3.org/2000/svg">
<mask id="mask0_2_155" style="mask-type:luminance" maskUnits="userSpaceOnUse" x="1" y="33" width="88" height="24">
<path d="M88.1995 33.75H1.79956V56.3529H88.1995V33.75Z" fill="white"/>
</mask>
<g mask="url(#mask0_2_155)">
<mask id="mask1_2_155" style="mask-type:luminance" maskUnits="userSpaceOnUse" x="1" y="33" width="88" height="24">
<path d="M1.79956 33.75H88.1995V56.3529H1.79956V33.75Z" fill="white"/>
</mask>
<g mask="url(#mask1_2_155)">
<path d="M37.1438 49.0571C37.1438 48.8826 37.03 48.7536 36.7976 48.7033V48.5903C36.9263 48.5903 37.3548 48.6075 37.4754 48.6075C37.5797 48.6075 37.9947 48.5903 38.1239 48.5903V48.7033C37.9081 48.7454 37.7948 48.8726 37.7948 49.0571V51.2719C37.7948 51.9732 38.1799 52.3697 38.9855 52.3697C39.6797 52.3697 40.2199 52.058 40.2199 51.324V49.0484C40.2199 48.884 40.1165 48.7536 39.8565 48.7033V48.5903C39.9511 48.5903 40.3055 48.6075 40.4264 48.6075C40.5298 48.6075 40.9017 48.5903 40.9968 48.5903V48.7033C40.7459 48.7631 40.6343 48.8753 40.6343 49.0484V51.2019C40.6343 52.1685 40.072 52.7236 38.8587 52.7236C37.7291 52.7236 37.1438 52.2102 37.1438 51.3021V49.0571Z" fill="#182849"/>
<path d="M41.9883 52.5481C42.2511 52.4992 42.3548 52.366 42.3548 52.2029V49.1417C42.3548 48.8821 42.2165 48.7653 41.981 48.701V48.5881C42.1143 48.598 42.338 48.6039 42.4522 48.6039C42.5561 48.6039 42.7173 48.6021 42.8259 48.5881L45.4812 51.7099V49.0466C45.4812 48.8825 45.377 48.752 45.1178 48.701V48.5881C45.213 48.5881 45.5546 48.6057 45.676 48.6057C45.7815 48.6057 46.1476 48.5881 46.2441 48.5881V48.701C45.9909 48.7607 45.8686 48.874 45.8686 49.0466V52.7216H45.7086C45.608 52.6985 45.4177 52.5903 45.1278 52.2723L42.7523 49.5051V52.2029C42.7523 52.3669 42.8469 52.4969 43.1061 52.5481V52.6614C43.0109 52.6614 42.6692 52.6433 42.5478 52.6433C42.4432 52.6433 42.0847 52.6614 41.9883 52.6614V52.5481Z" fill="#182849"/>
<path d="M62.9403 51.7233H63.0525C63.1119 51.9521 63.2427 52.1606 63.4263 52.2811C63.6171 52.4156 63.9165 52.48 64.1583 52.48C64.6929 52.48 65.0313 52.2154 65.0313 51.7966C65.0313 51.3631 64.5975 51.138 64.0779 50.8783C63.6915 50.6848 62.9319 50.3655 62.9319 49.6314C62.9319 48.9476 63.4533 48.5222 64.2879 48.5222C64.8381 48.5222 65.0967 48.6568 65.4681 48.6394L65.4609 49.4691H65.3475C65.1987 48.9802 64.7547 48.8099 64.2687 48.8099C63.7251 48.8099 63.5217 49.1208 63.5217 49.437C63.5217 49.8897 63.9645 50.1179 64.4667 50.3419C65.0313 50.5933 65.6439 50.9109 65.6439 51.6182C65.6439 52.2878 65.1201 52.7728 64.1625 52.7728C63.5931 52.7728 63.2511 52.6101 62.9517 52.5732L62.9403 51.7233Z" fill="#182849"/>
<path d="M74.351 50.9783L73.2699 49.2438C73.0851 48.9393 72.9441 48.7789 72.7382 48.7028V48.5903C72.8865 48.5903 73.2867 48.6081 73.4001 48.6081C73.5032 48.6081 73.9347 48.5903 74.0907 48.5903V48.7028C73.9527 48.7272 73.8879 48.7965 73.8879 48.9008C73.8879 48.9927 73.9503 49.1111 74.0133 49.2139C74.0751 49.3158 74.8107 50.5356 74.8107 50.5356L75.5781 49.2144C75.656 49.0821 75.7107 48.9507 75.7107 48.864C75.7107 48.7852 75.6549 48.7199 75.5241 48.7028V48.5903C75.6537 48.5903 75.9273 48.6081 76.0142 48.6081C76.1013 48.6081 76.4151 48.5903 76.5441 48.5903V48.6951C76.2489 48.8161 76.0646 49.0752 75.8853 49.3756L74.9025 51.0182M74.9697 50.8111V52.1966C74.9697 52.3339 75.0746 52.5066 75.3111 52.55V52.6634C75.179 52.6634 74.7488 52.6452 74.6241 52.6452C74.5197 52.6452 74.1062 52.6634 73.9575 52.6634V52.55C74.1951 52.5066 74.3085 52.3339 74.3085 52.1966V50.8718" fill="#182849"/>
<path d="M54.2628 48.5894H56.7979C56.8763 48.5894 57.0137 48.5802 57.092 48.5463H57.2054L57.1876 49.37H57.0752C56.9787 49.1109 56.8786 48.9033 56.388 48.9033H55.2873V50.3388H56.1356C56.2593 50.3388 56.4092 50.3283 56.474 50.313C56.6647 50.2712 56.7486 50.1651 56.7871 50.0026H56.9004C56.8923 50.1267 56.8923 50.4099 56.8923 50.4938C56.8923 50.578 56.9004 50.8761 56.9004 51.0111H56.7871C56.7327 50.8489 56.6584 50.7257 56.474 50.6805C56.4092 50.6632 56.2566 50.6491 56.1356 50.6491H55.2873V52.3329H56.4844C57.0073 52.3329 57.1591 52.115 57.2891 51.8068L57.401 51.8331L57.2891 52.6791C56.9004 52.6446 56.6671 52.6446 56.2256 52.6446H54.9607C54.8387 52.6446 54.3915 52.6624 54.2615 52.6624V52.5495C54.4898 52.5059 54.6232 52.3931 54.6232 52.1743V49.0602C54.6232 48.8671 54.5193 48.7465 54.2628 48.7035V48.5894Z" fill="#182849"/>
<path d="M47.7863 49.0831C47.7863 48.8743 47.6616 48.7593 47.4174 48.7066V48.5947C47.5534 48.5947 47.9934 48.6119 48.1216 48.6119C48.229 48.6119 48.6812 48.5947 48.8189 48.5947V48.7066C48.576 48.7593 48.4487 48.8633 48.4487 49.0831V52.1756C48.4487 52.3844 48.5738 52.4981 48.8189 52.5498V52.6632C48.6817 52.6632 48.248 52.6454 48.1216 52.6454C48.0123 52.6454 47.5534 52.6632 47.4169 52.6632V52.5498C47.6667 52.5031 47.7863 52.394 47.7863 52.1756V49.0831Z" fill="#182849"/>
<path d="M67.017 49.0831C67.017 48.8743 66.891 48.7593 66.6475 48.7066V48.5947C66.783 48.5947 67.2235 48.6119 67.3507 48.6119C67.4593 48.6119 67.9111 48.5947 68.0484 48.5947V48.7066C67.8061 48.7593 67.6789 48.8633 67.6789 49.0831V52.1756C67.6789 52.3844 67.8043 52.4981 68.0484 52.5498V52.6632C67.9123 52.6632 67.4791 52.6454 67.3507 52.6454C67.2433 52.6454 66.783 52.6632 66.6475 52.6632V52.5498C66.8964 52.5031 67.017 52.394 67.017 52.1756V49.0831Z" fill="#182849"/>
<path d="M70.5413 48.6074C69.1511 48.6074 68.9292 48.5815 68.6448 48.564L68.6471 49.4031H68.7605C68.8644 49.0311 69.0714 48.9446 69.3396 48.9446H70.2113V52.1757C70.2113 52.3939 70.092 52.5033 69.8418 52.5498V52.6632C69.9786 52.6632 70.4417 52.6455 70.5485 52.6455C70.6763 52.6455 71.1113 52.6632 71.2463 52.6632V52.5498C71.001 52.4982 70.8761 52.3845 70.8761 52.1757V48.9446H71.7413C72.0198 48.9446 72.2183 49.0393 72.3222 49.4031H72.4343L72.4361 48.564C72.1535 48.5815 71.9309 48.6074 70.5413 48.6074Z" fill="#182849"/>
<path d="M59.4519 52.1755C59.4519 52.3844 59.5846 52.4977 59.8298 52.5497V52.6631C59.6939 52.6631 59.2494 52.6454 59.1225 52.6454C59.0137 52.6454 58.5797 52.6631 58.4429 52.6631V52.5497C58.6703 52.5064 58.8043 52.394 58.8043 52.1755V49.0515C58.8043 48.8594 58.6997 48.7384 58.4438 48.6949V48.5825C58.5797 48.5825 59.0095 48.5997 59.131 48.5997C59.3302 48.5997 59.8955 48.5662 60.118 48.5662C61.0924 48.5662 61.6342 48.969 61.6342 49.6594C61.6342 50.2023 61.231 50.5693 60.6087 50.7193C60.6087 50.7193 60.7509 50.8018 60.8926 50.9662C61.0641 51.1687 61.528 51.8344 61.7206 52.0672C61.9126 52.3006 62.1585 52.5611 62.4226 52.573V52.664C62.296 52.6915 62.0932 52.7156 61.9384 52.7156C61.6077 52.7156 61.3438 52.5988 61.087 52.2885C60.865 52.0183 60.4888 51.4579 60.2667 51.1746C60.1252 50.9944 59.9534 50.8534 59.639 50.8018C59.5782 50.7913 59.5207 50.7828 59.4519 50.7747V52.1755ZM59.4519 50.5153C59.5815 50.533 59.7722 50.5412 59.9607 50.5412C60.7234 50.5412 60.9633 50.1026 60.9633 49.7143C60.9633 49.1652 60.5968 48.8249 59.9294 48.8249C59.7913 48.8249 59.5909 48.8421 59.4519 48.8683V50.5153Z" fill="#182849"/>
<path d="M49.7972 49.0946C49.7085 48.8981 49.572 48.754 49.3396 48.7028V48.5881C49.4842 48.5881 49.9849 48.6062 50.0948 48.6062C50.1961 48.6062 50.6337 48.5881 50.7824 48.5881V48.6995C50.6503 48.7249 50.5 48.7978 50.5 48.9329C50.5 49.0294 50.5584 49.1609 50.6705 49.4083L51.7198 51.796L52.7129 49.4041C52.7913 49.2112 52.848 49.0616 52.848 48.9473C52.848 48.821 52.7316 48.7335 52.5666 48.6995V48.5881C52.6985 48.5881 53.022 48.6062 53.1225 48.6062C53.2144 48.6062 53.5942 48.5881 53.7393 48.5881V48.7028C53.4914 48.7698 53.3404 48.9062 53.2014 49.2293L51.7397 52.6759H51.4089L49.7972 49.0946Z" fill="#182849"/>
<path d="M53.5444 38.2249C53.3755 37.852 53.1163 37.5801 52.6772 37.4828V37.2656C52.9504 37.2656 53.8575 37.2982 54.0659 37.2982C54.2581 37.2982 55.1367 37.2656 55.4166 37.2656V37.4772C55.1683 37.5258 54.8829 37.6644 54.8829 37.9204C54.8829 38.1012 54.9952 38.3509 55.2037 38.8189L57.1941 43.344L59.0776 38.8113C59.2245 38.4442 59.3341 38.1637 59.3341 37.9467C59.3341 37.7056 59.1112 37.5421 58.799 37.4772V37.2656C59.0482 37.2656 59.654 37.2982 59.8465 37.2982C60.0214 37.2982 60.7407 37.2656 61.015 37.2656V37.4705C60.5452 37.5978 60.2583 37.8674 59.9965 38.4795L57.2278 45.0128H56.6011L53.5444 38.2249Z" fill="#182849"/>
<path d="M26.7429 44.764C27.1045 44.6815 27.3586 44.5171 27.3586 44.1076V38.118C27.3586 37.7247 27.1222 37.5615 26.7429 37.4628V37.2502C26.9328 37.2502 27.7506 37.2825 27.9495 37.2825C28.1788 37.2825 29.036 37.2502 29.2246 37.2502V37.4628C28.8633 37.5448 28.5957 37.7088 28.5957 38.118V40.62H33.0578V38.118C33.0578 37.7088 32.8198 37.5448 32.443 37.4628V37.2502C32.6313 37.2502 33.4732 37.2825 33.7021 37.2825C33.8996 37.2825 34.7365 37.2502 34.923 37.2502V37.4628C34.5617 37.5448 34.2937 37.7088 34.2937 38.118V44.1076C34.2937 44.5008 34.5451 44.6657 34.923 44.764V44.9602C34.7365 44.9602 33.8996 44.944 33.7021 44.944C33.4732 44.944 32.6313 44.9602 32.443 44.9602V44.764C32.8017 44.6815 33.0578 44.5171 33.0578 44.1076V41.2768H28.5957V44.1076C28.5957 44.5171 28.8467 44.6657 29.2246 44.764V44.9602C29.036 44.9602 28.1788 44.944 27.9495 44.944C27.7506 44.944 26.9328 44.9602 26.7429 44.9602V44.764Z" fill="#182849"/>
<path d="M78.3545 44.7654C78.8177 44.6829 79.0727 44.499 79.0727 44.0763V38.1193C79.0727 37.7088 78.8213 37.5462 78.3737 37.4641V37.2516C78.6317 37.2516 79.4705 37.2839 79.7033 37.2839C80.0783 37.2839 81.1247 37.2019 81.9395 37.2019C84.6845 37.2019 86.3507 38.7347 86.3507 41.0655C86.3507 43.3309 84.6167 45.0096 81.7871 45.0096C80.9711 45.0096 80.0033 44.9454 79.6241 44.9454C79.3943 44.9454 78.6113 44.9779 78.3545 44.9779V44.7654ZM80.3087 44.3707C80.5883 44.4216 81.1049 44.4532 81.5123 44.4532C83.8181 44.4532 85.0181 43.0654 85.0181 41.1297C85.0181 39.1231 83.7521 37.7111 81.5963 37.7111C81.1559 37.7111 80.6051 37.7442 80.3087 37.7923V44.3707Z" fill="#182849"/>
<path d="M47.2855 44.0553C47.2855 44.4523 47.537 44.6679 47.9996 44.7663V44.9788C47.7418 44.9788 46.9021 44.9462 46.6607 44.9462C46.4567 44.9462 45.633 44.9788 45.3757 44.9788V44.7663C45.8053 44.6838 46.0585 44.4699 46.0585 44.0553V38.1411C46.0585 37.7771 45.8618 37.5471 45.3765 37.465V37.2524C45.6345 37.2524 46.4482 37.2847 46.6766 37.2847C47.054 37.2847 48.1242 37.2217 48.5464 37.2217C50.3924 37.2217 51.42 37.9852 51.42 39.291C51.42 40.3204 50.6533 41.0132 49.4768 41.2991C49.4768 41.2991 49.7435 41.4545 50.0122 41.7676C50.338 42.1505 51.2371 43.4373 51.6004 43.8781C51.9637 44.3195 52.4299 44.8124 52.9284 44.835V45.0087C52.6896 45.0602 52.3072 45.1043 52.0149 45.1043C51.3856 45.1043 50.8859 44.8841 50.3996 44.2949C49.9806 43.7838 49.2474 42.6974 48.8273 42.1609C48.5591 41.8192 48.2357 41.5529 47.6417 41.4545C47.5247 41.4346 47.4147 41.4192 47.2855 41.4047V44.0553ZM47.2855 40.914C47.5298 40.9462 47.8908 40.9625 48.2489 40.9625C49.6924 40.9625 50.1458 40.1315 50.1458 39.3974C50.1458 38.3549 49.4517 37.712 48.1872 37.712C47.9267 37.712 47.547 37.745 47.2855 37.7931V40.914Z" fill="#182849"/>
<path d="M71.6147 44.0553C71.6147 44.4523 71.8672 44.6679 72.3304 44.7663V44.9788C72.073 44.9788 71.2342 44.9462 70.9924 44.9462C70.7854 44.9462 69.9641 44.9788 69.706 44.9788V44.7663C70.1344 44.6838 70.3882 44.4699 70.3882 44.0553V38.1411C70.3882 37.7771 70.1896 37.5471 69.7072 37.465V37.2524C69.9659 37.2524 70.777 37.2847 71.0074 37.2847C71.3854 37.2847 72.4553 37.2217 72.8747 37.2217C74.7238 37.2217 75.7486 37.9852 75.7486 39.291C75.7486 40.3204 74.9836 41.0132 73.8058 41.2991C73.8058 41.2991 74.074 41.4545 74.3404 41.7676C74.6698 42.1505 75.5686 43.4373 75.9304 43.8781C76.2952 44.3195 76.7614 44.8124 77.257 44.835V45.0087C77.0219 45.0602 76.6372 45.1043 76.348 45.1043C75.7174 45.1043 75.2152 44.8841 74.7305 44.2949C74.3111 43.7838 73.5803 42.6974 73.1566 42.1609C72.8884 41.8192 72.5662 41.5529 71.9734 41.4545C71.8546 41.4346 71.7454 41.4192 71.6147 41.4047V44.0553ZM71.6147 40.914C71.8624 40.9462 72.2213 40.9625 72.5795 40.9625C74.0236 40.9625 74.476 40.1315 74.476 39.3974C74.476 38.3549 73.7812 37.712 72.5188 37.712C72.256 37.712 71.878 37.745 71.6147 37.7931V40.914Z" fill="#182849"/>
<path d="M36.0971 44.762C36.5854 44.648 36.8537 44.3316 37.0317 43.9084L39.503 37.9624C39.6081 37.7164 39.7305 37.2107 39.7305 37.2107H40.4219C40.4219 37.2107 40.5457 37.7177 40.6485 37.9642L43.2601 43.9247C43.4464 44.3352 43.648 44.6315 44.1671 44.762L44.1658 44.96C43.8831 44.96 43.0041 44.9437 42.8042 44.9437C42.6053 44.9437 41.7657 44.96 41.4836 44.96L41.4845 44.762C41.8645 44.6688 41.9846 44.4753 41.9846 44.2881C41.9846 44.1291 41.9189 43.9497 41.8392 43.7635L41.2777 42.4829H38.4001L37.8859 43.7707C37.8283 43.9166 37.7599 44.1227 37.7599 44.2619C37.7599 44.4766 37.8723 44.648 38.3036 44.762L38.3026 44.96C38.0471 44.96 37.3725 44.9437 37.2144 44.9437L36.0966 44.96L36.0971 44.762ZM41.0173 41.8757L39.7884 39.0126L38.644 41.8757H41.0173Z" fill="#182849"/>
<path d="M60.5792 44.762C61.0676 44.648 61.3365 44.3316 61.5134 43.9084L63.9854 37.9624C64.091 37.7164 64.2147 37.2107 64.2147 37.2107H64.9059C64.9059 37.2107 65.0283 37.7177 65.1309 37.9642L67.7432 43.9247C67.9281 44.3352 68.1315 44.6315 68.6486 44.762L68.6474 44.96C68.366 44.96 67.4858 44.9437 67.2848 44.9437C67.0875 44.9437 66.2487 44.96 65.9661 44.96V44.762C66.3482 44.6688 66.4665 44.4753 66.4665 44.2881C66.4665 44.1291 66.4017 43.9497 66.323 43.7635L65.7596 42.4829H62.882L62.3672 43.7707C62.3096 43.9166 62.2419 44.1227 62.2419 44.2619C62.2419 44.4766 62.354 44.648 62.7855 44.762V44.96C62.5292 44.96 61.8554 44.9437 61.6965 44.9437L60.5787 44.96L60.5792 44.762ZM65.4992 41.8757L64.2698 39.0126L63.1262 41.8757H65.4992Z" fill="#182849"/>
<path d="M3.92651 34.8464H21.157V41.3552C21.157 44.3374 20.0468 50.6618 12.606 55.3686C12.606 55.3686 4.54361 52.0016 3.92651 41.3552V34.8464Z" fill="#182849"/>
<path d="M3.89136 34.8289H21.1385V41.3422C21.1385 44.3253 20.027 50.6532 12.5795 55.3633C12.5795 55.3633 4.50938 51.994 3.89136 41.3422V34.8289Z" stroke="#182849" stroke-width="0.0237067"/>
<path d="M16.9675 43.2121C16.9675 43.2121 16.8138 43.7018 16.1307 43.1985L13.785 43.1418C13.785 43.1418 13.4779 43.2407 13.436 42.9193C13.436 42.9193 13.4923 42.2773 13.4638 42.2211C13.4638 42.2211 13.4779 42.0399 13.1696 42.0399C13.1696 42.0399 12.6958 42.0955 12.6816 41.676C12.6816 41.676 12.5988 41.2294 13.2543 41.2443C13.2543 41.2443 13.4638 41.3416 13.4779 41.0757C13.4779 41.0757 13.4502 39.2602 13.4638 39.1215C13.4638 39.1215 13.5198 38.9548 13.1982 38.9262C13.1982 38.9262 12.738 39.0236 12.6816 38.7174C12.6816 38.7174 12.654 38.2566 12.9617 38.228C12.9617 38.228 13.3383 38.2566 13.4079 38.1583C13.4079 38.1583 13.4923 38.2135 13.4779 37.8801L13.4923 37.3063C13.4923 37.3063 13.5327 37.1532 13.7705 37.1682C13.7705 37.1682 14.2036 37.1958 14.2602 37.1532C14.2602 37.1532 14.3568 37.0282 14.3853 36.9715C14.3853 36.9715 14.6092 36.958 14.6505 37.014C14.6505 37.014 14.9857 37.2375 16.2562 37.1532C16.2562 37.1532 16.4519 37.1532 16.4928 37.2094C16.4928 37.2094 16.7309 37.3906 16.8702 37.1958C16.8702 37.1958 17.0796 37.1532 17.7074 37.1682C17.7074 37.1682 18.3924 37.3489 18.8661 36.958L19.0201 36.986C19.0201 36.986 19.2154 37.3063 19.355 37.2094C19.355 37.2094 19.774 37.1682 19.8433 37.2515C19.8433 37.2515 19.9825 37.4595 19.9131 38.0059C19.9131 38.0059 19.8303 38.2425 20.2348 38.2425C20.2348 38.2425 20.6961 38.1583 20.6394 38.5909C20.6394 38.5909 20.7648 39.0799 19.9979 39.0105C19.9979 39.0105 19.8996 39.15 19.9131 39.2479C19.9131 39.2479 19.8996 40.8388 19.8855 41.0214C19.8855 41.0214 19.8718 41.2728 20.2063 41.2583C20.2063 41.2583 20.6536 41.2294 20.6684 41.6349C20.6684 41.6349 20.7238 42.1654 20.0808 42.0671C20.0808 42.0671 19.8855 42.0955 19.8565 42.2211L19.8303 42.9193C19.8303 42.9193 19.8433 43.2682 19.4532 43.184C19.3975 43.184 17.2756 43.2271 17.0935 43.1713C17.0935 43.1713 16.9947 43.1573 16.9675 43.2121Z" fill="white"/>
<path d="M12.4583 45.5445C12.4583 45.5445 12.5561 45.5032 12.5837 45.4344C12.5837 45.4344 12.8773 45.4057 12.9185 45.3642L13.8405 45.4344C13.8405 45.4344 14.7477 45.5032 15.1387 45.2227C15.1387 45.2227 15.2792 45.2227 15.377 45.2653C15.377 45.2653 15.5714 45.3079 15.6272 45.3904L16.1582 45.3763C16.1582 45.3763 16.4654 45.4751 16.4368 45.6707V45.9214C16.4368 45.9214 16.3807 46.4244 16.5203 46.4529H16.9261C16.9261 46.4529 17.2616 46.6062 17.2194 46.8013C17.2194 46.8013 17.2334 47.0796 16.9407 47.1363C16.9407 47.1363 16.6462 47.2195 16.5497 47.2065C16.5497 47.2065 16.4513 47.3316 16.4368 47.485L16.3961 49.3143C16.3961 49.3143 16.3675 49.5096 16.6611 49.4818C16.6611 49.4818 17.0929 49.4397 17.2194 49.6781C17.2194 49.6781 17.3312 50.0822 17.1079 50.1519L16.9407 50.235L16.5768 50.293C16.5768 50.293 16.4242 50.3056 16.4096 50.5707V51.0586C16.4096 51.0586 16.4242 51.3948 16.1582 51.3948L15.7672 51.423C15.7672 51.423 15.6697 51.5054 15.4745 51.4496C15.4745 51.4496 13.1006 51.4927 13.0168 51.4642L12.7374 51.5207C12.7374 51.5207 12.4305 51.7999 12.179 51.5897L11.9837 51.436C11.9837 51.436 11.8438 51.4642 11.789 51.4496C11.7329 51.436 9.16368 51.4782 9.16368 51.4782C9.16368 51.4782 8.61907 51.5349 8.57778 51.3523C8.57778 51.3523 8.50812 50.6409 8.53573 50.5557C8.53573 50.5557 8.53573 50.3472 8.4102 50.3337C8.4102 50.3337 7.86559 50.3056 7.85155 50.2489C7.85155 50.2489 7.5579 50.0407 7.64178 49.8315C7.64178 49.8315 7.74006 49.5512 8.03274 49.5235C8.03274 49.5235 8.4795 49.5942 8.4795 49.4683C8.4795 49.4683 8.50812 49.3845 8.50812 49.2454C8.50812 49.2454 8.53573 47.5829 8.52169 47.4715C8.52169 47.4715 8.56332 47.262 8.3817 47.262C8.3817 47.262 8.1864 47.3174 8.0613 47.234C8.0613 47.234 7.72602 47.2482 7.65625 46.9826C7.65625 46.9826 7.60009 46.8154 7.68343 46.6744C7.68343 46.6744 7.83756 46.3678 8.28432 46.466C8.28432 46.466 8.53573 46.5362 8.56332 46.3554L8.55018 45.6839C8.55018 45.6839 8.49354 45.5032 8.84286 45.4057C8.84286 45.4057 9.28962 45.5308 9.42876 45.3079C9.42876 45.3079 9.58284 44.9998 9.70699 45.2091C9.70699 45.2091 9.97344 45.4611 10.6993 45.4344C10.6993 45.4344 11.9562 45.3356 11.9837 45.3904C11.9837 45.3904 12.291 45.4344 12.3743 45.5308L12.4583 45.5445Z" fill="white"/>
<path d="M8.66415 43.2117C8.66415 43.2117 8.51013 43.7014 7.82602 43.1977L5.48069 43.1415C5.48069 43.1415 5.17353 43.2402 5.13135 42.9186C5.13135 42.9186 5.18759 42.277 5.15854 42.2208C5.15854 42.2208 5.17353 42.0386 4.86585 42.0386C4.86585 42.0386 4.39192 42.0957 4.37828 41.6767C4.37828 41.6767 4.29401 41.2285 4.9501 41.2439C4.9501 41.2439 5.15854 41.3412 5.17353 41.0758C5.17353 41.0758 5.1454 39.2611 5.15854 39.1207C5.15854 39.1207 5.2156 38.9549 4.89438 38.9263C4.89438 38.9263 4.43307 39.0232 4.37828 38.716C4.37828 38.716 4.34975 38.2561 4.6565 38.2277C4.6565 38.2277 5.03354 38.2561 5.10374 38.1596C5.10374 38.1596 5.18759 38.2136 5.17353 37.8783L5.18759 37.3065C5.18759 37.3065 5.22966 37.1529 5.4657 37.1669C5.4657 37.1669 5.8998 37.1946 5.95594 37.1529C5.95594 37.1529 6.05343 37.0279 6.08013 36.9711C6.08013 36.9711 6.30489 36.958 6.34653 37.0123C6.34653 37.0123 6.68091 37.2371 7.95274 37.1529C7.95274 37.1529 8.14714 37.1529 8.18931 37.2091C8.18931 37.2091 8.42625 37.3902 8.56582 37.1946C8.56582 37.1946 8.77521 37.1529 9.40395 37.1669C9.40395 37.1669 10.0869 37.3482 10.5622 36.958L10.7153 36.9867C10.7153 36.9867 10.9106 37.3065 11.0515 37.2091C11.0515 37.2091 11.4697 37.1669 11.5399 37.2512C11.5399 37.2512 11.68 37.4605 11.6089 38.0056C11.6089 38.0056 11.5259 38.2425 11.9305 38.2425C11.9305 38.2425 12.3909 38.1596 12.3356 38.5906C12.3356 38.5906 12.4615 39.0795 11.6936 39.0101C11.6936 39.0101 11.5953 39.1501 11.6089 39.2476C11.6089 39.2476 11.5953 40.8384 11.5815 41.0209C11.5815 41.0209 11.568 41.2707 11.903 41.258C11.903 41.258 12.3497 41.2285 12.3632 41.635C12.3632 41.635 12.419 42.1651 11.7773 42.0667C11.7773 42.0667 11.5815 42.0957 11.5531 42.2208L11.5259 42.9186C11.5259 42.9186 11.5399 43.2679 11.148 43.1845C11.0923 43.1845 8.97141 43.2258 8.78913 43.1709C8.78913 43.1709 8.69175 43.1569 8.66415 43.2117Z" fill="white"/>
<path d="M16.9675 43.2121C16.9675 43.2121 16.8138 43.7018 16.1307 43.1985L13.785 43.1418C13.785 43.1418 13.4779 43.2407 13.436 42.9193C13.436 42.9193 13.4923 42.2773 13.4638 42.2211C13.4638 42.2211 13.4779 42.0399 13.1696 42.0399C13.1696 42.0399 12.6958 42.0955 12.6816 41.676C12.6816 41.676 12.5988 41.2294 13.2543 41.2443C13.2543 41.2443 13.4638 41.3416 13.4779 41.0757C13.4779 41.0757 13.4502 39.2602 13.4638 39.1215C13.4638 39.1215 13.5198 38.9548 13.1982 38.9262C13.1982 38.9262 12.738 39.0236 12.6816 38.7174C12.6816 38.7174 12.654 38.2566 12.9617 38.228C12.9617 38.228 13.3383 38.2566 13.4079 38.1583C13.4079 38.1583 13.4923 38.2135 13.4779 37.8801L13.4923 37.3063C13.4923 37.3063 13.5327 37.1532 13.7705 37.1682C13.7705 37.1682 14.2036 37.1958 14.2602 37.1532C14.2602 37.1532 14.3568 37.0282 14.3853 36.9715C14.3853 36.9715 14.6092 36.958 14.6505 37.014C14.6505 37.014 14.9857 37.2375 16.2562 37.1532C16.2562 37.1532 16.4519 37.1532 16.4928 37.2094C16.4928 37.2094 16.7309 37.3906 16.8702 37.1958C16.8702 37.1958 17.0796 37.1532 17.7074 37.1682C17.7074 37.1682 18.3924 37.3489 18.8661 36.958L19.0201 36.986C19.0201 36.986 19.2154 37.3063 19.355 37.2094C19.355 37.2094 19.774 37.1682 19.8433 37.2515C19.8433 37.2515 19.9825 37.4595 19.9131 38.0059C19.9131 38.0059 19.8303 38.2425 20.2348 38.2425C20.2348 38.2425 20.6961 38.1583 20.6394 38.5909C20.6394 38.5909 20.7648 39.0799 19.9979 39.0105C19.9979 39.0105 19.8996 39.15 19.9131 39.2479C19.9131 39.2479 19.8996 40.8388 19.8855 41.0214C19.8855 41.0214 19.8718 41.2728 20.2063 41.2583C20.2063 41.2583 20.6536 41.2294 20.6684 41.6349C20.6684 41.6349 20.7238 42.1654 20.0808 42.0671C20.0808 42.0671 19.8855 42.0955 19.8565 42.2211L19.8303 42.9193C19.8303 42.9193 19.8433 43.2682 19.4532 43.184C19.3975 43.184 17.2756 43.2271 17.0935 43.1713C17.0935 43.1713 16.9947 43.1573 16.9675 43.2121Z" fill="#182849"/>
<path d="M16.9679 43.2108C16.9679 43.2108 16.8142 43.7006 16.131 43.1972L13.7848 43.1406C13.7848 43.1406 13.4777 43.2393 13.436 42.9176C13.436 42.9176 13.4926 42.2757 13.4635 42.2193C13.4635 42.2193 13.4777 42.0382 13.17 42.0382C13.17 42.0382 12.6956 42.0944 12.6815 41.6747C12.6815 41.6747 12.5986 41.228 13.2542 41.2425C13.2542 41.2425 13.4635 41.3399 13.4777 41.0745C13.4777 41.0745 13.45 39.2589 13.4635 39.1197C13.4635 39.1197 13.5202 38.9526 13.1985 38.9244C13.1985 38.9244 12.7378 39.022 12.6815 38.7156C12.6815 38.7156 12.6544 38.2543 12.9616 38.2263C12.9616 38.2263 13.3381 38.2544 13.408 38.1565C13.408 38.1565 13.4926 38.2118 13.4777 37.8777L13.4926 37.3042C13.4926 37.3042 13.5325 37.1511 13.7712 37.1661C13.7712 37.1661 14.204 37.1936 14.2601 37.1511C14.2601 37.1511 14.3567 37.0265 14.3857 36.9698C14.3857 36.9698 14.6091 36.9558 14.6507 37.0121C14.6507 37.0121 14.9857 37.2354 16.2565 37.1511C16.2565 37.1511 16.4523 37.1511 16.493 37.2072C16.493 37.2072 16.7313 37.3885 16.8705 37.1936C16.8705 37.1936 17.0798 37.1511 17.7078 37.1661C17.7078 37.1661 18.3928 37.3467 18.8668 36.9558L19.0209 36.9834C19.0209 36.9834 19.2161 37.3042 19.3553 37.2072C19.3553 37.2072 19.7743 37.1661 19.8436 37.2489C19.8436 37.2489 19.9832 37.4578 19.9139 38.0033C19.9139 38.0033 19.8307 38.2408 20.2356 38.2408C20.2356 38.2408 20.6965 38.1565 20.6398 38.5887C20.6398 38.5887 20.7652 39.0781 19.9982 39.0083C19.9982 39.0083 19.9003 39.1479 19.9139 39.2462C19.9139 39.2462 19.9003 40.8371 19.8863 41.0192C19.8863 41.0192 19.8722 41.2706 20.2071 41.257C20.2071 41.257 20.6546 41.228 20.6692 41.6331C20.6692 41.6331 20.7241 42.1637 20.0816 42.0653C20.0816 42.0653 19.8863 42.0944 19.8572 42.2193L19.8307 42.9176C19.8307 42.9176 19.8436 43.2669 19.454 43.1827C19.3984 43.1827 17.2759 43.2253 17.0939 43.1696C17.0939 43.1696 16.995 43.156 16.9679 43.2108Z" stroke="#182849" stroke-width="0.00103073"/>
<path d="M14.3302 37.4579C14.3302 37.4579 14.3578 37.7374 14.3578 37.8081C14.3578 37.8774 14.3167 41.842 14.3167 41.842C14.3167 41.842 14.3578 42.1492 14.0936 42.3032C14.0936 42.3032 14.0229 42.3305 14.0098 42.1352L14.0371 37.9481C14.0371 37.9481 14.0651 37.4301 14.3302 37.4579Z" fill="white"/>
<path d="M14.3316 37.4579C14.3316 37.4579 14.3587 37.7374 14.3587 37.8081C14.3587 37.8778 14.318 41.8429 14.318 41.8429C14.318 41.8429 14.3587 42.1501 14.0946 42.3037C14.0946 42.3037 14.0239 42.3314 14.0098 42.1361L14.0379 37.9481C14.0379 37.9481 14.0656 37.4301 14.3316 37.4579Z" stroke="#182849" stroke-width="0.00123687"/>
<path d="M13.8694 42.345C13.8694 42.345 13.897 38.4081 13.8839 38.3383C13.8694 38.2695 13.897 38.3954 13.897 38.3954C13.897 38.3954 13.8553 37.7102 14.037 37.4303C14.037 37.4303 13.9804 37.1942 13.6596 37.4869L13.6455 38.0586C13.6455 38.0586 13.6455 38.3804 13.3529 38.3663C13.3529 38.3663 13.0175 38.3519 12.8638 38.5055C12.8638 38.5055 12.7801 38.8131 13.1009 38.7578C13.1009 38.7578 13.6039 38.7578 13.632 38.9658L13.6039 41.0745C13.6039 41.0745 13.7157 41.4252 13.3252 41.4252C13.3252 41.4252 12.849 41.3953 12.8638 41.6886C12.8638 41.6886 12.9623 41.9394 13.3668 41.8565C13.3668 41.8565 13.6596 41.9114 13.6455 42.1918V42.722C13.6455 42.722 13.6174 42.9327 13.897 42.9459H16.0749C16.0749 42.9459 16.1861 42.9594 16.1861 42.8198C16.1861 42.8198 16.1725 42.7085 16.0052 42.7085L14.1906 42.6804C14.1906 42.6804 13.897 42.7786 13.8694 42.345Z" fill="white"/>
<path d="M14.2891 42.3384C14.2891 42.3384 14.2329 42.5337 14.4422 42.4929H15.8804L16.2704 42.5777C16.2704 42.5777 16.6751 42.4789 16.2704 42.2559C16.2704 42.2559 14.9863 42.2687 14.875 42.2414C14.875 42.2414 14.6095 42.172 14.5523 42.1581C14.5523 42.1581 14.4142 42.1024 14.2891 42.3384Z" fill="white"/>
<path d="M14.2891 42.3389C14.2891 42.3389 14.2329 42.5347 14.4422 42.4939H15.8807L16.271 42.5786C16.271 42.5786 16.676 42.4793 16.271 42.256C16.271 42.256 14.9868 42.2686 14.8749 42.2419C14.8749 42.2419 14.6095 42.1721 14.5528 42.158C14.5528 42.158 14.4142 42.1024 14.2891 42.3389Z" stroke="#182849" stroke-width="0.00123687"/>
<path d="M16.6743 42.5362C16.6743 42.5362 16.4093 42.5362 16.4229 42.886C16.4229 42.886 16.4509 43.1501 16.73 43.1501C16.73 43.1501 16.9805 43.109 16.9539 42.8297C16.9539 42.8297 16.7999 42.4809 16.6743 42.5362Z" fill="white"/>
<path d="M16.8714 42.3961C16.8714 42.3961 16.997 42.257 17.0812 42.257C17.0812 42.257 18.4772 42.382 18.7128 42.2148C18.7128 42.2148 18.9235 42.1731 18.9797 42.2148C18.9797 42.2148 19.1886 42.382 19.1886 42.4799C19.1886 42.4799 19.175 42.6062 18.9235 42.5347C18.9235 42.5347 17.3458 42.5501 17.262 42.5501C17.262 42.5501 16.8284 42.6471 16.8714 42.3961Z" fill="white"/>
<path d="M16.8714 42.3965C16.8714 42.3965 16.997 42.257 17.0812 42.257C17.0812 42.257 18.4776 42.3821 18.7138 42.2148C18.7138 42.2148 18.9244 42.1731 18.9806 42.2148C18.9806 42.2148 19.1895 42.3821 19.1895 42.4808C19.1895 42.4808 19.1759 42.6072 18.9244 42.5357C18.9244 42.5357 17.3458 42.551 17.262 42.551C17.262 42.551 16.8284 42.648 16.8714 42.3965Z" stroke="#182849" stroke-width="0.00123687"/>
<path d="M17.053 42.8489C17.053 42.8489 17.053 42.7361 17.2487 42.7361L19.2025 42.7224C19.2025 42.7224 19.3847 42.8203 19.3847 42.4859C19.3847 42.4859 19.4562 40.9641 19.4625 39.2885C19.4648 38.7896 19.4875 38.2663 19.4698 37.7814C19.4698 37.7814 19.4263 37.5716 19.3701 37.529C19.3701 37.529 19.3701 37.3061 19.608 37.3899C19.608 37.3899 19.8173 37.404 19.7615 37.7262L19.776 38.2128C19.776 38.2128 19.734 38.4235 20.1099 38.3669C20.1099 38.3669 20.4866 38.4235 20.5016 38.5621C20.5016 38.5621 20.6129 38.8425 20.1671 38.814H19.8444C19.8444 38.814 19.7055 38.8974 19.7471 39.0655L19.7055 41.0904C19.7055 41.0904 19.6773 41.4388 20.0126 41.4257C20.0126 41.4257 20.361 41.4111 20.4312 41.5232C20.4312 41.5232 20.67 41.8719 20.1526 41.8439C20.1526 41.8439 19.8314 41.8294 19.7615 41.886C19.7615 41.886 19.7055 41.9553 19.6637 42.6123C19.6637 42.6123 19.6922 43.0034 19.3986 42.9604C19.3986 42.9604 17.4576 42.9879 17.2764 42.9468C17.2764 42.9468 17.0811 43.0034 17.053 42.8489Z" fill="white"/>
<path d="M14.5398 37.333L14.4976 41.816C14.4976 41.816 14.484 42.0241 14.833 42.0661C14.833 42.0661 15.2375 42.1078 15.3345 42.0661C15.3345 42.0661 15.6015 42.0516 16.2842 42.0802C16.2842 42.0802 16.4527 42.2492 16.4668 42.0381C16.4668 42.0381 16.5773 38.4097 16.5231 37.6539C16.5231 37.6539 16.5076 37.333 16.2711 37.3191C16.2711 37.3191 15.21 37.4047 15.1121 37.3191L14.6929 37.2085C14.6929 37.2085 14.5253 37.2221 14.5398 37.333Z" fill="white"/>
<path d="M16.7453 37.5559C16.7453 37.5559 16.7036 39.6641 16.7175 39.734L16.6899 41.5064L16.6334 42.1212C16.6334 42.1212 16.7175 42.2468 16.7875 42.1634C16.7875 42.1634 17.2341 42.05 17.5132 42.0941C17.5132 42.0941 18.4077 42.177 18.5884 42.0365C18.5884 42.0365 18.7283 42.1064 18.7693 41.8829C18.7693 41.8829 18.8244 37.9749 18.7988 37.9052C18.7988 37.9052 18.8525 37.3452 18.8244 37.2908C18.8244 37.2908 18.8123 37.1653 18.5743 37.2763C18.5743 37.2763 18.6015 37.3887 17.2763 37.3452C17.2763 37.3452 16.7738 37.3316 16.7453 37.5559Z" fill="white"/>
<path d="M18.965 37.4996L18.9514 41.9105C18.9514 41.9105 19.0629 42.3028 19.2441 42.2616C19.2441 42.2616 19.2714 42.1769 19.2849 42.0373L19.3416 37.8345C19.3416 37.8345 19.2011 37.1657 18.965 37.4996Z" fill="white"/>
<path d="M18.965 37.4996L18.9514 41.9114C18.9514 41.9114 19.0634 42.3039 19.2445 42.2627C19.2445 42.2627 19.2723 42.1778 19.2858 42.0383L19.3419 37.8345C19.3419 37.8345 19.2015 37.1657 18.965 37.4996Z" stroke="#182849" stroke-width="0.00123687"/>
<path d="M17.2515 38.8238C17.2099 38.7123 17.4889 38.6982 17.4889 38.6982L17.629 38.7259C17.7269 38.7123 17.8247 38.7544 17.8247 38.7544C17.9222 38.9076 17.7545 38.991 17.7545 38.991L17.6988 39.1731C17.6843 39.3271 17.6988 40.6534 17.6988 40.6534C17.7269 40.7222 17.8383 40.8473 17.8383 40.8473C17.8383 40.9737 17.6843 40.9461 17.6843 40.9461L17.2801 40.9602C17.1541 40.9461 17.1958 40.806 17.1958 40.806C17.3353 40.7363 17.3775 40.4844 17.3775 40.4844V39.1029L17.2515 38.8238Z" fill="#182849"/>
<path d="M15.3658 40.1202L15.3382 40.5529L15.4628 40.7618C15.5476 40.8732 15.4074 40.958 15.4074 40.958L14.9608 40.9163C14.8779 40.8732 14.9608 40.7341 14.9608 40.7341C15.0727 40.6654 15.0867 40.4826 15.0867 40.4826L15.0727 39.673L15.0867 39.0867C15.0867 39.0164 14.9752 38.8918 14.9752 38.8918C14.8779 38.8778 14.9055 38.7522 14.9055 38.7522C14.9331 38.682 15.1696 38.7237 15.1696 38.7237H15.7569C16.3155 38.9054 16.2317 39.3104 16.2317 39.3104C16.2739 39.7146 15.8411 39.8832 15.8411 39.8832L15.8121 40.1066L16.2177 40.7477C16.2874 40.8039 16.2739 40.8605 16.2739 40.8605C16.2177 41.0141 15.9938 40.8605 15.9938 40.8605L15.4918 40.078C15.4496 40.0218 15.3658 40.1202 15.3658 40.1202ZM15.3799 39.0164C15.3935 39.3245 15.3935 39.7432 15.3935 39.7432C15.6594 39.9529 15.8121 39.659 15.8121 39.659C16.1605 39.3245 15.8121 39.0164 15.7569 38.9334C15.7002 38.8493 15.4212 38.919 15.4212 38.919L15.3799 39.0164Z" fill="#182849"/>
<path d="M12.4583 45.5445C12.4583 45.5445 12.5561 45.5032 12.5837 45.4344C12.5837 45.4344 12.8773 45.4057 12.9185 45.3642L13.8405 45.4344C13.8405 45.4344 14.7477 45.5032 15.1387 45.2227C15.1387 45.2227 15.2792 45.2227 15.377 45.2653C15.377 45.2653 15.5714 45.3079 15.6272 45.3904L16.1582 45.3763C16.1582 45.3763 16.4654 45.4751 16.4368 45.6707V45.9214C16.4368 45.9214 16.3807 46.4244 16.5203 46.4529H16.9261C16.9261 46.4529 17.2616 46.6062 17.2194 46.8013C17.2194 46.8013 17.2334 47.0796 16.9407 47.1363C16.9407 47.1363 16.6462 47.2195 16.5497 47.2065C16.5497 47.2065 16.4513 47.3316 16.4368 47.485L16.3961 49.3143C16.3961 49.3143 16.3675 49.5096 16.6611 49.4818C16.6611 49.4818 17.0929 49.4397 17.2194 49.6781C17.2194 49.6781 17.3312 50.0822 17.1079 50.1519L16.9407 50.235L16.5768 50.293C16.5768 50.293 16.4242 50.3056 16.4096 50.5707V51.0586C16.4096 51.0586 16.4242 51.3948 16.1582 51.3948L15.7672 51.423C15.7672 51.423 15.6697 51.5054 15.4745 51.4496C15.4745 51.4496 13.1006 51.4927 13.0168 51.4642L12.7374 51.5207C12.7374 51.5207 12.4305 51.7999 12.179 51.5897L11.9837 51.436C11.9837 51.436 11.8438 51.4642 11.789 51.4496C11.7329 51.436 9.16368 51.4782 9.16368 51.4782C9.16368 51.4782 8.61907 51.5349 8.57778 51.3523C8.57778 51.3523 8.50812 50.6409 8.53573 50.5557C8.53573 50.5557 8.53573 50.3472 8.4102 50.3337C8.4102 50.3337 7.86559 50.3056 7.85155 50.2489C7.85155 50.2489 7.5579 50.0407 7.64178 49.8315C7.64178 49.8315 7.74006 49.5512 8.03274 49.5235C8.03274 49.5235 8.4795 49.5942 8.4795 49.4683C8.4795 49.4683 8.50812 49.3845 8.50812 49.2454C8.50812 49.2454 8.53573 47.5829 8.52169 47.4715C8.52169 47.4715 8.56332 47.262 8.3817 47.262C8.3817 47.262 8.1864 47.3174 8.0613 47.234C8.0613 47.234 7.72602 47.2482 7.65625 46.9826C7.65625 46.9826 7.60009 46.8154 7.68343 46.6744C7.68343 46.6744 7.83756 46.3678 8.28432 46.466C8.28432 46.466 8.53573 46.5362 8.56332 46.3554L8.55018 45.6839C8.55018 45.6839 8.49354 45.5032 8.84286 45.4057C8.84286 45.4057 9.28962 45.5308 9.42876 45.3079C9.42876 45.3079 9.58284 44.9998 9.70699 45.2091C9.70699 45.2091 9.97344 45.4611 10.6993 45.4344C10.6993 45.4344 11.9562 45.3356 11.9837 45.3904C11.9837 45.3904 12.291 45.4344 12.3743 45.5308L12.4583 45.5445Z" fill="#182849"/>
<path d="M12.4587 45.5267C12.4587 45.5267 12.5556 45.486 12.5843 45.4162C12.5843 45.4162 12.8773 45.3877 12.9191 45.3459L13.8407 45.4162C13.8407 45.4162 14.7482 45.486 15.1391 45.2055C15.1391 45.2055 15.2798 45.2055 15.3775 45.2482C15.3775 45.2482 15.5724 45.2902 15.6272 45.3727L16.1592 45.3591C16.1592 45.3591 16.4658 45.458 16.4374 45.653V45.9041C16.4374 45.9041 16.3816 46.4071 16.5212 46.4348H16.9266C16.9266 46.4348 17.2616 46.5888 17.2203 46.7841C17.2203 46.7841 17.2343 47.0623 16.9413 47.119C16.9413 47.119 16.6472 47.2024 16.5507 47.1887C16.5507 47.1887 16.4522 47.3142 16.4374 47.4679L16.3961 49.2975C16.3961 49.2975 16.3681 49.4919 16.6611 49.4647C16.6611 49.4647 17.0934 49.4235 17.2203 49.6603C17.2203 49.6603 17.3322 50.0651 17.1088 50.1353L16.9413 50.2186L16.5773 50.2752C16.5773 50.2752 16.4242 50.2888 16.4106 50.553V51.0428C16.4106 51.0428 16.4242 51.3776 16.1592 51.3776L15.7681 51.4057C15.7681 51.4057 15.6701 51.4891 15.4751 51.4334C15.4751 51.4334 13.1012 51.4755 13.0173 51.4466L12.7374 51.503C12.7374 51.503 12.431 51.7826 12.1796 51.572L11.9838 51.4183C11.9838 51.4183 11.8442 51.4466 11.7891 51.4334C11.7329 51.4183 9.1642 51.4614 9.1642 51.4614C9.1642 51.4614 8.61916 51.5177 8.57746 51.3355C8.57746 51.3355 8.5081 50.6232 8.5357 50.5389C8.5357 50.5389 8.5357 50.3305 8.40982 50.3164C8.40982 50.3164 7.86568 50.2888 7.85122 50.2326C7.85122 50.2326 7.558 50.0229 7.64176 49.814C7.64176 49.814 7.74004 49.534 8.03326 49.5057C8.03326 49.5057 8.4796 49.5775 8.4796 49.45C8.4796 49.45 8.5081 49.3668 8.5081 49.2281C8.5081 49.2281 8.5357 47.5657 8.52214 47.4542C8.52214 47.4542 8.56384 47.244 8.38168 47.244C8.38168 47.244 8.1865 47.2997 8.06086 47.2168C8.06086 47.2168 7.72612 47.2304 7.65634 46.9654C7.65634 46.9654 7.59964 46.7982 7.68394 46.6577C7.68394 46.6577 7.83712 46.3504 8.2843 46.4483C8.2843 46.4483 8.5357 46.5191 8.56384 46.3378L8.5498 45.6667C8.5498 45.6667 8.49364 45.486 8.84296 45.3877C8.84296 45.3877 9.28972 45.5135 9.42928 45.2902C9.42928 45.2902 9.5824 44.9827 9.7075 45.1911C9.7075 45.1911 9.9739 45.443 10.6993 45.4162C10.6993 45.4162 11.9566 45.3173 11.9838 45.3727C11.9838 45.3727 12.2915 45.4162 12.3749 45.5135L12.4587 45.5267Z" stroke="#182849" stroke-width="0.00103073"/>
<path d="M12.8212 51.0319C12.8212 51.0319 12.9892 50.9472 13.1012 50.9763C13.2131 51.0039 14.846 50.9625 14.846 50.9625C14.846 50.9625 15.5578 51.0179 15.6702 50.9191L15.8365 50.8639C15.8365 50.8639 15.9067 50.7805 15.9067 50.6695C15.9067 50.5567 15.9208 50.1796 15.9208 50.1796L15.9634 50.041C15.9634 50.041 15.9489 49.9014 15.9634 46.173C15.9634 46.173 16.0182 45.8811 15.8365 45.6985C15.8365 45.6985 15.8365 45.588 15.8922 45.6012C15.9489 45.6161 15.9208 45.6161 15.9208 45.6161C15.9208 45.6161 16.1717 45.5449 16.213 45.6427C16.213 45.6427 16.3259 45.9766 16.2274 46.173C16.2274 46.173 16.1994 46.5784 16.4106 46.5784C16.4106 46.5784 16.4929 46.6628 16.6607 46.6201C16.6607 46.6201 17.0236 46.6628 17.0236 46.7733C17.0236 46.7733 17.0236 47.0257 16.7722 46.9835L16.4365 47.0106C16.4365 47.0106 16.213 47.0537 16.2416 47.318C16.2701 47.5834 16.2274 49.4823 16.2274 49.4823C16.2274 49.4823 16.2274 49.7066 16.5773 49.6926C16.5773 49.6926 17.0096 49.6781 17.0096 49.8031C17.0096 49.8031 17.1209 50.0822 16.8143 50.0968C16.8143 50.0968 16.2274 50.0822 16.2701 50.2495C16.2701 50.2495 16.2274 50.6413 16.1994 50.7102C16.1994 50.7102 16.2566 51.0319 16.1855 51.0882C16.1855 51.0882 16.1442 51.2689 15.7676 51.2413C15.7676 51.2413 13.3667 51.2276 12.9892 51.2554C12.9892 51.2554 12.7655 51.2276 12.8212 51.0319Z" fill="white"/>
<path d="M12.3904 50.7656C12.3904 50.7656 12.6273 50.8069 12.6273 51.0307C12.6273 51.2536 12.6414 51.3795 12.501 51.4072C12.3618 51.4353 12.2087 51.3942 12.1675 51.2127C12.1244 51.0307 12.1941 50.8069 12.3904 50.7656Z" fill="white"/>
<path d="M12.6679 50.6548C12.6679 50.6548 12.919 50.4863 13.0167 50.5154C13.0167 50.5154 14.2868 50.5982 14.6788 50.5297C15.0693 50.4595 14.8319 50.5154 14.8319 50.5154C14.8319 50.5154 15.1673 50.5154 15.2641 50.3889C15.2641 50.3889 15.3625 50.3621 15.4181 50.4595L15.6266 50.6838C15.6266 50.6838 15.6425 50.8221 15.4041 50.8079C15.4041 50.8079 13.1278 50.8079 13.0589 50.8221C13.0589 50.8221 12.6262 50.891 12.6679 50.6548Z" fill="white"/>
<path d="M12.6679 50.6535C12.6679 50.6535 12.919 50.4848 13.0167 50.5134C13.0167 50.5134 14.2877 50.5968 14.6791 50.5284C15.0703 50.4577 14.8322 50.5134 14.8322 50.5134C14.8322 50.5134 15.1681 50.5134 15.265 50.3865C15.265 50.3865 15.3629 50.3603 15.419 50.4577L15.6275 50.6824C15.6275 50.6824 15.6429 50.8211 15.405 50.8066C15.405 50.8066 13.1287 50.8066 13.0589 50.8211C13.0589 50.8211 12.6262 50.8901 12.6679 50.6535Z" stroke="#182849" stroke-width="0.00123687"/>
<path d="M9.36047 45.6987C9.36047 45.6987 9.45839 45.6987 9.44422 45.8665L9.41578 50.0824C9.41578 50.0824 9.45839 50.3623 9.22091 50.5432C9.22091 50.5432 9.09448 50.6963 9.09448 50.4598L9.15154 46.1595C9.15154 46.1595 9.16481 45.8381 9.36047 45.6987Z" fill="white"/>
<path d="M9.35923 45.6964C9.35923 45.6964 9.45714 45.6964 9.44388 45.864L9.41455 50.081C9.41455 50.081 9.45714 50.361 9.21924 50.5418C9.21924 50.5418 9.09229 50.6949 9.09229 50.4584L9.14947 46.1577C9.14947 46.1577 9.16303 45.8359 9.35923 45.6964Z" stroke="#182849" stroke-width="0.00123687"/>
<path d="M9.1359 45.7262C9.1359 45.7262 8.96821 46.0338 8.98231 46.1042L8.96821 47.0384C8.96821 47.0384 8.95417 47.6387 8.96821 47.7089C8.98231 47.7783 8.95417 49.5377 8.95417 49.5377C8.95417 49.5377 8.94019 49.872 8.95417 49.9844V50.7379C8.95417 50.7379 8.92615 51.0736 9.17719 50.9885C9.17719 50.9885 11.6348 50.9332 11.7888 50.9757C11.7888 50.9757 12.0113 51.017 11.9288 51.1289C11.9288 51.1289 11.9288 51.2274 11.7738 51.1987C11.7738 51.1987 10.6153 51.3096 9.56857 51.2685C9.56857 51.2685 8.8704 51.3096 8.82781 51.2274C8.82781 51.2274 8.71681 51.2132 8.71681 50.8078C8.71681 50.8078 8.71681 50.4317 8.68957 50.3618C8.68957 50.3618 8.71681 50.1638 8.36797 50.1234C8.36797 50.1234 7.87945 50.2077 7.86541 49.9146C7.86541 49.9146 7.93476 49.7053 8.41003 49.7325C8.41003 49.7325 8.75898 49.7886 8.68957 49.5086L8.73085 47.4438C8.73085 47.4438 8.77387 47.0792 8.53555 47.0646C8.53555 47.0646 8.31307 47.0533 8.24191 47.0792C8.24191 47.0792 7.83738 47.0792 7.86541 46.8436C7.86541 46.8436 8.00496 46.5916 8.41003 46.6478C8.41003 46.6478 8.71681 46.7032 8.73085 46.355C8.73085 46.355 8.71681 45.6425 8.88397 45.6152C8.88397 45.6152 9.23382 45.6278 9.1359 45.7262Z" fill="white"/>
<path d="M9.55411 50.3459C9.55411 50.3459 9.74977 50.5543 10.0716 50.5421L11.9685 50.5694C11.9685 50.5694 12.1794 50.5842 12.1662 50.6947C12.1662 50.6947 12.1363 50.862 11.8862 50.8063L9.59617 50.7786L9.3443 50.7939C9.3443 50.7939 9.17665 50.765 9.44305 50.4443L9.55411 50.3459Z" fill="white"/>
<path d="M9.55392 50.3459C9.55392 50.3459 9.74969 50.5547 10.0718 50.542L11.9694 50.5697C11.9694 50.5697 12.1796 50.5842 12.167 50.6951C12.167 50.6951 12.1375 50.8628 11.8874 50.8076L9.59609 50.7799L9.34409 50.7944C9.34409 50.7944 9.17693 50.7659 9.44286 50.4443L9.55392 50.3459Z" stroke="#182849" stroke-width="0.00123687"/>
<path d="M15.4182 50.1641C15.4182 50.1641 15.5857 50.4858 15.6695 50.5297C15.6695 50.5297 15.8232 50.7096 15.7816 50.3887L15.8092 46.3675C15.8092 46.3675 15.767 46.2276 15.8092 46.0051L15.642 45.6978C15.642 45.6978 15.4598 45.5584 15.4598 45.7813L15.4323 50.068L15.4182 50.1641Z" fill="white"/>
<path d="M15.4182 50.1647C15.4182 50.1647 15.5863 50.4859 15.6706 50.5304C15.6706 50.5304 15.8242 50.7106 15.7825 50.3891L15.8102 46.3669C15.8102 46.3669 15.768 46.2277 15.8102 46.0053L15.6425 45.6977C15.6425 45.6977 15.4598 45.5585 15.4598 45.7814L15.4323 50.0686L15.4182 50.1647Z" stroke="#182849" stroke-width="0.00123687"/>
<path d="M12.3203 48.2541C12.3203 48.2541 12.3344 48.5881 12.2917 48.9085C12.2691 49.0856 12.3483 49.9012 12.2777 50.3194C12.2777 50.3194 12.265 50.4593 11.9704 50.3343C11.9704 50.3343 10.184 50.3755 10.1282 50.3194C10.1282 50.3194 9.63983 50.3343 9.59766 50.0823C9.59766 50.0823 9.66744 48.1698 9.62574 48.0987C9.62574 48.0987 9.59766 47.052 9.62574 46.9546C9.62574 46.9546 9.66744 45.9914 9.63983 45.8799C9.63983 45.8799 9.65387 45.6565 9.6117 45.5442C9.6117 45.5442 9.6117 45.4046 9.8496 45.488C9.8496 45.488 9.9321 45.6421 10.3933 45.5737C10.3933 45.5737 10.729 45.6289 11.0503 45.5867C11.0503 45.5867 11.7617 45.531 11.9438 45.5867C11.9438 45.5867 12.2234 45.531 12.3057 45.8392L12.2917 46.7041L12.3751 46.9832L12.4734 46.9138L12.5147 46.7041L12.5288 45.7825C12.5288 45.7825 12.5845 45.6144 12.8087 45.5867C12.8087 45.5867 13.1577 45.5442 13.2143 45.5737C13.2701 45.6003 14.0226 45.6421 14.2333 45.6003C14.4421 45.5586 14.4834 45.7398 15.1128 45.4196C15.1128 45.4196 15.2804 45.4336 15.2804 45.5442C15.2804 45.5442 15.2233 46.7327 15.2804 46.9546C15.2804 46.9546 15.2804 49.1323 15.2369 49.286L15.2653 49.984C15.2653 49.984 15.2931 50.2914 14.8056 50.3194C14.8056 50.3194 15.1128 50.3615 13.1848 50.3057C13.1848 50.3057 12.8781 50.2914 12.5432 50.4445C12.5432 50.4445 12.4734 50.4308 12.4734 50.2496C12.4734 50.2496 12.5288 49.594 12.4734 48.9506L12.4463 48.2388L12.3203 48.2541Z" fill="white"/>
<path d="M11.0633 47.2629C11.0633 47.2629 11.1055 48.2956 11.0633 48.4351L11.0502 48.659C11.0502 48.659 11.1055 48.8116 11.1893 48.8683C11.1893 48.8683 11.2596 49.0631 11.0915 49.0495C11.0915 49.0495 10.743 49.0214 10.6592 49.0347C10.6592 49.0347 10.463 49.0347 10.6592 48.7848C10.6592 48.7848 10.7289 48.6856 10.7145 48.4351C10.7145 48.4351 10.7145 47.2629 10.743 47.1936C10.743 47.1936 10.7706 47.0391 10.6727 46.9969L10.5046 47.0115L10.2962 47.2068C10.2962 47.2068 10.2536 47.417 10.1558 47.1936V47.0809L10.2822 46.746L10.3661 46.7314C10.3661 46.7314 10.491 46.8154 10.6025 46.8443H11.2596L11.4965 46.7314C11.4965 46.7314 11.5939 46.746 11.5673 46.8715C11.5673 46.8715 11.608 47.1936 11.4267 47.2344C11.4267 47.2344 11.3148 47.1936 11.2596 47.0391C11.2596 47.0391 11.0779 46.9422 11.0633 47.2629Z" fill="#182849"/>
<path d="M14.1484 46.8862C14.1484 46.8862 13.6187 46.8441 13.6057 47.4162C13.6057 47.4162 13.5481 47.8082 14.1353 48.0597C14.1353 48.0597 14.5684 48.2682 14.5394 48.5332C14.5394 48.5332 14.4837 49.0081 14.0229 48.7711C14.0229 48.7711 13.8 48.6587 13.8149 48.5332C13.8149 48.5332 13.7439 48.3791 13.6605 48.4076C13.6605 48.4076 13.5621 48.4349 13.6057 48.8962C13.6057 48.8962 13.6057 49.0777 13.8149 48.8962L13.9249 48.9246C13.9249 48.9246 14.3024 49.2319 14.6228 48.8541C14.6228 48.8541 14.9727 48.5332 14.7207 48.1426C14.7207 48.1426 14.5394 47.8644 14.2187 47.7245C14.2187 47.7245 13.9114 47.5835 13.8421 47.3465C13.8421 47.3465 13.94 46.927 14.3161 47.1504C14.3161 47.1504 14.4561 47.318 14.5394 47.3465C14.5394 47.3465 14.6514 47.3465 14.6228 47.094L14.5965 46.8862C14.5965 46.8862 14.5684 46.7308 14.3722 46.8862C14.3722 46.8862 14.1906 46.9551 14.1484 46.8862Z" fill="#182849"/>
<path d="M12.4444 46.5921C12.5417 46.6632 12.5558 46.8024 12.5558 46.8024C12.835 47.5417 13.0728 48.6178 13.0728 48.6178C13.1421 48.756 13.2681 48.8684 13.2681 48.8684C13.5055 48.9518 13.2681 49.0211 13.2681 49.0211C13.1703 49.0637 12.85 49.0084 12.85 49.0084C12.6813 48.9786 12.7506 48.9241 12.7506 48.9241C12.8213 48.8544 12.7652 48.5743 12.7652 48.5743C12.7506 48.4638 12.6261 48.2817 12.6261 48.2817C12.5704 48.2535 12.4724 48.3791 12.4724 48.3791C12.4724 48.3791 12.3193 48.4352 12.3044 48.3791C12.2903 48.3224 12.1929 48.2695 12.1929 48.2695C12.0252 48.2695 11.9559 48.6857 11.9559 48.6857C12.0534 49.0351 11.9559 48.9786 11.9559 48.9786C11.8727 49.0914 11.6066 49.0084 11.6066 49.0084C11.4811 48.9786 11.5658 48.8811 11.5658 48.8811C11.7185 48.8544 11.7602 48.6857 11.7602 48.6857C11.8305 48.5883 12.2762 46.7738 12.2762 46.7738C12.3193 46.6894 12.3464 46.5222 12.4444 46.5921ZM12.222 47.5133C12.2074 47.5835 12.1091 47.9744 12.1091 47.9744L12.1929 48.1153C12.1929 48.1153 12.4167 48.1281 12.5001 48.1281C12.583 48.1281 12.598 48.0597 12.598 47.9884C12.598 47.9193 12.4444 47.5005 12.4444 47.5005L12.3738 47.4167L12.222 47.5133Z" fill="#182849"/>
<path d="M8.66415 43.2117C8.66415 43.2117 8.51013 43.7014 7.82602 43.1977L5.48069 43.1415C5.48069 43.1415 5.17353 43.2402 5.13135 42.9186C5.13135 42.9186 5.18759 42.277 5.15854 42.2208C5.15854 42.2208 5.17353 42.0386 4.86585 42.0386C4.86585 42.0386 4.39192 42.0957 4.37828 41.6767C4.37828 41.6767 4.29401 41.2285 4.9501 41.2439C4.9501 41.2439 5.15854 41.3412 5.17353 41.0758C5.17353 41.0758 5.1454 39.2611 5.15854 39.1207C5.15854 39.1207 5.2156 38.9549 4.89438 38.9263C4.89438 38.9263 4.43307 39.0232 4.37828 38.716C4.37828 38.716 4.34975 38.2561 4.6565 38.2277C4.6565 38.2277 5.03354 38.2561 5.10374 38.1596C5.10374 38.1596 5.18759 38.2136 5.17353 37.8783L5.18759 37.3065C5.18759 37.3065 5.22966 37.1529 5.4657 37.1669C5.4657 37.1669 5.8998 37.1946 5.95594 37.1529C5.95594 37.1529 6.05343 37.0279 6.08013 36.9711C6.08013 36.9711 6.30489 36.958 6.34653 37.0123C6.34653 37.0123 6.68091 37.2371 7.95274 37.1529C7.95274 37.1529 8.14714 37.1529 8.18931 37.2091C8.18931 37.2091 8.42625 37.3902 8.56582 37.1946C8.56582 37.1946 8.77521 37.1529 9.40395 37.1669C9.40395 37.1669 10.0869 37.3482 10.5622 36.958L10.7153 36.9867C10.7153 36.9867 10.9106 37.3065 11.0515 37.2091C11.0515 37.2091 11.4697 37.1669 11.5399 37.2512C11.5399 37.2512 11.68 37.4605 11.6089 38.0056C11.6089 38.0056 11.5259 38.2425 11.9305 38.2425C11.9305 38.2425 12.3909 38.1596 12.3356 38.5906C12.3356 38.5906 12.4615 39.0795 11.6936 39.0101C11.6936 39.0101 11.5953 39.1501 11.6089 39.2476C11.6089 39.2476 11.5953 40.8384 11.5815 41.0209C11.5815 41.0209 11.568 41.2707 11.903 41.258C11.903 41.258 12.3497 41.2285 12.3632 41.635C12.3632 41.635 12.419 42.1651 11.7773 42.0667C11.7773 42.0667 11.5815 42.0957 11.5531 42.2208L11.5259 42.9186C11.5259 42.9186 11.5399 43.2679 11.148 43.1845C11.0923 43.1845 8.97141 43.2258 8.78913 43.1709C8.78913 43.1709 8.69175 43.1569 8.66415 43.2117Z" fill="#182849"/>
<path d="M8.66229 43.2104C8.66229 43.2104 8.50828 43.7002 7.82416 43.1963L5.47844 43.1402C5.47844 43.1402 5.17117 43.2389 5.1291 42.9168C5.1291 42.9168 5.18575 42.2753 5.1567 42.219C5.1567 42.219 5.17117 42.0373 4.86351 42.0373C4.86351 42.0373 4.38958 42.0944 4.37603 41.6753C4.37603 41.6753 4.29219 41.2266 4.94828 41.2421C4.94828 41.2421 5.1567 41.3396 5.17117 41.0745C5.17117 41.0745 5.14306 39.259 5.1567 39.119C5.1567 39.119 5.21376 38.9526 4.89214 38.9244C4.89214 38.9244 4.43083 39.0215 4.37603 38.7138C4.37603 38.7138 4.3475 38.2539 4.65466 38.2259C4.65466 38.2259 5.0312 38.2539 5.10191 38.1571C5.10191 38.1571 5.18575 38.2119 5.17117 37.8765L5.18575 37.3042C5.18575 37.3042 5.22742 37.1507 5.46386 37.1652C5.46386 37.1652 5.89756 37.1923 5.9537 37.1507C5.9537 37.1507 6.05157 37.0261 6.07828 36.9694C6.07828 36.9694 6.30249 36.9558 6.34468 37.0106C6.34468 37.0106 6.67864 37.2349 7.95093 37.1507C7.95093 37.1507 8.14528 37.1507 8.18745 37.2069C8.18745 37.2069 8.4244 37.388 8.56401 37.1923C8.56401 37.1923 8.77378 37.1507 9.40216 37.1652C9.40216 37.1652 10.0856 37.3455 10.5604 36.9558L10.7139 36.9843C10.7139 36.9843 10.9092 37.3042 11.0497 37.2069C11.0497 37.2069 11.4679 37.1652 11.539 37.2485C11.539 37.2485 11.6781 37.4583 11.6074 38.003C11.6074 38.003 11.524 38.2408 11.9287 38.2408C11.9287 38.2408 12.39 38.1571 12.3337 38.5884C12.3337 38.5884 12.4597 39.0777 11.6922 39.0079C11.6922 39.0079 11.5935 39.1479 11.6074 39.2459C11.6074 39.2459 11.5935 40.8366 11.5803 41.0187C11.5803 41.0187 11.5662 41.2693 11.9011 41.2567C11.9011 41.2567 12.3478 41.2266 12.3619 41.6336C12.3619 41.6336 12.4171 42.1633 11.7755 42.065C11.7755 42.065 11.5803 42.0944 11.5517 42.219L11.524 42.9168C11.524 42.9168 11.539 43.2666 11.1467 43.1831C11.091 43.1831 8.96955 43.224 8.78734 43.1693C8.78734 43.1693 8.6899 43.1556 8.66229 43.2104Z" stroke="#182849" stroke-width="0.00103073"/>
<path d="M6.02574 37.4601C6.02574 37.4601 6.05388 37.7386 6.05388 37.8085C6.05388 37.8783 6.01128 41.8433 6.01128 41.8433C6.01128 41.8433 6.05387 42.1515 5.78795 42.3041C5.78795 42.3041 5.71857 42.3327 5.7041 42.1374L5.73263 37.949C5.73263 37.949 5.76024 37.432 6.02574 37.4601Z" fill="white"/>
<path d="M6.02622 37.4601C6.02622 37.4601 6.05423 37.7387 6.05423 37.8085C6.05423 37.8783 6.0117 41.8437 6.0117 41.8437C6.0117 41.8437 6.05423 42.1519 5.78795 42.3054C5.78795 42.3054 5.71857 42.3336 5.7041 42.1383L5.73171 37.9494C5.73171 37.9494 5.75982 37.4324 6.02622 37.4601Z" stroke="#182849" stroke-width="0.00123687"/>
<path d="M5.56397 42.3451C5.56397 42.3451 5.59116 38.4081 5.57802 38.3379C5.56397 38.269 5.59116 38.3945 5.59116 38.3945C5.59116 38.3945 5.55041 37.7113 5.73156 37.4312C5.73156 37.4312 5.67541 37.1938 5.3542 37.4865L5.34148 38.0592C5.34148 38.0592 5.34148 38.3805 5.04745 38.3663C5.04745 38.3663 4.71216 38.3519 4.55813 38.5065C4.55813 38.5065 4.47469 38.8131 4.79509 38.758C4.79509 38.758 5.29847 38.7579 5.32607 38.9658L5.29847 41.0746C5.29847 41.0746 5.41034 41.4235 5.01892 41.4235C5.01892 41.4235 4.54447 41.3968 4.55813 41.6899C4.55813 41.6899 4.65593 41.9414 5.06151 41.8571C5.06151 41.8571 5.3542 41.9132 5.34148 42.1911V42.7229C5.34148 42.7229 5.31201 42.9327 5.59116 42.9454H7.7696C7.7696 42.9454 7.88113 42.9594 7.88113 42.8194C7.88113 42.8194 7.86698 42.7093 7.70035 42.7093L5.88611 42.6804C5.88611 42.6804 5.59116 42.7782 5.56397 42.3451Z" fill="white"/>
<path d="M5.94146 42.3748C5.94146 42.3748 5.88615 42.5711 6.09459 42.5279H7.53268L7.92369 42.6114C7.92369 42.6114 8.32965 42.5138 7.92369 42.2899C7.92369 42.2899 6.63921 42.305 6.52725 42.2769C6.52725 42.2769 6.26271 42.2071 6.20655 42.1931C6.20655 42.1931 6.06658 42.1378 5.94146 42.3748Z" fill="white"/>
<path d="M5.93927 42.3745C5.93927 42.3745 5.88395 42.5714 6.09238 42.5276H7.531L7.9225 42.6118C7.9225 42.6118 8.3284 42.5144 7.9225 42.2902C7.9225 42.2902 6.63742 42.305 6.52558 42.2761C6.52558 42.2761 6.2605 42.2067 6.20434 42.1932C6.20434 42.1932 6.06424 42.1374 5.93927 42.3745Z" stroke="#182849" stroke-width="0.00123687"/>
<path d="M8.32742 42.5695C8.32742 42.5695 8.0615 42.5695 8.07548 42.9166C8.07548 42.9166 8.10362 43.1834 8.3822 43.1834C8.3822 43.1834 8.63378 43.14 8.60654 42.8621C8.60654 42.8621 8.4524 42.5125 8.32742 42.5695Z" fill="white"/>
<path d="M8.52389 42.4286C8.52389 42.4286 8.64899 42.2891 8.73364 42.2891C8.73364 42.2891 10.1293 42.4151 10.3667 42.2478C10.3667 42.2478 10.5768 42.2061 10.6317 42.2478C10.6317 42.2478 10.8411 42.415 10.8411 42.5124C10.8411 42.5124 10.8275 42.6393 10.5768 42.5694C10.5768 42.5694 8.99783 42.5826 8.9149 42.5826C8.9149 42.5826 8.48171 42.68 8.52389 42.4286Z" fill="white"/>
<path d="M8.52169 42.4288C8.52169 42.4288 8.64721 42.2888 8.73145 42.2888C8.73145 42.2888 10.1275 42.4152 10.3649 42.2479C10.3649 42.2479 10.5755 42.2059 10.6304 42.2479C10.6304 42.2479 10.8397 42.4152 10.8397 42.513C10.8397 42.513 10.8262 42.64 10.5755 42.5697C10.5755 42.5697 8.99659 42.5834 8.91271 42.5834C8.91271 42.5834 8.4795 42.6807 8.52169 42.4288Z" stroke="#182849" stroke-width="0.00123687"/>
<path d="M8.74731 42.8483C8.74731 42.8483 8.74731 42.7373 8.94166 42.7373L10.8977 42.7229C10.8977 42.7229 11.0784 42.8193 11.0784 42.4854C11.0784 42.4854 11.1501 40.9629 11.1564 39.2874C11.1591 38.7891 11.1809 38.2658 11.1619 37.7808C11.1619 37.7808 11.1203 37.572 11.0645 37.5289C11.0645 37.5289 11.0645 37.3056 11.3028 37.3903C11.3028 37.3903 11.5108 37.4034 11.4554 37.7242L11.469 38.2131C11.469 38.2131 11.4274 38.4225 11.8043 38.3667C11.8043 38.3667 12.1808 38.4225 12.1944 38.562C12.1944 38.562 12.3073 38.842 11.861 38.8135H11.5403C11.5403 38.8135 11.4002 38.8969 11.4418 39.0649L11.4002 41.0889C11.4002 41.0889 11.3712 41.4378 11.7073 41.4251C11.7073 41.4251 12.0563 41.4107 12.1251 41.5221C12.1251 41.5221 12.3634 41.8715 11.8465 41.8434C11.8465 41.8434 11.5252 41.8289 11.4554 41.8845C11.4554 41.8845 11.4002 41.9556 11.358 42.6109C11.358 42.6109 11.3857 43.002 11.0925 42.9598C11.0925 42.9598 9.15183 42.9869 8.97111 42.9457C8.97111 42.9457 8.77491 43.002 8.74731 42.8483Z" fill="white"/>
<path d="M6.23271 37.3323L6.19197 41.8143C6.19197 41.8143 6.17787 42.0223 6.52671 42.0644C6.52671 42.0644 6.93231 42.1066 7.02927 42.0644C7.02927 42.0644 7.29387 42.0508 7.97847 42.0789C7.97847 42.0789 8.14617 42.2456 8.15973 42.0373C8.15973 42.0373 8.27169 38.4066 8.21583 37.653C8.21583 37.653 8.20227 37.3323 7.96401 37.3182C7.96401 37.3182 6.90375 37.4016 6.80583 37.3182L6.38763 37.2063C6.38763 37.2063 6.21915 37.2195 6.23271 37.3323Z" fill="white"/>
<path d="M10.6594 37.5002L10.6458 41.9124C10.6458 41.9124 10.7577 42.3045 10.9399 42.2627C10.9399 42.2627 10.9675 42.1785 10.9811 42.0379L11.0377 37.8351C11.0377 37.8351 10.8977 37.1648 10.6594 37.5002Z" fill="white" stroke="#182849" stroke-width="0.00123687"/>
<path d="M10.6594 37.5002L10.6458 41.9124C10.6458 41.9124 10.7577 42.3045 10.9399 42.2627C10.9399 42.2627 10.9675 42.1785 10.9811 42.0379L11.0377 37.8351C11.0377 37.8351 10.8977 37.1648 10.6594 37.5002Z" stroke="#182849" stroke-width="0.00123687"/>
<path d="M8.43954 37.538C8.43954 37.538 8.39742 39.6458 8.41056 39.7166L8.38422 41.4899L8.32764 42.1025C8.32764 42.1025 8.41056 42.2299 8.48076 42.1456C8.48076 42.1456 8.928 42.0344 9.20706 42.0758C9.20706 42.0758 10.1011 42.1601 10.2818 42.02C10.2818 42.02 10.4215 42.0893 10.4635 41.866C10.4635 41.866 10.5188 37.9575 10.4911 37.8874C10.4911 37.8874 10.5473 37.3295 10.5188 37.2743C10.5188 37.2743 10.5047 37.1474 10.2687 37.2584C10.2687 37.2584 10.2958 37.3713 8.97012 37.3295C8.97012 37.3295 8.4672 37.3151 8.43954 37.538Z" fill="white"/>
<path d="M8.00929 38.8291L7.88293 39.0955C7.88293 39.0955 7.57705 40.4489 7.40983 40.7276C7.40983 40.7276 7.38175 41.0076 7.14433 40.7836C7.14433 40.7836 6.59929 39.0669 6.57157 39.0107L6.38995 38.8852C6.38995 38.8852 6.27985 38.7316 6.47419 38.718L6.99074 38.7316C6.99074 38.7316 7.15789 38.8707 6.93499 39.026C6.93499 39.026 6.96271 39.2491 7.25581 40.0995C7.25581 40.0995 7.33915 40.4208 7.43707 40.1833L7.71661 39.1919L7.63273 38.8988C7.63273 38.8988 7.54849 38.7593 7.67492 38.7457C7.67492 38.7457 7.96814 38.718 8.00929 38.8291Z" fill="#182849"/>
<path d="M8.81868 39.0527L8.80369 40.5325L8.76295 40.644C8.76295 40.644 8.62297 40.8248 8.72035 40.8393C8.72035 40.8393 8.59579 40.9236 9.61338 40.9371C9.61338 40.9371 10.0053 41.0065 9.90703 40.5041C9.90703 40.5041 9.86533 40.3227 9.72487 40.5883C9.72487 40.5883 9.68317 40.8106 9.18162 40.7414C9.18162 40.7414 9.06967 40.644 9.06967 40.5325V39.9177C9.06967 39.9177 9.05479 39.7636 9.29257 39.7795C9.29257 39.7795 9.55764 39.9462 9.59983 39.8755C9.59983 39.8755 9.69726 39.6531 9.59983 39.5131C9.59983 39.5131 9.47383 39.4999 9.46027 39.5556C9.46027 39.5556 9.37645 39.7223 9.13908 39.6245C9.13908 39.6245 9.02761 39.4016 9.09727 39.2199C9.09727 39.2199 9.06966 38.8706 9.30715 38.899C9.30715 38.899 9.5862 38.9544 9.61338 39.0391C9.61338 39.0391 9.68317 39.2072 9.75391 39.0115L9.68317 38.7731C9.68317 38.7731 9.64243 38.6753 9.57216 38.7033C9.57216 38.7033 9.09727 38.7731 9.04075 38.7164L8.6637 38.7591C8.6637 38.7591 8.60851 38.899 8.77656 38.968C8.77656 38.968 8.81868 38.9966 8.81868 39.0527Z" fill="#182849"/>
</g>
</g>
</svg>
