<svg width="140" height="36" viewBox="0 0 140 36" fill="none" xmlns="http://www.w3.org/2000/svg">
<g clip-path="url(#clip0_2_71)">
<g clip-path="url(#clip1_2_71)">
<g clip-path="url(#clip2_2_71)">
<path d="M67.9147 22.6121C67.6583 22.9571 67.2994 23.2431 66.8378 23.4699C66.3765 23.6968 65.7772 23.8103 65.04 23.8103C64.4376 23.8103 63.8991 23.7319 63.425 23.5755C62.9504 23.4189 62.5484 23.1921 62.2183 22.895C61.8879 22.5977 61.6367 22.2368 61.4636 21.8119C61.2906 21.387 61.2041 20.9029 61.2041 20.3595V20.1775C61.2041 19.6089 61.2906 19.1072 61.4636 18.6725C61.6367 18.238 61.8879 17.8723 62.2183 17.575C62.5484 17.2781 62.9504 17.0544 63.425 16.9042C63.8991 16.754 64.4376 16.6788 65.04 16.6788C66.0592 16.6788 66.8875 16.8865 67.5254 17.302C68.1628 17.7173 68.5522 18.3436 68.6933 19.1807H67.6744C67.61 18.9314 67.5027 18.7029 67.352 18.4952C67.2018 18.2876 67.0124 18.1117 66.7848 17.9681C66.5574 17.8244 66.2978 17.7125 66.0063 17.6325C65.7145 17.5528 65.3926 17.5128 65.04 17.5128C64.572 17.5128 64.1603 17.5798 63.8046 17.714C63.449 17.8481 63.1522 18.0368 62.9155 18.2797C62.678 18.5225 62.5003 18.8116 62.3816 19.1472C62.263 19.4827 62.2039 19.8548 62.2039 20.2636C62.2039 20.6535 62.263 21.0148 62.3816 21.3467C62.5003 21.6791 62.678 21.9651 62.9155 22.2047C63.1522 22.4443 63.449 22.6328 63.8046 22.7701C64.1603 22.9078 64.572 22.9762 65.04 22.9762C65.4886 22.9762 65.8798 22.9252 66.2129 22.8231C66.5461 22.7207 66.8299 22.5802 67.0637 22.4013C67.2978 22.2224 67.4836 22.0164 67.6214 21.7831C67.7592 21.5498 67.8506 21.3022 67.8955 21.0402H64.2518V20.1775H68.8569V23.5899H67.9147V22.6121Z" fill="#182849"/>
<path d="M75.8268 22.7558V23.5993H70.1162V16.8896H71.0584V22.7558H75.8268Z" fill="#182849"/>
<path d="M80.3261 17.5224C79.8839 17.5224 79.4814 17.5798 79.1198 17.6948C78.7574 17.81 78.4497 17.981 78.1965 18.2078C77.9434 18.4347 77.7481 18.7192 77.6102 19.061C77.4722 19.4028 77.4036 19.8037 77.4036 20.264C77.4036 20.7049 77.4722 21.0929 77.6102 21.4284C77.7481 21.764 77.9434 22.0451 78.1965 22.272C78.4497 22.4988 78.7574 22.6712 79.1198 22.7894C79.4814 22.9078 79.8839 22.9667 80.3261 22.9667C80.7684 22.9667 81.1704 22.9094 81.5326 22.7943C81.8947 22.6793 82.2023 22.5084 82.4555 22.2815C82.7086 22.0547 82.9041 21.7732 83.0421 21.4379C83.1798 21.1028 83.2486 20.7111 83.2486 20.264C83.2486 19.823 83.1798 19.433 83.0421 19.0945C82.9041 18.7557 82.7086 18.4698 82.4555 18.2366C82.2023 18.0035 81.8947 17.826 81.5326 17.7046C81.1704 17.5832 80.7684 17.5224 80.3261 17.5224ZM76.4036 20.1775C76.423 19.5703 76.53 19.0466 76.7257 18.6057C76.9212 18.1648 77.1902 17.8021 77.5333 17.5176C77.876 17.2335 78.283 17.0225 78.754 16.885C79.2252 16.7478 79.7491 16.6791 80.3261 16.6791C80.9028 16.6791 81.427 16.7509 81.8982 16.8946C82.369 17.0383 82.7758 17.2541 83.1189 17.5415C83.4618 17.8292 83.7309 18.1918 83.9266 18.6296C84.1221 19.0675 84.2293 19.5833 84.2488 20.1775V20.3502C84.2293 20.9444 84.1221 21.4604 83.9266 21.8981C83.7309 22.3359 83.4618 22.6954 83.1189 22.9766C82.7758 23.2577 82.369 23.4667 81.8982 23.6042C81.427 23.7415 80.9028 23.8103 80.3261 23.8103C79.7491 23.8103 79.2252 23.7415 78.754 23.6042C78.283 23.4667 77.876 23.2561 77.5333 22.9716C77.1902 22.6873 76.9212 22.3278 76.7257 21.8932C76.53 21.4588 76.423 20.9444 76.4036 20.3502V20.1775Z" fill="#182849"/>
<path d="M86.1522 22.7558H89.6804C90.0074 22.7558 90.2731 22.7288 90.4784 22.6744C90.6836 22.6202 90.8422 22.54 90.9542 22.4349C91.0665 22.3292 91.1432 22.2032 91.185 22.0562C91.2267 21.9092 91.2476 21.7463 91.2476 21.5674C91.2476 21.382 91.2283 21.2189 91.1899 21.0784C91.1515 20.938 91.0746 20.8166 90.9593 20.7142C90.8438 20.6121 90.6818 20.5353 90.4739 20.4841C90.2652 20.4331 89.9915 20.4076 89.6515 20.4076H86.1522V22.7558ZM86.1522 19.564H89.3249C89.6004 19.564 89.8375 19.5512 90.036 19.5256C90.2348 19.5002 90.3968 19.4524 90.5216 19.382C90.6468 19.3117 90.7395 19.214 90.8005 19.0895C90.8614 18.965 90.8917 18.8067 90.8917 18.6149C90.8917 18.4234 90.8582 18.2685 90.791 18.1501C90.7236 18.0321 90.6241 17.9425 90.4928 17.8817C90.3616 17.8211 90.1964 17.7811 89.9977 17.7619C89.7991 17.7428 89.5681 17.7332 89.3056 17.7332H86.1522V19.564ZM92.2667 21.644C92.2667 22.3405 92.047 22.8405 91.6081 23.144C91.169 23.4477 90.5265 23.5993 89.6804 23.5993H85.2101V16.8896H89.4113C89.7894 16.8896 90.1308 16.9136 90.4351 16.9615C90.7395 17.0094 91.0009 17.0956 91.2187 17.2204C91.4366 17.3449 91.6049 17.5112 91.7234 17.7188C91.8422 17.9265 91.9014 18.1933 91.9014 18.5193C91.9014 18.8643 91.8277 19.147 91.6802 19.3676C91.5328 19.5879 91.344 19.7654 91.113 19.8995C91.491 20.0337 91.7777 20.2337 91.9735 20.4985C92.1688 20.7636 92.2667 21.1456 92.2667 21.644Z" fill="#182849"/>
<path d="M95.2182 20.7238H98.4964L96.8621 17.4071L95.2182 20.7238ZM94.7951 21.5672L93.7953 23.5994H92.7472L96.0641 16.8898H97.6602L100.977 23.5994H99.9193L98.9194 21.5672H94.7951Z" fill="#182849"/>
<path d="M107.457 22.7558V23.5993H101.746V16.8896H102.688V22.7558H107.457Z" fill="#182849"/>
<path d="M67.9147 34.1144C67.6583 34.4595 67.2994 34.7454 66.8378 34.9721C66.3765 35.1989 65.7772 35.3126 65.04 35.3126C64.4376 35.3126 63.8991 35.2342 63.425 35.0779C62.9504 34.9213 62.5484 34.6942 62.2183 34.3973C61.8879 34.1 61.6367 33.7391 61.4636 33.3142C61.2906 32.889 61.2041 32.4052 61.2041 31.8618V31.6798C61.2041 31.111 61.2906 30.6096 61.4636 30.1748C61.6367 29.7404 61.8879 29.3744 62.2183 29.0775C62.5484 28.7802 62.9504 28.5564 63.425 28.4063C63.8991 28.2562 64.4376 28.1813 65.04 28.1813C66.0592 28.1813 66.8875 28.3888 67.5254 28.8043C68.1628 29.2197 68.5522 29.846 68.6933 30.6831H67.6744C67.61 30.4335 67.5027 30.2052 67.352 29.9973C67.2018 29.7897 67.0124 29.6141 66.7848 29.4705C66.5574 29.3267 66.2978 29.215 66.0063 29.135C65.7145 29.0551 65.3926 29.015 65.04 29.015C64.572 29.015 64.1603 29.0822 63.8046 29.2162C63.449 29.3505 63.1522 29.5389 62.9155 29.7818C62.678 30.0249 62.5003 30.3137 62.3816 30.6492C62.263 30.9851 62.2039 31.3573 62.2039 31.7661C62.2039 32.1557 62.263 32.5169 62.3816 32.8488C62.5003 33.1813 62.678 33.4672 62.9155 33.707C63.1522 33.9465 63.449 34.1351 63.8046 34.2724C64.1603 34.4099 64.572 34.4787 65.04 34.4787C65.4886 34.4787 65.8798 34.4274 66.2129 34.3254C66.5461 34.2231 66.8299 34.0825 67.0637 33.9034C67.2978 33.7247 67.4836 33.5186 67.6214 33.2854C67.7592 33.0519 67.8506 32.8045 67.8955 32.5424H64.2518V31.6798H68.8569V35.0923H67.9147V34.1144Z" fill="#182849"/>
<path d="M76.5382 34.2582V35.1015H70.1162V28.3921H76.2213V29.2355H71.0584V31.0472H75.2503V31.8905H71.0584V34.2582H76.5382Z" fill="#182849"/>
<path d="M78.538 29.015V35.1016H77.5958V28.3921H79.24L83.6047 34.4786V28.3921H84.5371V35.1016H82.8834L78.538 29.015Z" fill="#182849"/>
<path d="M92.3055 34.2582V35.1015H85.8833V28.3921H91.9882V29.2355H86.8255V31.0472H91.0172V31.8905H86.8255V34.2582H92.3055Z" fill="#182849"/>
<path d="M94.3052 31.8044H97.5355C98.093 31.8044 98.5079 31.6956 98.7805 31.4786C99.0529 31.2612 99.1888 30.9449 99.1888 30.5294C99.1888 30.1206 99.0605 29.8028 98.8045 29.5758C98.5479 29.3493 98.1602 29.2356 97.6411 29.2356H94.3052V31.8044ZM94.3052 32.648V35.1015H93.363V28.392H97.8528C98.2048 28.392 98.5256 28.4386 98.814 28.5311C99.1023 28.6237 99.3477 28.7612 99.5495 28.943C99.7515 29.1253 99.9083 29.3538 100.021 29.6287C100.133 29.9037 100.189 30.223 100.189 30.5871C100.17 31.1239 100.04 31.5487 99.7994 31.8619C99.5591 32.175 99.2275 32.3956 98.8045 32.5233L100.295 35.0921H99.1888L97.7951 32.648H94.3052Z" fill="#182849"/>
<path d="M103.342 32.226H106.62L104.986 28.9096L103.342 32.226ZM102.919 33.0697L101.919 35.1016H100.871L104.188 28.3921H105.784L109.101 35.1016H108.043L107.043 33.0697H102.919Z" fill="#182849"/>
<path d="M113.321 29.2358V35.1017H112.379V29.2358H109.389V28.392H116.321V29.2358H113.321Z" fill="#182849"/>
<path d="M123.387 34.2582V35.1015H117.186V34.2582H119.791V29.2355H117.186V28.3921H123.387V29.2355H120.734V34.2582H123.387Z" fill="#182849"/>
<path d="M128.175 29.0247C127.733 29.0247 127.33 29.0822 126.968 29.1971C126.606 29.3123 126.299 29.4831 126.045 29.7099C125.792 29.9369 125.597 30.2213 125.459 30.5629C125.321 30.9049 125.252 31.306 125.252 31.7661C125.252 32.2069 125.321 32.5951 125.459 32.9305C125.597 33.266 125.792 33.5472 126.045 33.7739C126.299 34.0011 126.606 34.1735 126.968 34.2915C127.33 34.4101 127.733 34.4688 128.175 34.4688C128.617 34.4688 129.019 34.4117 129.381 34.2966C129.744 34.1816 130.051 34.0106 130.304 33.7836C130.557 33.557 130.753 33.2755 130.891 32.9402C131.029 32.6049 131.097 32.2132 131.097 31.7661C131.097 31.3251 131.029 30.9353 130.891 30.5968C130.753 30.2578 130.557 29.9721 130.304 29.7386C130.051 29.5056 129.744 29.3283 129.381 29.2069C129.019 29.0854 128.617 29.0247 128.175 29.0247ZM124.252 31.6798C124.271 31.0726 124.379 30.5487 124.574 30.1079C124.77 29.6667 125.039 29.3042 125.382 29.0198C125.725 28.7359 126.132 28.5247 126.603 28.3874C127.074 28.2499 127.598 28.1813 128.175 28.1813C128.752 28.1813 129.276 28.2532 129.747 28.3969C130.218 28.5404 130.625 28.7562 130.968 29.0438C131.31 29.3312 131.58 29.6941 131.775 30.1319C131.971 30.5697 132.078 31.0852 132.097 31.6798V31.8524C132.078 32.4467 131.971 32.9627 131.775 33.4004C131.58 33.8382 131.31 34.1977 130.968 34.4786C130.625 34.7598 130.218 34.969 129.747 35.1065C129.276 35.2436 128.752 35.3126 128.175 35.3126C127.598 35.3126 127.074 35.2436 126.603 35.1065C126.132 34.969 125.725 34.758 125.382 34.4739C125.039 34.1896 124.77 33.8301 124.574 33.3953C124.379 32.9611 124.271 32.4467 124.252 31.8524V31.6798Z" fill="#182849"/>
<path d="M134.001 29.015V35.1016H133.059V28.3921H134.703L139.067 34.4786V28.3921H140V35.1016H138.346L134.001 29.015Z" fill="#182849"/>
<path d="M6.38656 33.9723V1.33789C2.1315 5.56058 0 10.9844 0 17.6162C0 24.2476 2.13005 29.6986 6.38656 33.9723Z" fill="#182849"/>
<path d="M45.1707 11.6341H53.0377C52.4575 8.98041 51.3181 6.75351 49.6183 4.9534C47.9184 3.15378 45.9874 1.87292 43.8267 1.11034C43.071 0.844253 42.2921 0.627264 41.4919 0.454102V7.81618C41.6599 7.90169 41.826 7.99054 41.9885 8.08683C43.4512 8.95382 44.5116 10.1365 45.1707 11.6341Z" fill="#182849"/>
<path d="M24.769 16.7081V22.0294H33.7833C33.3078 24.098 32.2984 25.6717 30.755 26.746C30.673 26.8042 30.5887 26.8602 30.502 26.9162C28.8159 27.995 26.9049 28.5319 24.769 28.5319C23.6121 28.5319 22.5278 28.3849 21.5208 28.0908C19.8698 27.6074 18.4224 26.7319 17.179 25.4593C15.1765 23.4092 14.1743 20.8081 14.1743 17.6537C14.1743 14.476 15.1695 11.875 17.1602 9.85047C18.3921 8.59427 19.8463 7.73038 21.5231 7.25425C22.5489 6.95991 23.6566 6.81524 24.8489 6.81524C26.7714 6.81524 28.4671 7.24946 29.9283 8.11575C30.1928 8.27214 30.4436 8.43787 30.6824 8.61535C31.762 9.41865 32.5723 10.4365 33.111 11.6623H40.9773C40.6004 9.93692 39.9867 8.39357 39.1344 7.03007C38.6802 6.29456 38.153 5.6103 37.5582 4.98232C35.858 3.18198 33.9283 1.90256 31.7667 1.13903C31.4155 1.0152 31.0571 0.900958 30.6966 0.798211C28.837 0.263402 26.8487 -0.00268555 24.7292 -0.00268555C19.275 -0.00268555 14.8534 1.63863 11.467 4.92389C8.08053 8.20915 6.38745 12.4517 6.38745 17.6537C6.38745 22.8045 8.04787 27.0353 11.3687 30.3461C14.6896 33.6571 18.8534 35.3124 23.8604 35.3124C26.0642 35.3124 28.0314 34.9879 29.762 34.3366C30.3687 34.1101 30.9447 33.8438 31.4903 33.538C33.598 32.3566 35.2584 30.7921 36.4716 28.8474L36.5512 35.3031C38.3662 35.2496 40.0148 34.9672 41.4926 34.458V16.7081H24.769Z" fill="#182849"/>
<path d="M53.5511 16.679V35.2833H48.6097L48.53 28.8181C47.3192 30.763 45.6589 32.3273 43.5488 33.5089C42.9071 33.8707 42.2162 34.1696 41.4926 34.4194V27.4779C41.858 27.3004 42.2162 27.1089 42.5605 26.8871C44.2468 25.8107 45.3426 24.181 45.8416 22.0003H41.4926V16.679H53.5511Z" fill="#182849"/>
</g>
</g>
</g>
<defs>
<clipPath id="clip0_2_71">
<rect width="140" height="35.31" fill="white"/>
</clipPath>
<clipPath id="clip1_2_71">
<rect width="140" height="35.31" fill="white"/>
</clipPath>
<clipPath id="clip2_2_71">
<rect width="140" height="35.3153" fill="white" transform="translate(0 -0.00268555)"/>
</clipPath>
</defs>
</svg>
