<svg width="95" height="30" viewBox="0 0 95 30" fill="none" xmlns="http://www.w3.org/2000/svg">
<path d="M32.9155 9.92981C32.6828 10.1623 32.3188 10.3444 31.7719 10.3444C31.3259 10.3444 30.8983 10.2061 30.6096 9.91737C30.2323 9.54031 30.2449 9.06313 30.2449 8.64854V6.07336H30.8106V8.71157C30.8106 9.03193 30.798 9.34578 31.0495 9.59701C31.219 9.76668 31.4828 9.8609 31.7907 9.8609C32.0987 9.8609 32.3312 9.75403 32.4822 9.60334C32.765 9.32069 32.7401 9.00032 32.7401 8.29066V6.07336H33.2931V8.20257C33.2929 8.98137 33.318 9.52787 32.9155 9.92981Z" fill="#182849"/>
<path d="M37.3325 10.2628L35.3533 6.92761L35.3659 10.2628H34.8505V6.07336H35.4095L37.3893 9.42123L37.3769 6.07336H37.8915V10.2628H37.3325Z" fill="#182849"/>
<path d="M39.5825 10.2628V6.07336H40.1478V10.2628H39.5825Z" fill="#182849"/>
<path d="M43.2912 10.2628H42.6691L41.2237 6.07336H41.808L42.9956 9.6849L44.215 6.07336H44.7615L43.2912 10.2628Z" fill="#182849"/>
<path d="M45.8601 10.2628V6.07336H48.1793V6.53811H46.4131V7.85712H48.0722V8.30942H46.4131V9.78543H48.2292V10.2628H45.8601Z" fill="#182849"/>
<path d="M51.8142 10.2629L51.3302 9.17C51.0411 8.52315 50.9026 8.46645 50.3371 8.46645H50.0732V10.2629H49.5203V6.07337H50.4503C51.0097 6.07337 51.4432 6.06726 51.7826 6.40638C51.9901 6.61358 52.1096 6.89011 52.1096 7.24167C52.1096 7.53063 52.0277 7.77555 51.8518 7.96397C51.701 8.12733 51.4557 8.26558 51.1795 8.29678C51.3178 8.30311 51.4557 8.38469 51.5378 8.46645C51.6632 8.59228 51.7513 8.79315 51.8643 9.05071L52.4051 10.2629H51.8142ZM51.368 6.73919C51.1419 6.51305 50.8464 6.51936 50.5069 6.51936H50.0732V8.02046H50.2685C50.6701 8.02046 51.0789 8.03311 51.3429 7.76923C51.4747 7.6375 51.5503 7.44274 51.5503 7.24167C51.5501 7.01532 51.462 6.83341 51.368 6.73919Z" fill="#182849"/>
<path d="M54.5645 10.3506C53.8227 10.3506 53.3265 9.94864 53.2762 9.89828L53.5465 9.50878C53.6217 9.55914 54.0303 9.86688 54.5394 9.86688C55.0544 9.86688 55.3564 9.55914 55.3564 9.17598C55.3564 8.71755 54.843 8.49139 54.3907 8.27156C53.8566 8.014 53.3959 7.73768 53.3959 7.12202C53.3959 6.4562 53.9359 5.99146 54.7088 5.99146C55.4821 5.99146 55.8655 6.37464 55.9031 6.41849L55.62 6.7829C55.5699 6.73905 55.2369 6.46885 54.7468 6.46885C54.2881 6.46885 53.9612 6.69501 53.9612 7.07186C53.9612 7.46747 54.332 7.6141 54.7468 7.82782C55.1174 8.01604 55.9407 8.30296 55.9407 9.1258C55.9405 9.81671 55.4316 10.3506 54.5645 10.3506Z" fill="#182849"/>
<path d="M57.2658 10.2628V6.07336H57.8313V10.2628H57.2658Z" fill="#182849"/>
<path d="M60.7193 6.53811V10.2628H60.1536V6.53811H58.9217V6.07336H61.9445V6.53811H60.7193Z" fill="#182849"/>
<path d="M64.3847 8.60423V10.2624H63.8253V8.60423L62.4994 6.07288H63.1174L64.1397 8.04424L65.1424 6.07288H65.7108L64.3847 8.60423Z" fill="#182849"/>
<path d="M70.4005 10.3443C69.2946 10.3443 68.4966 9.44598 68.4966 8.17735C68.4966 6.88343 69.2885 5.99146 70.4324 5.99146C71.5509 5.99146 72.3299 6.88343 72.3299 8.14593C72.3299 9.45229 71.5446 10.3443 70.4005 10.3443ZM70.3942 6.46885C69.5962 6.46885 69.0748 7.141 69.0748 8.16471C69.0748 9.18229 69.6593 9.86055 70.4259 9.86055C71.299 9.86055 71.7518 9.11295 71.7518 8.12697C71.7518 7.12835 71.1926 6.46885 70.3942 6.46885Z" fill="#182849"/>
<path d="M74.2301 6.53811V7.85712H75.8388V8.30942H74.2301V10.2628H73.671V6.07336H75.9395V6.53811H74.2301Z" fill="#182849"/>
<path d="M38.7396 18.4968C38.7396 21.1798 36.6721 23.1233 34.0864 23.1233C31.454 23.1233 29.4333 21.1551 29.4333 18.5959C29.4333 15.915 31.5034 13.97 34.0864 13.97C36.7223 13.9698 38.7396 15.9365 38.7396 18.4968ZM37.2414 18.5459C37.2414 16.11 36.0835 14.4637 34.0864 14.4637C31.921 14.4637 30.9367 16.4556 30.9367 18.5459C30.9367 20.9831 32.0939 22.6379 34.0864 22.6379C36.2555 22.6379 37.2414 20.6413 37.2414 18.5459Z" fill="#182849"/>
<path d="M67.1538 18.4968C67.1538 21.1798 65.0854 23.1233 62.5004 23.1233C59.8682 23.1233 57.847 21.1551 57.847 18.5959C57.847 15.915 59.9164 13.97 62.5004 13.97C65.1341 13.9698 67.1538 15.9365 67.1538 18.4968ZM65.6532 18.5459C65.6532 16.11 64.4958 14.4637 62.5004 14.4637C60.3332 14.4637 59.3493 16.4556 59.3493 18.5459C59.3493 20.9831 60.5062 22.6379 62.5004 22.6379C64.6668 22.6379 65.6532 20.6413 65.6532 18.5459Z" fill="#182849"/>
<path d="M70.7482 18.5706H71.8557C73.5302 18.5706 73.8761 17.5426 73.8761 16.5313C73.8761 15.7739 73.5549 15.1556 72.7682 14.8104C72.3479 14.6374 71.9542 14.6134 71.4134 14.6134H70.748L70.7482 18.5706ZM72.7682 20.0287C72.2509 19.2874 72.0535 19.0643 71.4134 19.0643H70.748V22.0214C70.748 22.2688 70.822 22.3905 71.1174 22.4412L72.1273 22.6379V22.9855H68.1399V22.6379L69.0497 22.4412C69.3461 22.3658 69.4176 22.2688 69.4176 22.0214V15.0828C69.4176 14.8353 69.3218 14.7109 69.0497 14.6619L68.1399 14.4637V14.1193H72.0286C72.8423 14.1193 73.408 14.1923 73.8759 14.3658C74.8351 14.7351 75.3761 15.6495 75.3761 16.5058C75.3761 17.5911 74.565 18.4968 73.2103 18.8179V18.8681C73.4824 18.99 73.6291 19.1656 74.5897 20.4223L75.8208 22.0216C75.9922 22.269 76.1904 22.4414 76.5089 22.4913L77.3472 22.6381V22.9857H75.2061C74.9589 22.9857 74.8353 22.9103 74.6142 22.6126L72.7682 20.0287Z" fill="#182849"/>
<path d="M55.4099 17.1725H55.8285V20.1041H55.4099L55.2367 19.2619C55.1654 18.9425 54.968 18.8177 54.6712 18.8177H52.5301V22.0214C52.5301 22.2688 52.6041 22.3905 52.8978 22.4412L53.9095 22.6379V22.9855H49.9193V22.6379L50.8289 22.4412C51.1259 22.3658 51.1999 22.2688 51.1999 22.0214V15.0828C51.1999 14.8353 51.1008 14.7109 50.8289 14.6619L49.9193 14.4637V14.1193H56.6411V16.3327H56.2237L55.8778 15.083C55.7795 14.7351 55.5811 14.6134 55.2863 14.6134H52.5301V18.3232H54.6712C54.9678 18.3232 55.1654 18.2074 55.2367 17.8886L55.4099 17.1725Z" fill="#182849"/>
<path d="M78.0614 22.9855V22.6379L78.9716 22.4412C79.2676 22.3658 79.342 22.2688 79.342 22.0214V15.0828C79.342 14.8353 79.2431 14.7109 78.9716 14.6619L78.0614 14.4637V14.1193H82.223C83.3548 14.1193 84.168 14.2653 84.8307 14.5634C86.5066 15.33 87.2686 16.9755 87.2686 18.5957C87.2686 20.1759 86.6798 21.6491 85.1766 22.4412C84.4875 22.8096 83.5277 22.9855 82.2722 22.9855H78.0614ZM80.6474 14.6134V22.0937C80.6474 22.4159 80.7206 22.4913 81.0411 22.4913H82.1241C83.1577 22.4913 83.9214 22.366 84.4632 21.9719C85.375 21.3053 85.7685 20.1526 85.7685 18.6208C85.7685 17.1221 85.3748 15.6989 84.1434 14.9823C83.6241 14.6864 82.9612 14.6132 81.927 14.6132L80.6474 14.6134Z" fill="#182849"/>
<path d="M42.2378 22.6381V22.9857H39.0601V22.6381L39.8475 22.4661C40.1429 22.3907 40.3654 22.2943 40.5395 22.0684L43.1999 18.6711L40.5395 15.083C40.3654 14.8355 40.1431 14.7111 39.8726 14.6374L39.1359 14.4637V14.1193H43.0513V14.4637L42.2127 14.6134C41.9434 14.6619 41.9681 14.7351 42.1171 14.9329L44.0841 17.7165H44.1341L46.1765 14.9823C46.3249 14.7851 46.3249 14.6864 46.1026 14.6374L45.316 14.4637V14.1193H48.4905V14.4637L47.7045 14.6374C47.4079 14.7111 47.1854 14.8104 47.014 15.0324L44.4802 18.2076L47.3088 22.0218C47.4818 22.2692 47.7041 22.3909 47.9758 22.4663L48.7123 22.6384V22.9859H44.7965V22.6384L45.637 22.4915C45.9046 22.4416 45.8795 22.3662 45.7348 22.1687L43.5895 19.1658H43.5413L41.3503 22.1687C41.2016 22.3662 41.1779 22.4161 41.4486 22.4663L42.2378 22.6381Z" fill="#182849"/>
<path d="M18.6729 11.0998C18.6729 11.0998 18.6729 15.1655 18.6729 15.4861C18.363 15.4861 15.4809 15.4861 15.4809 15.4861L15.437 15.5943C15.3852 15.7228 15.2911 15.8417 14.959 15.8417C14.627 15.8417 14.5331 15.7228 14.4811 15.5943L14.4375 15.4861C14.4375 15.4861 11.5621 15.4861 11.2522 15.4861C11.2522 15.1655 11.2522 11.0998 11.2522 11.0998H10.9053V11.2132L10.6621 11.1386C10.6264 11.0307 10.5258 10.9521 10.406 10.9521C10.2567 10.9521 10.1349 11.0735 10.1349 11.2232C10.1349 11.3729 10.2567 11.4942 10.406 11.4942C10.4683 11.4942 10.525 11.4724 10.5707 11.4369L10.9053 11.5397V11.8745L10.6645 11.8315C10.6231 11.7436 10.537 11.6806 10.4334 11.6755C10.284 11.6683 10.1567 11.7836 10.1496 11.933C10.1422 12.0825 10.2579 12.2094 10.4073 12.2167C10.486 12.2206 10.5578 12.1898 10.6099 12.1386L10.9053 12.1916V12.534L10.6527 12.5228C10.6046 12.448 10.5207 12.398 10.425 12.398C10.2757 12.398 10.1539 12.5193 10.1539 12.6688C10.1539 12.8183 10.2757 12.9398 10.425 12.9398C10.5119 12.9398 10.5884 12.898 10.638 12.8344L10.9051 12.8462V13.2186L10.6439 13.228C10.5944 13.1633 10.5172 13.1209 10.4295 13.1209C10.2802 13.1209 10.1586 13.2423 10.1586 13.3917C10.1586 13.5412 10.2802 13.6625 10.4295 13.6625C10.5244 13.6625 10.6078 13.6136 10.656 13.5396L10.9049 13.5306V13.8736L10.6164 13.9232C10.5672 13.874 10.4995 13.8436 10.4246 13.8436C10.2753 13.8436 10.1534 13.965 10.1534 14.1144C10.1534 14.2643 10.2753 14.3853 10.4246 14.3853C10.5323 14.3853 10.6248 14.3218 10.6684 14.2309L10.9047 14.1903V14.526L10.5846 14.6237C10.5387 14.5884 10.4821 14.5664 10.4197 14.5664C10.2702 14.5664 10.1486 14.6875 10.1486 14.8372C10.1486 14.9871 10.2702 15.1082 10.4197 15.1082C10.5395 15.1082 10.6401 15.0301 10.6758 14.922L10.9047 14.8521V15.1751L10.547 15.3292C10.5028 15.3021 10.4501 15.2874 10.3944 15.2895C10.2451 15.2954 10.1284 15.4216 10.1343 15.5711C10.1402 15.7208 10.2669 15.8372 10.416 15.8311C10.5425 15.826 10.6443 15.7347 10.6694 15.6164L10.9045 15.5148V15.8331C10.9045 15.8331 14.0404 15.8331 14.2228 15.8331C14.3634 16.0668 14.6013 16.1884 14.9581 16.1884C15.3154 16.1884 15.5529 16.0668 15.6937 15.8331C15.8761 15.8331 19.0189 15.8331 19.0189 15.8331V11.1L18.6729 11.0998Z" fill="#182849"/>
<path d="M12.7844 10.1399C13.4526 10.1399 13.9943 10.0361 13.9943 9.90803C13.9943 9.77997 13.4526 9.67615 12.7844 9.67615C12.1162 9.67615 11.5745 9.77997 11.5745 9.90803C11.5745 10.0361 12.1162 10.1399 12.7844 10.1399Z" fill="#182849"/>
<path d="M14.4498 8.17864L13.7514 8.66908L13.7454 8.71883L13.9113 8.79328C13.9442 8.80978 13.9446 8.8361 13.9278 8.85201L13.4892 9.22192L13.4474 9.21826L13.1368 8.76045C13.1156 8.73066 13.1231 8.7011 13.1605 8.69499L13.369 8.66093V8.6083L12.8285 7.8446H12.7396L12.1991 8.6083V8.66093L12.4076 8.69499C12.4449 8.7013 12.4529 8.73086 12.4313 8.76045L12.1205 9.21826L12.0785 9.22212L11.669 8.85222C11.6523 8.8363 11.6525 8.80978 11.6852 8.79348L11.8512 8.71903L11.8453 8.66929L11.118 8.17884L11.059 8.20189L11.486 9.50621C11.7027 9.40892 12.2007 9.34042 12.7836 9.33756C13.3666 9.34021 13.8648 9.40892 14.0813 9.50621L14.5085 8.20189L14.4498 8.17864Z" fill="#182849"/>
<path d="M14.9539 18.8861C15.6221 18.8861 16.1638 18.7823 16.1638 18.6542C16.1638 18.5262 15.6221 18.4224 14.9539 18.4224C14.2857 18.4224 13.744 18.5262 13.744 18.6542C13.744 18.7823 14.2857 18.8861 14.9539 18.8861Z" fill="#182849"/>
<path d="M16.6195 16.9246L15.9211 17.4153L15.9152 17.465L16.081 17.5395C16.1139 17.5558 16.1143 17.5821 16.0976 17.598L15.6589 17.9681L15.6171 17.9643L15.3065 17.5066C15.2853 17.4769 15.2929 17.4473 15.3304 17.441L15.5387 17.4071V17.3545L14.998 16.5908H14.9093L14.3688 17.3545V17.4071L14.5773 17.441C14.6147 17.4473 14.6226 17.4769 14.601 17.5066L14.2903 17.9643L14.2486 17.9681L13.839 17.598C13.8222 17.5821 13.8226 17.5558 13.8553 17.5395L14.0214 17.465L14.015 17.4153L13.2879 16.9246L13.2289 16.9477L13.6561 18.252C13.8728 18.1545 14.3709 18.086 14.9538 18.0833C15.5367 18.086 16.0347 18.1547 16.2514 18.252L16.6786 16.9477L16.6195 16.9246Z" fill="#182849"/>
<path d="M17.1182 10.1399C17.7865 10.1399 18.3281 10.0361 18.3281 9.90803C18.3281 9.77997 17.7865 9.67615 17.1182 9.67615C16.45 9.67615 15.9084 9.77997 15.9084 9.90803C15.9084 10.0361 16.45 10.1399 17.1182 10.1399Z" fill="#182849"/>
<path d="M18.7838 8.17864L18.0854 8.66908L18.0795 8.71883L18.2453 8.79328C18.2782 8.80978 18.2786 8.8361 18.2619 8.85201L17.8232 9.22192L17.7816 9.21826L17.4709 8.76045C17.4496 8.73066 17.4572 8.7011 17.4945 8.69499L17.7033 8.66093V8.6083L17.1626 7.8446H17.0734L16.5329 8.6083V8.66093L16.7414 8.69499C16.779 8.7013 16.7867 8.73086 16.7651 8.76045L16.4544 9.21826L16.4128 9.22192L16.0031 8.84711C15.9865 8.8312 15.9865 8.8047 16.0192 8.78837L16.1857 8.71865L16.1793 8.66888L15.452 8.17843L15.3932 8.20148L15.8202 9.5058C16.0369 9.40853 16.535 9.34001 17.1179 9.33715C17.701 9.3398 18.199 9.40853 18.4157 9.5058L18.8427 8.20148L18.7838 8.17864Z" fill="#182849"/>
<path d="M14.9442 4.91576C15.0812 4.91576 15.1923 4.80474 15.1923 4.66778C15.1923 4.53084 15.0812 4.4198 14.9442 4.4198C14.8072 4.4198 14.6961 4.53084 14.6961 4.66778C14.6961 4.80474 14.8072 4.91576 14.9442 4.91576Z" fill="#182849"/>
<path d="M20.7372 7.21445C20.8742 7.21445 20.9854 7.10343 20.9854 6.96649C20.9854 6.82952 20.8742 6.71851 20.7372 6.71851C20.6003 6.71851 20.4891 6.82952 20.4891 6.96649C20.4891 7.10343 20.6003 7.21445 20.7372 7.21445Z" fill="#182849"/>
<path d="M12.2136 11.5137C12.1928 11.5137 12.1811 11.5165 12.1748 11.52C12.1701 11.5216 12.1695 11.5426 12.1695 11.5651V11.9117C12.1695 11.9919 12.1895 12.0074 12.2327 12.0074C12.3105 12.0074 12.3892 11.9217 12.3892 11.7619C12.389 11.5679 12.2905 11.5137 12.2136 11.5137Z" fill="#182849"/>
<path d="M12.9513 12.0217C13.029 12.0217 13.0713 11.9466 13.0713 11.7835C13.0713 11.6022 13.0064 11.5021 12.9286 11.5021C12.8593 11.5021 12.8015 11.5814 12.8015 11.7392C12.8013 11.9026 12.8628 12.0217 12.9513 12.0217Z" fill="#182849"/>
<path d="M14.7799 11.7827C14.7799 11.4189 14.6566 11.1256 14.3902 10.969C14.2233 10.8709 13.997 10.8389 13.7181 10.8389L11.6994 10.8385V14.9307H13.8974C14.4063 14.9307 14.7054 15.0453 14.7315 15.5015H14.7803L14.7799 11.7827ZM13.2907 12.0201C13.3341 12.0162 13.3511 12.0074 13.3566 11.9738C13.3613 11.9458 13.3664 11.8981 13.3708 11.8159L13.3809 11.6338C13.3872 11.5202 13.38 11.5102 13.3086 11.5039V11.4686H13.5208L13.6787 11.8261L13.8168 11.4686H14.0362V11.5039C13.9676 11.5102 13.9642 11.5139 13.9666 11.6087L13.9756 11.911C13.9785 12.0111 13.9799 12.0137 14.0452 12.0203V12.0551H13.7626V12.0203C13.8301 12.0137 13.833 12.0111 13.8322 11.911L13.8293 11.5932H13.8256L13.6514 12.0453H13.6026L13.4374 11.6248H13.4355L13.4292 11.8251C13.4263 11.9026 13.4274 11.9458 13.431 11.9738C13.4347 12.0074 13.4545 12.0156 13.5131 12.0201V12.0549H13.2901V12.0201H13.2907ZM13.8022 12.9067L13.7887 12.9002C13.7148 12.8659 13.6308 12.819 13.6308 12.7226C13.6308 12.6206 13.7046 12.5376 13.8466 12.5376C13.8746 12.5376 13.9036 12.5413 13.9297 12.5486C13.9503 12.5539 13.9648 12.5574 13.9764 12.5613C13.9801 12.5963 13.9864 12.6406 13.9964 12.7018L13.9566 12.7081C13.9366 12.6485 13.9052 12.5845 13.8338 12.5845C13.7877 12.5845 13.7552 12.6196 13.7552 12.663C13.7552 12.7081 13.7903 12.7342 13.8481 12.7605L13.8681 12.7695C13.9513 12.8074 14.0225 12.8535 14.0225 12.9589C14.0225 13.0699 13.9332 13.151 13.7934 13.151C13.7573 13.151 13.7202 13.1439 13.6957 13.1357C13.6689 13.1266 13.6498 13.1194 13.6391 13.1139C13.632 13.0723 13.62 13.0238 13.6092 12.9632L13.6489 12.9514C13.6677 13.0038 13.7212 13.1039 13.8095 13.1039C13.8564 13.1039 13.8925 13.0731 13.8925 13.0146C13.8923 12.962 13.8571 12.9322 13.8022 12.9067ZM13.2078 12.6335C13.2242 12.6838 13.2956 12.8619 13.329 12.9502C13.357 12.8735 13.4147 12.701 13.429 12.6587C13.4482 12.6035 13.4425 12.5937 13.4019 12.5894L13.3747 12.5866V12.5513H13.5934V12.5866C13.5416 12.5929 13.5294 12.5974 13.4939 12.6796C13.4888 12.692 13.3786 12.9599 13.3109 13.1441H13.2413C13.1789 12.9818 13.0942 12.7587 13.0615 12.6738C13.0322 12.5963 13.0138 12.5919 12.9703 12.5864V12.5511H13.2621V12.5864L13.2315 12.5898C13.198 12.5937 13.198 12.6017 13.2078 12.6335ZM12.9467 11.455C13.1119 11.455 13.2395 11.5759 13.2395 11.7545C13.2395 11.9477 13.1075 12.0684 12.9342 12.0684C12.7518 12.0684 12.6335 11.9358 12.6335 11.7698C12.6335 11.6236 12.731 11.455 12.9467 11.455ZM11.9428 12.0549V12.0201C12.0087 12.0143 12.0159 12.0082 12.0159 11.9108V11.6128C12.0159 11.5155 12.0087 11.509 11.95 11.5037V11.4684H12.2136C12.3248 11.4684 12.4168 11.4902 12.477 11.5488C12.5196 11.5894 12.5549 11.6561 12.5549 11.7337C12.5549 11.9585 12.3842 12.0549 12.1758 12.0549H11.9428ZM12.5435 13.6692C12.4813 13.6745 12.4741 13.6808 12.4741 13.7783V14.076C12.4741 14.1735 12.4813 14.1798 12.5435 14.1853V14.2204H12.2511V14.1853C12.3134 14.1798 12.3207 14.1733 12.3207 14.076V13.7783C12.3207 13.6808 12.3134 13.6747 12.2511 13.6692V13.6339H12.5435V13.6692ZM12.558 13.1378H12.3332V13.1027C12.3729 13.1007 12.3964 13.0882 12.4009 13.0564C12.4046 13.0285 12.408 12.9789 12.408 12.8841V12.7181C12.408 12.6514 12.406 12.6396 12.388 12.6143C12.3746 12.5953 12.3519 12.5892 12.3195 12.5864V12.5511H12.5192L12.8198 12.9255H12.8214V12.8046C12.8214 12.7097 12.8179 12.6602 12.8145 12.6322C12.81 12.6008 12.7855 12.589 12.7259 12.5862V12.5509H12.956V12.5862C12.911 12.588 12.8875 12.6006 12.8832 12.6322C12.8795 12.6602 12.8757 12.7097 12.8757 12.8046V13.1441H12.7981L12.4641 12.7181H12.4623V12.8841C12.4623 12.9789 12.466 13.0285 12.4694 13.0564C12.4741 13.088 12.4984 13.0998 12.558 13.1027V13.1378ZM13.0501 14.2204H12.6027V14.1853C12.6712 14.1798 12.6784 14.1733 12.6784 14.076V13.7783C12.6784 13.6808 12.6712 13.6747 12.6106 13.6692V13.6339H12.904V13.6692C12.8391 13.6745 12.8318 13.6808 12.8318 13.7783V14.0879C12.8318 14.1348 12.8336 14.1572 12.8497 14.1654C12.8644 14.1727 12.8853 14.1735 12.9132 14.1735C12.9422 14.1735 12.981 14.1709 12.9999 14.1474C13.0142 14.1305 13.0297 14.106 13.0442 14.0581L13.083 14.0644C13.0772 14.0987 13.0585 14.1925 13.0501 14.2204ZM13.5539 14.2204H13.1062V14.1853C13.175 14.1798 13.1821 14.1733 13.1821 14.076V13.7783C13.1821 13.6808 13.175 13.6747 13.1144 13.6692V13.6339H13.4078V13.6692C13.3427 13.6745 13.3356 13.6808 13.3356 13.7783V14.0879C13.3356 14.1348 13.3376 14.1572 13.3539 14.1654C13.3682 14.1727 13.389 14.1735 13.417 14.1735C13.4459 14.1735 13.4847 14.1709 13.5037 14.1474C13.5182 14.1305 13.5335 14.106 13.5479 14.0581L13.5867 14.0644C13.5814 14.0987 13.5622 14.1925 13.5539 14.2204ZM14.119 13.6692C14.0674 13.6755 14.055 13.68 14.0197 13.7622C14.0143 13.7748 13.9042 14.0428 13.8364 14.2268H13.7669C13.7042 14.0644 13.6196 13.8413 13.5871 13.7565C13.5571 13.679 13.5394 13.6745 13.4959 13.669V13.6337H13.7877V13.669L13.7571 13.6725C13.7236 13.6761 13.7236 13.6843 13.7336 13.7159C13.7499 13.7663 13.8213 13.9443 13.8548 14.0326C13.8828 13.9559 13.9405 13.7836 13.9548 13.7412C13.9738 13.6861 13.9682 13.6761 13.9276 13.6716L13.9005 13.669V13.6337H14.119V13.6692ZM14.3991 11.5037C14.3365 11.509 14.3296 11.5155 14.3296 11.6128V11.9108C14.3296 12.0082 14.3365 12.0143 14.3991 12.0201V12.0549H14.1066V12.0201C14.1688 12.0143 14.1759 12.0082 14.1759 11.9108V11.6128C14.1759 11.5155 14.1688 11.509 14.1066 11.5037V11.4684H14.3991V11.5037Z" fill="#182849"/>
<path d="M17.5438 11.6716L17.4881 11.844H17.6036L17.5467 11.6716H17.5438Z" fill="#182849"/>
<path d="M17.0384 12.8418C17.0384 13.0051 17.0998 13.1244 17.1882 13.1244C17.2659 13.1244 17.3083 13.0494 17.3083 12.886C17.3083 12.7045 17.2437 12.6046 17.1657 12.6046C17.0961 12.6046 17.0384 12.6839 17.0384 12.8418Z" fill="#182849"/>
<path d="M17.3315 13.8372L17.2758 14.0095H17.3913L17.3344 13.8372H17.3315Z" fill="#182849"/>
<path d="M16.1932 10.8391C15.9147 10.8391 15.6883 10.8711 15.5214 10.9692C15.2547 11.1258 15.1317 11.419 15.1317 11.7828L15.1315 15.5019H15.18C15.2061 15.0457 15.5054 14.9311 16.0141 14.9311H18.2264V10.8389L16.1932 10.8391ZM16.6692 11.4882H16.8688L17.1693 11.8626H17.1709V11.7416C17.1709 11.6468 17.1675 11.5973 17.164 11.5693C17.1593 11.5379 17.135 11.5261 17.0755 11.5234V11.4882H17.3056V11.5234C17.2605 11.5251 17.237 11.5379 17.2326 11.5693C17.2291 11.5973 17.2252 11.6468 17.2252 11.7416V12.081H17.1479L16.8137 11.655H16.8118V11.821C16.8118 11.9156 16.8155 11.9653 16.819 11.9933C16.8237 12.0249 16.848 12.0365 16.9075 12.0396V12.0747H16.6829V12.0396C16.7225 12.0375 16.7459 12.0251 16.7502 11.9933C16.7541 11.9653 16.7576 11.9156 16.7576 11.821V11.655C16.7576 11.5883 16.7555 11.5765 16.7376 11.5514C16.7241 11.5324 16.7013 11.5261 16.6692 11.5234V11.4882ZM17.4764 12.8571C17.4764 13.0502 17.3446 13.171 17.1712 13.171C16.989 13.171 16.8706 13.0384 16.8706 12.8724C16.8706 12.7262 16.9679 12.5576 17.1836 12.5576C17.3491 12.5576 17.4764 12.6785 17.4764 12.8571ZM16.7953 13.1224V13.1575H16.5027V13.1224C16.565 13.1169 16.5721 13.1104 16.5721 13.0131V12.7154C16.5721 12.6179 16.565 12.6116 16.5027 12.6063V12.571H16.7953V12.6063C16.7327 12.6116 16.7258 12.6179 16.7258 12.7154V13.0131C16.726 13.1106 16.7329 13.1169 16.7953 13.1224ZM16.3305 12.0398C16.393 12.0343 16.4001 12.028 16.4001 11.9305V11.6325C16.4001 11.5353 16.393 11.5288 16.3305 11.5234V11.4882H16.6229V11.5234C16.5607 11.5288 16.5535 11.5351 16.5535 11.6325V11.9305C16.5535 12.028 16.5607 12.0343 16.6229 12.0398V12.0749H16.3305V12.0398ZM16.3358 13.1224V13.1575H16.0204V13.1224C16.0926 13.1169 16.0998 13.1104 16.0998 13.0131V12.6179H16.0845C16.0241 12.6179 15.9994 12.6289 15.9851 12.6452C15.9743 12.6585 15.9637 12.6822 15.9517 12.7327H15.9137C15.9176 12.6569 15.9229 12.5947 15.9245 12.5488H15.9527C15.9663 12.5694 15.9751 12.5712 15.9994 12.5712H16.3597C16.3832 12.5712 16.3877 12.5659 16.4024 12.5488H16.4303C16.4311 12.5867 16.4356 12.6634 16.4401 12.7301L16.4005 12.7329C16.3871 12.6789 16.3773 12.6552 16.3636 12.6399C16.3483 12.6236 16.3183 12.6183 16.275 12.6183H16.253V13.0135C16.253 13.1106 16.2604 13.1169 16.3358 13.1224ZM15.7374 12.0749H15.5146V12.0398C15.5579 12.0361 15.575 12.0271 15.5803 11.9935C15.5848 11.9655 15.5903 11.9176 15.5946 11.8357L15.6046 11.6535C15.6109 11.54 15.6038 11.53 15.5324 11.5236V11.4884H15.7444L15.9025 11.8458L16.0408 11.4884H16.2602V11.5236C16.1914 11.53 16.1877 11.5334 16.1904 11.6283L16.1994 11.9305C16.2022 12.0306 16.2038 12.0333 16.2689 12.0398V12.0749H15.9866V12.0398C16.0539 12.0333 16.0569 12.0306 16.0559 11.9305L16.0531 11.6128H16.0494L15.8751 12.0649H15.8264L15.6611 11.6444H15.6593L15.6532 11.8448C15.6501 11.9223 15.6511 11.9655 15.6548 11.9935C15.6585 12.0269 15.6783 12.0351 15.7368 12.0398V12.0749H15.7374ZM16.5285 14.2404H16.2459V14.2053C16.3136 14.199 16.3165 14.1961 16.3152 14.096L16.3128 13.7782H16.3091L16.1347 14.2304H16.0863L15.9211 13.8099H15.919L15.9129 14.0101C15.91 14.0876 15.9111 14.1309 15.9147 14.1588C15.9184 14.1922 15.9378 14.2004 15.9967 14.2051V14.2402H15.7735V14.2051C15.817 14.2012 15.8341 14.1924 15.8396 14.1588C15.8439 14.1309 15.8494 14.0829 15.8537 14.0009L15.8639 13.8186C15.8702 13.7048 15.8629 13.6951 15.7917 13.6887V13.6535H16.0039L16.1618 14.0107L16.2999 13.6535H16.5195V13.6887C16.4509 13.6951 16.4475 13.6987 16.4497 13.7933L16.4589 14.0956C16.4615 14.1957 16.4632 14.1984 16.5283 14.2049L16.5285 14.2404ZM17.042 14.2404H16.5825V14.2053C16.6519 14.1998 16.659 14.1932 16.659 14.096V13.798C16.659 13.7006 16.6519 13.6944 16.5917 13.6889V13.6537H17.0194C17.0204 13.6692 17.0249 13.735 17.0293 13.8025L16.9898 13.8054C16.9806 13.7611 16.9708 13.736 16.9563 13.7214C16.9422 13.7061 16.9122 13.7006 16.8645 13.7006H16.8492C16.8147 13.7006 16.8131 13.7006 16.8131 13.7322V13.9063H16.8582C16.9357 13.9063 16.9383 13.901 16.9475 13.8323H16.9873V14.0452H16.9475C16.9383 13.9659 16.9357 13.9606 16.8582 13.9606H16.8131V14.1076C16.8131 14.1547 16.8147 14.1769 16.831 14.1851C16.8455 14.1924 16.8661 14.1932 16.8943 14.1932C16.9304 14.1932 16.9702 14.188 16.99 14.1663C17.0053 14.15 17.0206 14.1168 17.0345 14.0733L17.0738 14.0797C17.0691 14.1239 17.0503 14.2159 17.042 14.2404ZM17.6741 14.2404H17.3905V14.2053L17.4178 14.2014C17.4509 14.1969 17.4527 14.188 17.4411 14.1553L17.4086 14.0634H17.2605L17.2332 14.15C17.2215 14.1888 17.2215 14.1977 17.2632 14.2022L17.2895 14.2051V14.2402H17.0791V14.2051C17.1252 14.1988 17.1387 14.1949 17.1685 14.1192L17.3493 13.6528L17.4117 13.6402L17.4731 13.8107C17.5119 13.9182 17.5504 14.0246 17.5847 14.1166C17.6139 14.1949 17.6302 14.1994 17.6743 14.2051L17.6741 14.2404ZM17.8861 12.0749H17.6023V12.0398L17.6298 12.0361C17.6629 12.0316 17.6647 12.0224 17.6529 11.99L17.6206 11.898H17.4723L17.4452 11.9847C17.4335 12.0237 17.4335 12.0324 17.4749 12.0369L17.5011 12.0398V12.0749H17.2911V12.0398C17.337 12.0333 17.3509 12.0296 17.3807 11.9539L17.5612 11.4875L17.6235 11.4749L17.6847 11.6454C17.7237 11.7526 17.7626 11.8593 17.7967 11.9513C17.8259 12.0296 17.8422 12.0343 17.8865 12.0398V12.0749H17.8861Z" fill="#182849"/>
<path d="M13.882 21.917C14.019 21.917 14.1301 21.806 14.1301 21.669C14.1301 21.5321 14.019 21.4211 13.882 21.4211C13.745 21.4211 13.6339 21.5321 13.6339 21.669C13.6339 21.806 13.745 21.917 13.882 21.917Z" fill="#182849"/>
<path d="M16.3252 22.3173C16.4623 22.3173 16.5733 22.2063 16.5733 22.0692C16.5733 21.9323 16.4623 21.8214 16.3252 21.8214C16.1882 21.8214 16.0771 21.9323 16.0771 22.0692C16.0771 22.2063 16.1882 22.3173 16.3252 22.3173Z" fill="#182849"/>
<path d="M8.31037 16.9974C8.39526 16.9979 8.63539 17.0209 8.83882 17.3101C8.92246 17.4288 8.98185 17.5691 8.98144 17.7157C8.98103 17.9584 8.86268 18.0989 8.57766 18.2991L7.82152 18.8324L7.61587 18.5398L8.46258 17.9426C8.54093 17.8876 8.64541 17.7972 8.64559 17.6812C8.64559 17.6174 8.63703 17.5654 8.57909 17.4828C8.48932 17.3551 8.39526 17.3443 8.33568 17.3441C8.24591 17.3439 8.16103 17.3982 7.97883 17.5262L7.24515 18.0044L7.0452 17.7202L7.82418 17.2105C8.03005 17.0662 8.16287 16.9966 8.31037 16.9974Z" fill="#182849"/>
<path d="M6.96435 16.3065L7.99938 15.9007L8.11099 16.1906L6.54854 16.7961L6.43795 16.4937L7.24631 15.4647L6.20392 15.8287L6.09274 15.5238L7.66948 14.9728L7.77414 15.2587L6.96435 16.3065Z" fill="#182849"/>
<path d="M5.84134 14.2289L7.50112 13.9764L7.55498 14.3296L5.89499 14.5819L5.84134 14.2289Z" fill="#182849"/>
<path d="M7.44161 12.875L5.73959 13.3848L5.75469 13.0251L7.03149 12.6812L5.78854 12.2234L5.80323 11.8739L7.45609 12.5279L7.44161 12.875Z" fill="#182849"/>
<path d="M5.98138 10.9658L6.25968 9.98816L6.53573 10.0667L6.35395 10.7056L6.72917 10.8124L6.89994 10.2125L7.17109 10.2894L7.00011 10.8895L7.41163 11.0066L7.59894 10.3483L7.87989 10.428L7.59608 11.425L5.98138 10.9658Z" fill="#182849"/>
<path d="M8.54516 9.0832L8.04775 9.03936C7.8123 9.01754 7.78943 9.07382 7.72314 9.19271L7.70334 9.22758L8.29361 9.54122L8.11834 9.8516L6.64218 9.04406L6.88416 8.61927C6.99331 8.4237 7.10962 8.2157 7.40504 8.2157C7.59051 8.2157 7.84862 8.3715 7.84862 8.6517C7.84862 8.70144 7.83657 8.75387 7.81577 8.80893C7.88227 8.71327 8.00246 8.69901 8.1116 8.70024C8.1724 8.70065 8.23179 8.70982 8.28094 8.71389L8.72899 8.75326L8.54516 9.0832ZM7.30569 8.57523C7.22021 8.59929 7.17571 8.66536 7.11187 8.77955L7.05657 8.87459L7.46382 9.09401L7.53236 8.97084C7.5901 8.86766 7.60276 8.80852 7.58235 8.73673C7.56685 8.68187 7.51522 8.62436 7.46484 8.59623C7.40565 8.56319 7.3469 8.5634 7.30569 8.57523Z" fill="#182849"/>
<path d="M9.28851 5.77915L9.57396 5.56421L10.5843 6.90422L10.2991 7.11935L9.28851 5.77915Z" fill="#182849"/>
<path d="M11.1729 4.94717L11.811 6.18378L11.4933 6.34753L10.8553 5.11091L10.446 5.32198L10.3144 5.06707L11.4488 4.48242L11.5802 4.73733L11.1729 4.94717Z" fill="#182849"/>
<path d="M13.1377 5.03689L13.2995 5.6862L12.9675 5.76899L12.8055 5.11949L12.0486 4.26829L12.4003 4.18061L12.901 4.76607L13.0694 4.01277L13.4066 3.93018L13.1377 5.03689Z" fill="#182849"/>
<path d="M19.2152 5.63995L19.7452 5.95523L19.601 6.19749L19.0711 5.88223L18.7026 6.50032L18.3999 6.32025L19.259 4.8783L20.1196 5.39056L19.9729 5.63691L19.4151 5.3049L19.2152 5.63995Z" fill="#182849"/>
<path d="M22.2325 11.0918L22.6915 10.5869L22.0251 10.4293L21.9154 10.0787L22.9062 10.3377L23.5277 9.61072L23.6427 9.97799L23.2164 10.4436L23.8356 10.5926L23.9427 10.936L23.0213 10.6895L22.3467 11.4571L22.2325 11.0918Z" fill="#182849"/>
<path d="M23.8387 12.2877L23.4493 12.3191L23.4907 12.9391L23.2092 12.9578L23.1679 12.3428L22.4498 12.3911L22.4257 12.054L24.1018 11.917L24.1686 12.926L23.8822 12.9452L23.8387 12.2877Z" fill="#182849"/>
<path d="M25.0185 13.111C25.0634 7.57525 20.586 3.03483 15.0379 2.98996C12.4453 2.96896 9.97532 3.93026 8.08294 5.69668C6.04939 7.59523 4.91683 10.1706 4.89438 12.9483C4.86745 16.2605 6.47499 19.361 9.19573 21.2603C9.45403 22.3362 10.4256 23.1391 11.5845 23.1391C11.9161 23.1391 12.2372 23.0745 12.5402 22.9474C12.8628 23.0496 13.1935 23.136 13.5234 23.2053C13.4163 23.4999 13.2643 23.7777 13.1164 24.029L13.3573 24.2697C13.4149 24.2315 13.4824 24.2129 13.5503 24.2125C13.7346 24.2125 13.9111 24.3385 13.9096 24.5657C13.9096 24.7504 13.785 24.9236 13.5259 24.9232C13.3855 24.9232 13.2035 24.8493 13.1053 24.6388C13.1053 24.6388 13.04 24.8436 13.04 25.0901C13.04 25.8365 13.8519 26.6584 14.9379 27.0024C16.0303 26.661 16.8387 25.8365 16.8387 25.0901C16.8387 24.8436 16.7734 24.6388 16.7734 24.6388C16.6754 24.8491 16.4932 24.9232 16.3527 24.9232C16.0938 24.9236 15.9691 24.7504 15.9691 24.5657C15.9677 24.3385 16.1439 24.2125 16.3282 24.2125C16.3959 24.2129 16.4637 24.2317 16.5214 24.2697L16.7426 24.0498L16.7481 24.0466L16.7573 24.0349C16.7585 24.0358 16.7597 24.0357 16.7605 24.0366L16.7609 24.0306L16.7622 24.029L16.7613 24.027V24.0266C16.6526 23.7667 16.5732 23.5293 16.5175 23.3029C18.3191 23.0561 19.8397 22.2916 21.0504 21.0199L21.0483 21.0174C23.5465 19.1191 24.9928 16.2472 25.0185 13.111ZM11.5843 22.8014C10.425 22.8014 9.48218 21.8554 9.48218 20.6928C9.48218 20.3292 9.5742 19.9871 9.73621 19.6883C9.84373 19.786 9.95859 19.8873 10.0779 19.9897C9.97553 20.2059 9.91657 20.446 9.91657 20.6999C9.91657 21.3314 10.2351 21.8526 10.8371 22.2077C11.1864 22.4138 11.5829 22.5991 12.0028 22.7601C11.8661 22.7877 11.7263 22.8014 11.5843 22.8014ZM14.9563 19.7225C14.5629 19.7225 14.1757 19.6869 13.795 19.6202C13.3847 18.7849 12.5194 18.2461 11.5845 18.2461C11.345 18.2461 11.1138 18.282 10.8947 18.3458C9.24552 17.0829 8.26353 15.1095 8.26353 13.0297C8.26353 9.33941 11.266 6.337 14.9563 6.337C18.6468 6.337 21.6492 9.33941 21.6492 13.0297C21.6492 16.7203 18.6468 19.7225 14.9563 19.7225ZM16.3845 19.9153C16.2111 20.1946 16.1048 20.5579 16.0681 20.9255C15.4551 20.7651 14.8979 20.5532 14.4091 20.3317C14.4768 20.1904 14.6353 20.0592 14.9057 20.0592C14.9228 20.0592 14.9394 20.0605 14.9563 20.0605C15.4454 20.0605 15.923 20.0103 16.3845 19.9153ZM14.244 20.0252C14.1887 20.0739 14.1424 20.129 14.1047 20.1881C13.8896 20.0972 13.4752 19.9034 13.3408 19.8227C13.5534 19.8912 14.0286 20.0038 14.244 20.0252ZM11.5843 18.5838C12.2884 18.5838 12.9478 18.945 13.3345 19.5239C12.9945 19.4393 12.6606 19.3284 12.3353 19.1897L12.3343 19.1917L12.3247 19.1864C12.0981 19.0794 11.8549 19.0251 11.6027 19.0251C11.0418 19.0251 10.5454 19.2996 10.2387 19.7193C10.1104 19.6479 9.98227 19.5731 9.85618 19.4946C10.2361 18.9452 10.8688 18.5838 11.5843 18.5838ZM16.2986 23.9013C15.9128 23.9013 15.6265 24.2018 15.6265 24.5731C15.6265 25.0064 15.9297 25.2669 16.3206 25.2669C16.3692 25.2669 16.4167 25.2614 16.4624 25.2517C16.3459 25.7919 15.7073 26.3766 14.9377 26.6383C14.1816 26.3766 13.5324 25.7921 13.4161 25.2517C13.462 25.2614 13.5093 25.2669 13.5579 25.2669C13.9486 25.2669 14.2518 25.0064 14.2518 24.5731C14.2518 24.2018 13.9657 23.9013 13.5797 23.9013C13.677 23.7224 13.7874 23.5021 13.869 23.2711C14.3232 23.3491 14.7702 23.3918 15.1866 23.3918C15.5225 23.3918 15.8493 23.3742 16.1684 23.343C16.2115 23.5072 16.3151 23.8221 16.3427 23.904C16.329 23.9021 16.3147 23.9013 16.2986 23.9013ZM15.187 23.0537C13.8472 23.0537 12.1744 22.5983 11.0251 21.9206C10.6819 21.7184 10.2726 21.342 10.2726 20.6999C10.2726 20.5332 10.3046 20.3737 10.3603 20.2265C10.7945 20.5837 11.2395 20.9155 11.5204 21.0697C11.5865 21.1061 11.6249 21.1236 11.7018 21.1236C11.8863 21.1236 12.0362 20.9737 12.0362 20.7882C12.0362 20.6468 11.9593 20.532 11.8322 20.4766C11.5912 20.371 11.0918 20.1645 10.5503 19.8861C10.7937 19.5688 11.1742 19.3637 11.6027 19.3637C11.7995 19.3637 11.9893 19.4059 12.1664 19.4893L12.5322 19.7026C13.6952 20.4126 16.6679 22.2267 20.27 21.2844C18.9094 22.4718 17.2402 23.0537 15.187 23.0537ZM20.8158 20.7616C19.2058 21.329 17.7023 21.2926 16.4165 21.0092C16.4576 20.4591 16.6626 19.8494 17.0019 19.7574C19.894 18.8809 22.0051 16.1969 22.0051 13.0297C22.0051 9.15303 18.8428 5.99909 14.9563 5.99909C11.0695 5.99909 7.90729 9.15303 7.90729 13.0297C7.90729 15.1471 8.87786 17.1617 10.5191 18.491C10.1345 18.676 9.80639 18.9582 9.56462 19.3043C9.44913 19.2239 9.33774 19.141 9.23387 19.0557L9.16819 19.1216C9.23959 19.2078 9.34569 19.3186 9.47444 19.4432C9.25408 19.809 9.12594 20.2358 9.12594 20.6926C9.12594 20.724 9.12962 20.7547 9.13064 20.7855C6.67004 18.937 5.22512 16.04 5.25021 12.9508C5.27203 10.2632 6.36665 7.77244 8.33248 5.93731C10.1569 4.23411 12.5373 3.30747 15.0348 3.32765C20.3865 3.3709 24.7055 7.75857 24.6622 13.1084C24.6377 16.1465 23.2362 18.9277 20.8158 20.7616Z" fill="#182849"/>
<path d="M9.59358 7.58063C9.59358 7.72439 9.53074 7.87611 9.40505 8.01336C9.16369 8.27703 8.90639 8.30109 8.87987 8.30048L8.80684 8.02233C8.84723 8.01152 9.03637 7.97299 9.17041 7.82616C9.23101 7.75988 9.26243 7.68931 9.26243 7.62692C9.26243 7.56065 9.21877 7.44562 9.08207 7.44562C8.93618 7.44562 8.69216 7.65689 8.44204 7.65689C8.34593 7.65689 8.23923 7.64343 8.12802 7.54146C8.02071 7.44338 7.97092 7.31798 7.97092 7.19072C7.97092 7.05163 8.03458 6.90543 8.1525 6.77633C8.37674 6.53142 8.62341 6.51144 8.64482 6.51062L8.70501 6.78369C8.67665 6.78857 8.49323 6.82874 8.3794 6.95314C8.32082 7.01698 8.28981 7.0865 8.28981 7.14749C8.28981 7.21356 8.33186 7.29452 8.44101 7.29616C8.56098 7.29757 8.86294 7.07692 9.10838 7.07692C9.22224 7.07692 9.30506 7.09711 9.42015 7.20255C9.53582 7.30797 9.59358 7.44074 9.59358 7.58063Z" fill="#182849"/>
<path d="M17.3282 5.89336C16.8998 5.89336 16.5113 5.56728 16.5113 5.07704C16.5113 4.63922 16.8049 4.13123 17.3382 4.13123C17.7722 4.13123 18.1739 4.43774 18.1739 4.93082C18.1737 5.30197 17.9232 5.89336 17.3282 5.89336ZM17.8159 4.92634C17.8159 4.81051 17.7895 4.68917 17.7191 4.59517C17.6465 4.49748 17.5269 4.42916 17.3849 4.42916C17.084 4.42916 16.8636 4.80235 16.8636 5.11028C16.8636 5.3962 17.0569 5.59053 17.3164 5.59053C17.6569 5.59073 17.8159 5.14862 17.8159 4.92634Z" fill="#182849"/>
<path d="M21.9857 9.47898C21.4747 9.47898 21.193 8.9869 21.193 8.65675C21.193 8.15611 21.7321 7.77356 22.1532 7.77356C22.6122 7.77356 22.9491 8.20995 22.9491 8.60537C22.9493 9.05481 22.4794 9.47898 21.9857 9.47898ZM21.926 9.13864C22.2208 9.13864 22.6296 8.88373 22.6296 8.54053C22.6296 8.30417 22.4459 8.11981 22.2104 8.11981C21.9346 8.11981 21.5139 8.36493 21.5139 8.711C21.5139 8.89556 21.6551 9.13864 21.926 9.13864Z" fill="#182849"/>
<path d="M22.3162 14.4226C22.3162 14.0082 22.5971 13.601 23.1551 13.601C23.6244 13.601 24.0779 13.8901 24.0779 14.4093C24.0779 14.8357 23.8046 15.2456 23.2501 15.2456C22.7761 15.2456 22.3162 14.9463 22.3162 14.4226ZM23.2687 14.8871C23.5663 14.8871 23.7845 14.705 23.7845 14.4379C23.7845 14.1189 23.4147 13.9566 23.1297 13.9566C22.7647 13.9566 22.6161 14.194 22.6161 14.4171C22.6163 14.7664 23.0448 14.8871 23.2687 14.8871Z" fill="#182849"/>
<path d="M21.6776 16.4009L22.1767 16.4029C22.4135 16.4049 22.4317 16.347 22.4876 16.2232L22.5042 16.1865L21.9035 15.9078L22.0476 15.5892L23.5674 16.2903L23.3727 16.7276C23.2395 17.0216 23.1253 17.1701 22.8468 17.1701C22.6678 17.1701 22.4053 17.0214 22.4073 16.7479C22.4077 16.7059 22.4135 16.6609 22.4272 16.6129C22.3377 16.7681 22.1127 16.7465 21.972 16.7465L21.5223 16.7445L21.6776 16.4009ZM22.6513 16.5877C22.6513 16.7159 22.7591 16.8179 22.8791 16.8179C22.9863 16.8179 23.0535 16.759 23.1163 16.6195L23.1692 16.4941L22.7542 16.2993L22.685 16.4541C22.6619 16.5049 22.6513 16.5495 22.6513 16.5877Z" fill="#182849"/>
<path d="M20.6556 18.2566C20.6556 17.9132 20.8146 17.7264 21.0162 17.4784L21.2342 17.2113L22.5364 18.2705L22.2439 18.6294C22.0788 18.8321 21.8845 19.0817 21.5106 19.0817C21.298 19.0817 21.1114 18.9832 20.979 18.8755C20.8138 18.7412 20.6556 18.5132 20.6556 18.2566ZM21.5501 18.7489C21.7274 18.7489 21.83 18.6957 22.0337 18.4457L22.0972 18.3676L21.2322 17.664L21.1257 17.7947C21.0217 17.923 20.9676 18.0488 20.9676 18.1704C20.9676 18.3317 21.0477 18.4738 21.2111 18.6074C21.329 18.7026 21.4373 18.7489 21.5501 18.7489Z" fill="#182849"/>
</svg>
