<svg width="80" height="26" viewBox="0 0 80 26" fill="none" xmlns="http://www.w3.org/2000/svg">
<g clip-path="url(#clip0_2_299)">
<mask id="mask0_2_299" style="mask-type:luminance" maskUnits="userSpaceOnUse" x="0" y="-1" width="17" height="26">
<path d="M16.4315 -0.00292969H0V24.9861H16.4315V-0.00292969Z" fill="white"/>
</mask>
<g mask="url(#mask0_2_299)">
<path d="M12.8573 0.110107L16.3618 3.52411V8.63845L11.7527 8.63493C11.7783 8.76846 11.7441 8.86973 11.7219 8.92046C11.6539 9.06908 11.506 9.16365 11.3478 9.16371C11.3189 9.16371 11.2914 9.16251 11.2659 9.15578L11.1573 9.11513C11.1352 9.10502 11.1108 9.09285 11.0836 9.08274C11.0581 9.07425 11.019 9.06586 10.968 9.06241L10.9496 9.06115C10.9377 9.06115 10.9237 9.05893 10.9102 9.0589H10.8848C10.6738 9.05214 10.2345 9.02297 9.83136 8.90807C9.87731 8.96719 9.93676 9.03526 10.0048 9.10622L10.0153 9.1164C10.051 9.15692 10.0988 9.20261 10.1566 9.2482C10.2229 9.30563 10.2839 9.34928 10.3417 9.38476L10.3487 9.38889L10.3881 9.41396C10.4953 9.48326 10.6124 9.55441 10.7263 9.62199C10.7263 9.62199 10.7287 9.62358 10.7304 9.62358H13.3146L16.3621 12.7082V21.4817L12.857 24.8976H3.63854L0.133392 21.4767L0.134663 16.7952H4.77168C4.77503 16.7834 4.77646 16.7696 4.77991 16.7561C4.83266 16.5736 4.99285 16.4675 5.17659 16.4033C5.39354 16.3326 5.33002 16.2694 5.32648 16.2661H5.32427C5.14902 16.2898 5.035 16.2998 4.95331 16.2998C4.88355 16.2998 4.70154 16.2996 4.59604 16.1441C4.49916 16.0039 4.54362 15.8608 4.57763 15.7678H3.18027L0.133392 12.6781V3.51903L3.63854 0.110107H12.8573ZM0.551013 3.70004V12.504L3.35334 15.3435L5.1604 15.3451C4.95789 15.526 4.89484 15.7137 4.86248 15.805C4.79276 16.0061 4.71962 16.0634 5.35412 15.9755C5.5549 15.9468 5.92098 15.8186 6.09282 15.7037C6.26128 15.5888 6.59461 15.6817 6.5657 15.9301C6.40915 16.3103 6.00755 16.5487 5.62469 16.5961C4.74342 16.7059 5.1245 17.0321 5.1245 17.0321C5.22137 17.098 5.29113 17.1621 5.34046 17.2195H4.91172V17.2179H0.5526L0.551013 21.2963L3.80589 24.4737H12.6877L15.9423 21.3013V12.8845L13.1402 10.0485H10.8756C10.6952 9.9285 10.4518 9.79487 10.2306 9.65119C10.2306 9.64947 10.2307 9.6496 10.229 9.6496C10.1439 9.60059 10.0606 9.53949 9.98063 9.47019C9.91432 9.4178 9.85477 9.36206 9.80375 9.30632C9.60817 9.10358 9.46186 8.89246 9.42264 8.79438C9.3495 8.61526 9.36632 8.38876 9.53126 8.48154C9.94973 8.7215 10.6371 8.76716 10.8924 8.77562C10.9213 8.77562 11.1272 8.79919 11.1767 8.81438C11.2265 8.83419 11.3023 8.87015 11.3059 8.87185C11.4097 8.91581 11.5969 8.77399 11.3809 8.51204C11.3247 8.42245 11.2396 8.31926 11.1392 8.21448H15.9423V3.70511L12.6877 0.532808H3.80781L0.551013 3.70004Z" fill="#182849"/>
<path d="M3.975 0.955156L0.968628 3.88081V12.3273L3.52765 14.9203H5.93005C6.34007 14.7414 6.4269 14.7567 6.54082 14.5286C6.55786 14.4923 6.57474 14.3875 6.57652 14.2852C6.58163 14.2561 6.63275 13.9482 6.48296 14.0232C6.22609 14.1514 5.70709 13.8128 5.31913 14.0143C4.93119 14.2134 5.21535 13.7508 5.26979 13.671C5.26979 13.671 5.47737 13.3993 5.79041 13.2196C5.80235 13.2131 5.81256 13.2067 5.82101 13.1994C5.85168 13.1825 5.88235 13.168 5.91474 13.1527C6.15288 13.0422 6.83165 12.5933 6.95418 12.453C7.02735 12.3716 7.15672 12.1854 7.16183 12.0822C7.18391 11.9928 7.20101 11.8509 7.11428 11.7953C6.98491 11.7107 6.88108 11.8759 6.67861 11.9662C6.47607 12.0556 6.32296 12.0927 6.14257 12.0992C5.96908 12.1048 5.80235 12.0387 5.69857 12.0541C5.5947 12.071 5.53343 11.9928 5.72404 11.8018C5.81077 11.7155 5.84836 11.6768 5.88917 11.6478C6.34179 11.3593 6.74839 11.356 6.97639 10.8434C6.97639 10.8434 7.15337 10.3839 6.81135 10.5798C6.62423 10.6878 6.52218 10.8434 5.98612 10.8434C5.45187 10.8434 5.24254 11.0957 5.15239 11.2053C5.15239 11.2053 4.78836 11.7107 4.87854 11.0022C4.97048 10.2961 5.10817 9.93577 5.44335 9.6601C5.73256 9.42394 6.45051 9.10637 6.70921 8.75655C6.84186 8.62598 7.17545 8.24712 6.98143 7.92641C6.89971 7.79116 6.70075 8.14153 6.4949 8.18667C6.26007 8.24794 5.96235 8.32371 5.73435 8.27776C5.45187 8.22215 5.27152 8.32855 5.16602 8.3761C5.06052 8.42364 4.8614 8.27291 5.10469 7.99743C5.43135 7.62729 6.22095 7.144 6.75181 6.85496C6.82498 6.82449 7.00352 6.74677 7.16687 6.64368C7.17025 6.64192 7.17366 6.64023 7.17545 6.64023C7.21626 6.62159 7.27584 6.58605 7.30982 6.54042C7.42553 6.44403 7.50553 6.33603 7.47828 6.22615C7.45451 6.12644 7.40501 6.09259 7.24849 6.07568C7.12433 6.06381 6.91854 6.20755 6.74498 6.19408C6.47958 6.17207 6.08983 6.23285 6.21919 6.04527C6.33991 5.87119 6.53555 5.75955 6.59171 5.72914C6.70059 5.68013 6.847 5.616 7.06306 5.51958C7.4017 5.36748 7.35395 4.98559 7.223 4.97213C7.01877 4.95011 6.46755 5.12576 6.85542 4.68638C6.85542 4.68638 7.03929 4.50221 7.22472 4.38218C7.371 4.29772 7.49184 4.26556 7.63643 4.21307C7.72667 4.18101 7.96329 3.97311 7.40176 3.95112C7.40176 3.95112 7.08862 3.95958 7.1482 3.81594C7.19753 3.7213 7.47324 3.54891 7.47324 3.54891C7.47324 3.54891 7.69428 3.39841 7.78452 3.30888C7.87126 3.226 7.93252 3.16015 7.92742 3.08575C7.924 3.00128 7.7028 2.8965 7.60917 2.77817C7.54287 2.69362 7.59903 2.66331 7.63643 2.65316C7.65688 2.64985 7.68072 2.64638 7.7097 2.64638C7.93763 2.64808 8.00231 2.42158 8.13539 1.83342C8.17435 1.65762 8.17757 1.62054 8.23519 1.61885C8.24088 1.61885 8.2441 1.62054 8.24735 1.62054C8.24735 1.62054 8.30335 1.91797 8.3853 2.25094C8.45509 2.43512 8.53135 2.51291 8.66605 2.51113C8.69285 2.51113 8.71718 2.51444 8.73747 2.5179C8.7748 2.52806 8.83239 2.55861 8.76423 2.64308C8.71311 2.70901 8.56056 2.81549 8.54839 2.87973C8.50459 3.06222 8.67984 3.12815 8.85838 3.14169C9.11155 3.15854 9.00605 3.31571 8.73259 3.51681C8.46888 3.71116 9.144 4.12699 9.144 4.12699C9.52862 4.4228 9.25435 4.49873 9.17646 4.54104C9.09773 4.58159 8.88189 4.71346 9.09773 4.79795C9.316 4.88081 9.61545 5.1799 9.61545 5.1799C10.0017 5.61929 9.45152 5.44533 9.24784 5.46566C9.11639 5.47912 9.06934 5.8627 9.40771 6.0132C9.92296 6.24468 10.0374 6.28361 10.2192 6.41886C10.5591 6.66898 10.379 6.88195 9.95379 6.80755C9.95379 6.80755 9.68199 6.74 9.49129 6.77717C9.372 6.79916 9.29005 6.82618 9.23405 6.85496C9.20485 6.89886 9.1375 7.07291 9.72904 7.25369C10.0114 7.34156 10.362 7.55298 10.6735 7.79463L15.5267 7.78963L15.5259 3.88381L12.5195 0.954834H3.97516L3.975 0.955156ZM11.3032 10.4704C11.4428 10.7001 11.5239 11.0008 11.584 11.4425C11.5856 11.7077 11.2334 11.5787 11.119 11.5094C11.0395 11.4554 10.934 11.4054 10.7977 11.3732C10.5405 11.3119 9.92865 11.0451 9.7615 10.9855C9.59109 10.9234 9.46693 11.0484 9.44667 11.0959H9.4483C9.40446 11.1765 9.49454 11.3393 9.49454 11.3393C9.7347 11.8802 10.1769 11.8512 10.663 12.1978C11.3316 12.6709 10.9746 12.7709 10.8367 12.6999C10.7011 12.6274 10.4764 12.6725 10.4764 12.6725C9.93675 12.82 9.77529 12.5967 9.45883 12.5137C9.144 12.4291 9.40283 12.8184 9.51643 12.9482C9.63734 13.0884 10.3182 13.5382 10.5543 13.6478C11.0703 13.8864 11.3389 14.2733 11.4988 14.765C11.6505 15.2301 11.485 15.1285 11.3624 15.0713C11.2399 15.0132 11.2042 14.8883 10.8999 14.8956C10.594 14.902 10.422 14.8803 10.2037 14.7094C10.1461 14.665 10.0999 14.6142 10.0609 14.5724C10.0577 14.5707 10.056 14.5691 10.0544 14.5675C9.84508 14.4087 9.88563 14.9359 9.92865 15.0221C10.0796 15.3244 10.1818 15.201 11.0533 15.6629C11.4663 15.8821 11.5637 16.1764 11.6075 16.2997C11.6773 16.4996 11.7487 16.5568 11.1158 16.4689C10.9137 16.4415 10.5494 16.3134 10.3757 16.1965C10.2094 16.0821 9.87428 16.1747 9.9043 16.423C10.0609 16.8034 10.4626 17.0421 10.8456 17.0888C11.1807 17.1315 11.3324 17.2041 11.3933 17.2782C11.5767 17.4862 11.2367 17.7909 11.2367 17.7909C11.0663 17.9867 11.2505 18.2164 11.3763 18.2841C11.5807 18.3873 11.9767 18.6235 12.1082 18.962C12.7955 20.7192 12.1301 20.2154 11.8047 20.0147C11.4785 19.8132 10.8569 19.2965 10.2905 19.3417C9.72417 19.386 9.53509 19.4166 9.19835 19.1506C8.86322 18.8855 8.89568 19.3151 8.89568 19.3151V21.4341C8.91597 21.9089 9.00443 22.3619 9.38417 22.7456C9.69496 23.0623 9.93191 23.0027 10.3709 23.5355C10.5729 23.7805 11.2334 24.0441 11.6741 24.0489L12.5195 24.0505L15.5259 21.1214V13.0578L12.9691 10.4704H11.3032ZM0.970413 17.6417L0.968709 21.115L3.97506 24.0457H4.9415C5.85015 24.0014 6.19038 23.3017 6.46602 22.8713C6.67356 22.5448 7.04117 22.2676 7.27428 22.0306C7.52095 21.7823 7.56527 21.2141 7.572 20.5991V19.3151L7.57379 19.328V19.0209H7.57548V18.8161L7.57565 18.7686V18.2148C7.57565 18.0859 7.42596 18.0762 7.09926 18.4276C6.77087 18.7774 6.22137 18.7484 5.90319 18.7774C5.58504 18.8057 4.66966 19.2796 4.40758 19.6189C4.24592 19.8301 4.0162 19.656 4.10976 19.2401H4.10638C4.15057 19.0531 4.23223 18.8008 4.36326 18.4679C4.54355 18.0036 5.22078 17.7312 5.22078 17.7312C5.22078 17.7312 5.29057 17.7006 5.35184 17.6417H0.970413Z" fill="#182849"/>
</g>
<path d="M76.3148 0.744947C76.3148 0.627624 76.3148 0.538716 76.3148 0.453471C76.5512 0.410394 76.7753 0.364564 77.0013 0.328817C77.5948 0.234409 78.189 0.1455 78.7831 0.0538414C78.9668 0.0254271 79.0774 0.0593409 79.0592 0.285737C78.8673 2.65603 79.0111 5.02999 78.9694 7.40303C78.9548 8.26554 78.9639 9.12895 78.9779 9.99236C78.9825 10.2564 79.0251 10.5222 79.0794 10.7807C79.122 10.9823 79.2999 11.073 79.4862 11.128C79.5519 11.1473 79.6228 11.1463 79.692 11.1555C80.0215 11.2013 80.039 11.2279 79.9607 11.5863C79.8823 11.5909 79.7981 11.59 79.7161 11.6001C79.0885 11.6798 78.4586 11.7431 77.8348 11.8494C77.3623 11.9301 77.3668 11.9548 77.3308 11.4589C77.3272 11.4085 77.3086 11.3599 77.2956 11.3049C77.0716 11.4213 76.8696 11.5561 76.6472 11.634C76.2947 11.7568 75.9347 11.8879 75.5685 11.9282C75.0924 11.9805 74.6062 11.9685 74.1363 11.82C73.4729 11.6102 72.9038 11.2674 72.4995 10.6936C72.1571 10.2078 71.9753 9.66514 71.8582 9.07945C71.7281 8.43236 71.7789 7.79991 71.908 7.18121C72.1747 5.90716 72.8758 4.95848 74.1252 4.43786C74.9363 4.09965 75.7724 4.09233 76.6205 4.12989C76.7838 4.13724 76.9434 4.20414 77.1077 4.23071C77.2498 4.25363 77.3197 4.18856 77.3181 4.03731C77.3116 3.34989 77.3181 2.66244 77.3041 1.97501C77.2986 1.71011 77.2478 1.44705 77.2228 1.18216C77.2026 0.975009 76.9386 0.807276 76.6829 0.767861C76.5704 0.749529 76.4553 0.752281 76.3148 0.744947ZM77.3171 8.04648H77.3181C77.3181 7.29119 77.3161 6.53594 77.3187 5.78066C77.3197 5.60284 77.2719 5.4736 77.1028 5.37097C76.6387 5.0868 76.1405 4.99516 75.6026 5.01715C75.1577 5.03549 74.7711 5.17848 74.4345 5.4562C73.8891 5.90531 73.736 6.54876 73.6371 7.1922C73.5727 7.61019 73.6325 8.04554 73.6133 8.47175C73.5938 8.87965 73.7285 9.25636 73.8846 9.60557C74.2481 10.4204 74.9373 10.8256 75.8156 10.8796C76.1681 10.9016 76.5307 10.8439 76.8813 10.7788C77.2377 10.7128 77.3171 10.5808 77.3171 10.2206C77.3171 9.49558 77.3171 8.77149 77.3171 8.04648Z" fill="#182849"/>
<path d="M51.4078 11.5576C51.4283 11.8106 51.4052 11.8298 51.132 11.8298C50.0488 11.828 48.9646 11.8308 47.8813 11.8317C47.814 11.8317 47.7457 11.8317 47.6615 11.8317C47.6615 11.718 47.6615 11.6227 47.6615 11.5375C47.8407 11.4761 48.0179 11.4156 48.1948 11.3532C48.3997 11.2808 48.5272 11.114 48.5603 10.9243C48.6296 10.5283 48.6829 10.1259 48.6914 9.72536C48.7099 8.85554 48.7089 7.98386 48.6904 7.11401C48.6803 6.63924 48.6407 6.14978 48.3369 5.75749C48.1867 5.56315 47.9727 5.36425 47.7473 5.29186C47.3691 5.17176 46.9668 5.07736 46.5551 5.22585C46.3366 5.30468 46.0976 5.32851 45.8715 5.38809C45.7294 5.42568 45.6426 5.50815 45.6436 5.67957C45.653 7.29092 45.6641 8.90227 45.6566 10.5127C45.6537 11.1378 45.9694 11.4321 46.5737 11.5017C46.6696 11.7803 46.6364 11.8298 46.3616 11.8298C45.2468 11.8298 44.133 11.8298 43.0185 11.8298C42.988 11.8298 42.9584 11.8253 42.9005 11.8207C42.8956 11.718 42.8911 11.6181 42.8875 11.5219C43.2361 11.444 43.586 11.3771 43.7402 11.0425C43.8407 10.8225 43.9044 10.5659 43.907 10.3248C43.9226 8.82802 43.9431 7.33124 43.9024 5.83537C43.8878 5.30468 43.7889 5.0572 43.0719 5.02237C43.026 5.02055 42.9805 5.01505 42.9141 5.00955C42.9141 4.87479 42.9141 4.74282 42.9141 4.58425C42.9919 4.58058 43.0738 4.57967 43.1561 4.57232C43.6504 4.53108 44.147 4.49902 44.6387 4.43944C44.815 4.41833 44.9902 4.345 45.1545 4.26985C45.4702 4.12594 45.5707 4.1782 45.5727 4.5155C45.5737 4.59801 45.5727 4.68048 45.5727 4.79872C45.8364 4.6649 46.0654 4.54207 46.2998 4.433C46.4556 4.36061 46.6179 4.30285 46.7805 4.24601C47.2898 4.06728 47.8276 4.05079 48.3398 4.13329C49.0289 4.24419 49.6631 4.53934 50.0172 5.19011C50.1678 5.46692 50.2712 5.78864 50.3135 6.1012C50.5138 7.56038 50.3561 9.03059 50.4159 10.4953C50.4289 10.8143 50.4787 11.1278 50.7776 11.3065C50.9577 11.4165 51.1743 11.4678 51.4078 11.5576Z" fill="#182849"/>
<path d="M28.4988 3.38366C28.2506 3.44688 28.1518 3.39833 28.1195 3.16458C28.0669 2.78145 27.9498 2.39832 27.5705 2.20858C27.3048 2.07568 27.0104 1.96202 26.7179 1.92719C26.3165 1.87953 25.9041 1.90061 25.4971 1.91619C24.9288 1.93911 24.4083 2.33416 24.2247 2.85478C24.03 3.40746 24.2404 4.20766 24.7248 4.56239C25.3846 5.04451 26.0766 5.48262 26.7456 5.95283C27.3288 6.36255 27.9682 6.72369 28.3124 7.38181C28.4628 7.66961 28.5403 7.99865 28.6261 8.31579C28.6787 8.51195 28.7193 8.72275 28.7055 8.92259C28.6464 9.73468 28.4619 10.5083 27.7892 11.0582C27.3786 11.3946 26.9191 11.6522 26.3756 11.7237C25.8552 11.7915 25.3338 11.9097 24.8134 11.9125C24.3225 11.9152 23.8307 11.7997 23.3408 11.7273C23.1156 11.6943 22.8941 11.6412 22.6718 11.5944C22.4808 11.555 22.3654 11.4679 22.3691 11.2415C22.3793 10.6687 22.3728 10.0958 22.3654 9.52386C22.3636 9.36711 22.394 9.28737 22.5795 9.29104C22.753 9.29381 22.812 9.33777 22.8259 9.52018C22.8812 10.2223 23.2448 10.6064 23.8842 10.8089C24.5163 11.0087 25.1502 11.0298 25.785 10.8896C26.4725 10.7365 26.9311 10.3149 27.0012 9.57244C27.0501 9.05364 27.0196 8.5312 26.6275 8.14805C26.275 7.80434 25.8644 7.51654 25.4648 7.22415C24.8393 6.76493 24.1924 6.33231 23.5714 5.86668C23.1064 5.51839 22.7908 5.05182 22.6939 4.47348C22.6358 4.12516 22.5629 3.75852 22.6118 3.41664C22.7465 2.48448 23.1968 1.75029 24.1038 1.34333C24.7516 1.05277 25.4261 0.954697 26.1274 0.986775C26.3119 0.995025 26.4974 0.980359 26.681 0.994108C27.23 1.03627 27.7791 1.0821 28.3272 1.13984C28.388 1.14626 28.4905 1.2315 28.4905 1.28192C28.5025 1.98036 28.4988 2.68154 28.4988 3.38366Z" fill="#182849"/>
<path d="M57.3782 8.15755C57.3782 7.98249 57.3792 7.80652 57.3782 7.63143C57.3762 7.08334 57.5554 6.57921 57.7805 6.09251C58.1571 5.28041 58.7753 4.69745 59.6065 4.36932C59.9645 4.22815 60.3623 4.17225 60.748 4.12002C61.0351 4.08152 61.332 4.098 61.6227 4.11449C62.2751 4.15117 62.8741 4.35924 63.4241 4.70844C63.9489 5.04116 64.3106 5.52054 64.5441 6.07599C64.6901 6.42337 64.7343 6.81475 64.8136 7.18874C64.8533 7.37387 64.894 7.56269 64.893 7.75059C64.8891 8.37205 64.8081 8.97882 64.6003 9.57462C64.3892 10.1796 64.0709 10.702 63.5919 11.119C63.1749 11.482 62.6868 11.7148 62.1385 11.8532C61.4826 12.0191 60.8153 12.0081 60.1759 11.9101C59.2699 11.7717 58.4836 11.3372 57.9688 10.5297C57.7502 10.1869 57.5691 9.82301 57.5001 9.41969C57.4289 9.00265 57.3762 8.58285 57.3164 8.16399C57.3366 8.16213 57.358 8.16031 57.3782 8.15755ZM63.1037 8.07781C63.0956 8.07599 63.0871 8.07417 63.0787 8.07322C63.065 7.7836 63.0741 7.49121 63.0319 7.20522C62.9902 6.92383 62.9229 6.63969 62.8195 6.37482C62.7154 6.10623 62.5769 5.84412 62.4117 5.60763C62.0436 5.07966 61.5037 4.96786 60.8891 5.0036C60.4361 5.03017 60.1001 5.23091 59.8234 5.55537C59.3252 6.13833 59.2182 6.86243 59.1489 7.58103C59.0862 8.22539 59.1545 8.8661 59.3463 9.49579C59.5788 10.2575 59.9128 10.8826 60.7915 11.0677C61.1688 11.1475 61.5128 11.0998 61.8332 10.9532C62.5057 10.6452 62.7899 10.0292 62.945 9.36103C63.0419 8.94308 63.054 8.50587 63.1037 8.07781Z" fill="#182849"/>
<path d="M39.4793 11.2015C39.2468 11.3499 39.0293 11.5259 38.7818 11.6387C38.2218 11.8935 37.6442 12.0365 37.0159 11.8669C36.693 11.7798 36.3698 11.7193 36.105 11.4975C35.7766 11.2207 35.4943 10.9201 35.4537 10.4627C35.4296 10.1923 35.3522 9.921 35.3698 9.65518C35.4241 8.84217 35.8725 8.26839 36.5977 7.93934C37.0676 7.72669 37.5779 7.60387 38.0715 7.44348C38.4452 7.32156 38.8215 7.21066 39.1915 7.07957C39.2719 7.05118 39.3808 6.96042 39.3863 6.89167C39.4215 6.41232 39.4 5.93661 39.0615 5.54523C38.7174 5.14832 38.2514 5.05577 37.7613 5.09518C37.2133 5.14009 36.7704 5.38666 36.4667 5.86419C36.4325 5.91827 36.2833 5.94669 36.213 5.92009C36.082 5.86969 35.9945 5.75694 36.0644 5.59837C36.214 5.25925 36.3993 4.94211 36.6992 4.71297C37.2494 4.29226 37.8628 4.0796 38.5714 4.09886C39.0615 4.11258 39.5431 4.12634 39.988 4.34634C40.4244 4.56172 40.7528 4.87795 40.9171 5.35733C41.2033 6.19323 41.1311 7.05482 41.1246 7.91092C41.12 8.58738 41.0667 9.2638 41.0556 9.94117C41.0517 10.1492 41.1008 10.3637 41.1561 10.5672C41.2198 10.7991 41.587 10.9018 41.8566 10.7524C42.0003 10.6726 42.066 10.7524 42.1158 10.8357C42.1499 10.8926 42.1509 11.0053 42.1148 11.0603C41.7642 11.5901 41.2611 11.9137 40.6273 11.9201C40.1255 11.9219 39.7174 11.7285 39.4793 11.2015ZM39.3993 9.28582C39.3984 9.28582 39.3984 9.28582 39.3993 9.28582C39.3984 8.95034 39.4 8.61486 39.3984 8.27847C39.3964 7.99892 39.3151 7.95034 39.0459 8.05115C38.8641 8.1199 38.6758 8.17216 38.4976 8.24822C38.2006 8.37382 37.8878 8.48013 37.6192 8.65336C37.1606 8.94943 37.0407 9.41778 37.0859 9.93567C37.1135 10.2473 37.2325 10.5415 37.5197 10.6735C38.0806 10.932 38.6501 10.8697 39.2072 10.6121C39.3688 10.5369 39.4055 10.4288 39.401 10.2693C39.3938 9.94208 39.3993 9.61395 39.3993 9.28582Z" fill="#182849"/>
<path d="M52.4231 5.25359C52.3613 4.80354 52.3964 4.75954 52.9314 4.56982C53.1919 4.47723 53.3737 4.33518 53.3772 4.02169C53.3818 3.64039 53.428 3.26003 53.439 2.87872C53.4611 2.13353 53.6595 1.45251 54.1441 0.868644C54.4062 0.552423 54.7411 0.338859 55.1213 0.197703C55.8943 -0.0873547 56.6963 -0.0176942 57.4816 0.0959624C57.7906 0.140875 58.0803 0.365438 58.36 0.538674C58.4198 0.576254 58.4465 0.779734 58.4006 0.85123C58.215 1.14087 57.999 1.41218 57.786 1.68257C57.6504 1.85489 57.6032 1.84298 57.4787 1.65141C57.3054 1.38193 57.1577 1.10054 56.8384 0.94747C56.2302 0.655997 55.5041 0.787067 55.2237 1.43143C55.1405 1.62208 55.0917 1.84114 55.0852 2.04829C55.0657 2.73481 55.0761 3.42224 55.0667 4.10969C55.0647 4.28016 55.1294 4.33424 55.2982 4.32966C55.7135 4.31957 56.1288 4.3306 56.5441 4.3251C56.7083 4.32325 56.7876 4.37733 56.7776 4.55057C56.7681 4.71005 56.7701 4.87138 56.7766 5.03177C56.7841 5.20227 56.7047 5.25909 56.5395 5.25635C56.1554 5.24901 55.7707 5.2545 55.386 5.2545C55.2946 5.2545 55.2032 5.2545 55.0872 5.2545C55.0806 5.34523 55.0712 5.41857 55.0712 5.49099C55.0712 6.99509 55.0657 8.50013 55.0767 10.0043C55.0797 10.3205 55.1385 10.6367 55.1782 10.952C55.2023 11.1454 55.4257 11.2976 55.695 11.3626C55.8205 11.3929 55.9434 11.436 56.0706 11.4598C56.1886 11.4818 56.3115 11.4855 56.4416 11.4983C56.4416 11.6055 56.4416 11.6953 56.4416 11.8108C56.3558 11.8182 56.268 11.8319 56.1805 11.8328C54.9662 11.8338 53.7519 11.8328 52.5385 11.8301C52.4397 11.8301 52.3115 11.8704 52.2966 11.6999C52.2839 11.5606 52.3372 11.523 52.4777 11.4781C52.7044 11.4057 52.9434 11.2985 53.1125 11.1381C53.2371 11.0189 53.3125 10.7934 53.3164 10.6138C53.3411 9.2719 53.3421 7.9291 53.3506 6.58631C53.3532 6.22058 53.3541 5.85395 53.3626 5.48822C53.3662 5.31775 53.3115 5.23801 53.1226 5.25083C52.8946 5.26549 52.6641 5.25359 52.4231 5.25359Z" fill="#182849"/>
<path d="M29.3753 5.25527C29.2313 4.94821 29.474 4.87946 29.6161 4.82356C30.2777 4.55956 30.7409 4.07286 31.1487 3.52476C31.3342 3.27543 31.4652 2.9858 31.6461 2.73099C31.6959 2.66041 31.8371 2.61825 31.9312 2.62558C31.9856 2.63016 32.0687 2.7594 32.0715 2.83548C32.0853 3.24702 32.0853 3.66041 32.077 4.07286C32.0733 4.26626 32.1314 4.33868 32.34 4.33501C33.0163 4.32219 33.6937 4.33501 34.3701 4.32675C34.561 4.32402 34.6403 4.36984 34.6394 4.58067C34.6338 5.25618 34.6423 5.25618 33.9659 5.25527C33.412 5.25436 32.8585 5.25985 32.3049 5.2525C32.1379 5.24977 32.0742 5.2965 32.0761 5.47159C32.0871 6.96102 32.0835 8.45049 32.101 9.93901C32.1074 10.4954 32.5366 11.0783 33.2072 11.0408C33.6023 11.0187 34.0016 11.0655 34.3561 10.8281C34.3893 10.8061 34.5103 10.8409 34.5103 10.8547C34.5177 10.9793 34.559 11.1507 34.4946 11.2213C34.2241 11.5174 33.8709 11.6952 33.4898 11.829C32.9876 12.0041 32.4728 11.9537 31.9644 11.9298C31.2991 11.8987 30.6458 11.2882 30.4613 10.6833C30.3201 10.2222 30.345 9.76304 30.3413 9.30382C30.3312 8.04353 30.3413 6.7832 30.3561 5.52291C30.3589 5.31026 30.2934 5.2406 30.083 5.25345C29.8403 5.26717 29.5958 5.25527 29.3753 5.25527Z" fill="#182849"/>
<path d="M65.6455 11.8274C65.6234 11.6395 65.5772 11.5149 65.8329 11.459C66.0849 11.404 66.3756 11.3133 66.4963 11.0383C66.5766 10.8559 66.6494 10.6515 66.6514 10.4562C66.6644 8.87605 66.6634 7.29586 66.6599 5.71566C66.6589 5.29404 66.3626 5.04838 65.8966 5.02731C65.7499 5.0209 65.6329 5.02913 65.6309 4.81739C65.629 4.61209 65.6946 4.55527 65.8946 4.56168C66.4559 4.57817 67.0068 4.50119 67.5483 4.35361C67.7291 4.30412 67.9155 4.2702 68.0992 4.22896C68.2533 4.19504 68.3382 4.24636 68.3262 4.4141C68.3242 4.44435 68.3216 4.47644 68.3281 4.50578C68.3483 4.59742 68.3724 4.68724 68.3955 4.778C68.4784 4.73765 68.5678 4.7074 68.6426 4.65426C68.9464 4.43885 69.2829 4.28487 69.6475 4.24363C70.0709 4.19504 70.4982 4.18678 70.9161 4.33436C71.1717 4.42509 71.4384 4.66526 71.4081 4.84672C71.3906 4.94665 71.3415 5.0447 71.2927 5.13638C71.1451 5.4141 70.9919 5.68906 70.8397 5.96405C70.7639 6.10061 70.5093 6.11254 70.4107 5.97231C70.0582 5.46909 69.5545 5.33251 68.9776 5.39026C68.8299 5.40493 68.6742 5.45166 68.5496 5.52776C68.4709 5.5754 68.4026 5.70649 68.402 5.8009C68.3971 7.39667 68.4055 8.99153 68.4075 10.5873C68.4081 11.0089 68.6446 11.3307 69.1288 11.371C69.2517 11.3811 69.3733 11.3976 69.4963 11.4058C69.6485 11.4159 69.7288 11.4672 69.7249 11.6441C69.7203 11.8311 69.6169 11.8302 69.4842 11.8238C68.9093 11.799 68.3343 11.7578 67.7597 11.7587C67.1385 11.7596 66.5177 11.8018 65.8966 11.8256C65.8163 11.8302 65.7408 11.8274 65.6455 11.8274Z" fill="#182849"/>
<path d="M28.5101 16.1794C28.4723 16.0336 28.5018 15.9668 28.6587 15.9677C29.3581 15.9732 30.0584 15.9713 30.7578 15.9677C30.9166 15.9668 30.9609 16.0318 30.9138 16.1876C30.6434 16.1987 30.4294 16.3068 30.314 16.557C30.2771 16.6359 30.2522 16.7284 30.2513 16.8155C30.2485 18.1445 30.2328 19.4736 30.2614 20.8017C30.2725 21.3013 30.4524 21.7678 30.9507 22.0199C31.0771 22.0841 31.2183 22.1317 31.3586 22.1555C31.9722 22.2573 32.5785 22.2609 33.0914 21.8421C33.3333 21.645 33.4689 21.3599 33.4816 21.052C33.5252 20.0465 33.5574 19.0401 33.574 18.0346C33.5815 17.6093 33.5649 17.1803 33.5158 16.7578C33.467 16.3371 33.3636 16.2601 32.9428 16.1849C32.8911 16.0364 32.9236 15.9677 33.1044 15.9695C33.7197 15.9759 34.3343 15.975 34.9499 15.9686C35.1158 15.9668 35.1548 16.0327 35.1076 16.1757C35.0127 16.2069 34.9193 16.2316 34.8309 16.2683C34.4182 16.4351 34.4719 16.8283 34.4598 17.1427C34.4267 18.0657 34.4452 18.9906 34.4387 19.9145C34.4367 20.2197 34.4458 20.5286 34.4062 20.8302C34.3021 21.6019 34.0179 22.271 33.2049 22.5533C32.9161 22.6542 32.6107 22.7357 32.308 22.7623C31.9112 22.7972 31.5062 22.7999 31.1103 22.7605C30.3703 22.6871 29.7235 22.4214 29.3839 21.7C29.2898 21.4993 29.228 21.2747 29.1966 21.0547C29.0019 19.6725 29.1449 18.282 29.1044 16.8952C29.0905 16.4534 29.0508 16.3251 28.5101 16.1794Z" fill="#182849"/>
<path d="M40.6667 22.5495C40.7028 22.7218 40.6299 22.7575 40.4933 22.7502C39.9886 22.7236 39.4849 22.697 38.9798 22.686C38.8149 22.6824 38.6488 22.7364 38.4816 22.7447C38.4182 22.7475 38.3525 22.6952 38.2878 22.6686C38.3284 22.6173 38.361 22.5339 38.4127 22.5201C38.8637 22.3973 38.9395 22.0582 38.9385 21.664C38.9366 21.0004 38.9577 20.335 38.934 19.6723C38.9236 19.4102 38.8517 19.1361 38.7467 18.8941C38.6276 18.6191 38.3645 18.5018 38.0618 18.5027C37.7658 18.5027 37.4566 18.4514 37.1899 18.6256C37.1021 18.6824 36.9935 18.7924 36.9925 18.8795C36.9814 19.8565 36.985 20.8336 36.9951 21.8107C36.999 22.1398 37.1161 22.4083 37.4777 22.5073C37.545 22.5256 37.5977 22.5944 37.6579 22.6402C37.5756 22.6769 37.4933 22.7475 37.4123 22.7456C36.9538 22.7328 36.4959 22.6906 36.0374 22.6842C35.7883 22.6805 35.5382 22.7291 35.2806 22.7557C35.2309 22.6429 35.1902 22.5623 35.361 22.5156C35.8371 22.3872 35.8962 22.1645 35.9128 21.7062C35.9424 20.8602 35.9249 20.0123 35.9239 19.1645C35.9229 18.5403 35.8777 18.4881 35.2689 18.3698C35.1958 18.2003 35.2761 18.1471 35.4387 18.1251C35.8244 18.0729 36.2081 18.0087 36.5928 17.9491C36.6003 17.9482 36.6084 17.9473 36.6159 17.9445C36.7213 17.918 36.8254 17.8914 36.9307 17.8639C36.9554 17.973 36.9805 18.082 37.0136 18.2323C37.0995 18.1764 37.1704 18.1141 37.2517 18.0793C37.8237 17.8373 38.3967 17.7181 39.0254 17.9051C39.5161 18.0518 39.7736 18.3836 39.9616 18.8098C39.9792 18.8501 39.9831 18.8987 39.984 18.9436C40.0117 19.7493 40.0374 20.5559 40.0634 21.3616C40.0696 21.5596 40.079 21.7585 40.0836 21.9564C40.0901 22.2232 40.174 22.4266 40.4758 22.4752C40.5395 22.4853 40.6013 22.5229 40.6667 22.5495Z" fill="#182849"/>
<path d="M68.5099 17.9479C69.2657 17.9479 69.9704 17.9479 70.6911 17.9479C70.7151 18.0488 70.7694 18.1322 70.5981 18.1807C70.2631 18.2751 70.1506 18.4933 70.2722 18.815C70.5242 19.4805 70.7925 20.1395 71.0491 20.8031C71.1054 20.9497 71.1369 21.1056 71.1886 21.2541C71.2052 21.3017 71.254 21.3393 71.2872 21.3814C71.3278 21.343 71.3876 21.3127 71.4046 21.266C71.6 20.7151 71.7919 20.1624 71.9776 19.6078C72.0725 19.3237 72.1815 19.0387 72.2322 18.7453C72.2995 18.3595 72.2699 18.3485 71.9203 18.1798C71.8657 18.1532 71.8345 18.0808 71.7928 18.0295C71.8465 17.9993 71.8989 17.9443 71.9525 17.9433C72.4979 17.9369 73.0423 17.9397 73.6559 17.9397C73.6062 18.046 73.5893 18.1606 73.535 18.1826C73.1428 18.3402 73.0728 18.7151 72.9363 19.0377C72.7831 19.4016 72.6556 19.7774 72.52 20.1487C72.3447 20.6262 72.175 21.1056 71.9967 21.5813C71.8647 21.9332 71.722 22.2806 71.588 22.6317C71.4156 23.0863 71.252 23.5446 71.0758 23.9983C70.8712 24.5244 70.6146 25.0194 70.0592 25.2623C69.9021 25.3301 69.7177 25.3576 69.545 25.3613C69.2397 25.3668 68.9314 25.3548 68.627 25.32C68.4839 25.3035 68.3346 25.2394 68.2146 25.1587C68.0946 25.079 67.9967 24.9525 68.1665 24.8113C68.1932 24.7884 68.2091 24.7527 68.2322 24.7261C68.5567 24.3521 68.5568 24.3521 68.9278 24.6473C69.1919 24.8562 69.8016 24.7728 70.026 24.4584C70.2104 24.199 70.3395 23.9011 70.4872 23.617C70.5418 23.5116 70.5665 23.3906 70.6247 23.2889C70.8241 22.9433 70.6699 22.6509 70.5278 22.3329C70.335 21.9039 70.1948 21.4511 70.0231 21.013C69.8865 20.6656 69.7314 20.3255 69.5941 19.9782C69.4621 19.6436 69.3512 19.2999 69.214 18.9681C69.0829 18.6509 69.0237 18.2724 68.5993 18.1661C68.5597 18.1551 68.5457 18.0396 68.5099 17.9479Z" fill="#182849"/>
<path d="M49.9564 20.1159C49.9353 20.7758 50.0351 21.3523 50.5434 21.774C50.7639 21.9573 51.0289 22.0883 51.3268 22.0737C51.6748 22.0563 52.0218 22.0114 52.3678 21.9683C52.4286 21.9609 52.4829 21.8776 52.5411 21.8766C52.625 21.8748 52.7275 21.8959 52.7867 21.9481C52.8179 21.9765 52.8032 22.1149 52.7616 22.1571C52.3824 22.5457 51.9154 22.7675 51.3684 22.763C51.0058 22.7602 50.6367 22.7327 50.2813 22.664C49.7749 22.5659 49.3964 22.2589 49.1639 21.8024C48.9001 21.2854 48.8104 20.7346 48.8826 20.1535C48.9388 19.7006 49.0237 19.2653 49.2562 18.862C49.5239 18.3973 49.8819 18.0526 50.4179 17.939C50.7132 17.8757 51.0205 17.8162 51.3184 17.8317C51.7788 17.8556 52.2146 18.0022 52.519 18.3799C52.8992 18.851 53.0081 19.4073 52.9694 19.9939C52.9665 20.0398 52.8289 20.1104 52.7535 20.1113C51.931 20.1195 51.1083 20.1168 50.2858 20.1168C50.1863 20.1159 50.0875 20.1159 49.9564 20.1159ZM51.8039 19.5522C51.8657 19.2121 51.8019 18.9179 51.6019 18.664C51.3906 18.3973 50.7945 18.2845 50.4891 18.4303C50.1476 18.5934 49.9242 19.158 49.9629 19.4403C49.9684 19.4816 50.0341 19.5467 50.0728 19.5467C50.6468 19.5549 51.2198 19.5522 51.8039 19.5522Z" fill="#182849"/>
<path d="M43.7385 17.9465C44.4436 17.9465 45.1486 17.9465 45.8663 17.9465C45.9106 18.0647 45.9291 18.139 45.7584 18.1921C45.4215 18.2975 45.3652 18.4992 45.4972 18.8337C45.7207 19.3993 45.92 19.974 46.135 20.5432C46.2153 20.7549 46.3083 20.9611 46.3961 21.1701C46.4153 21.1674 46.4358 21.1646 46.455 21.1619C46.6221 20.7393 46.7883 20.3168 46.9571 19.8951C47.0852 19.5762 47.2172 19.2581 47.3447 18.9391C47.375 18.8631 47.4055 18.7833 47.4156 18.7027C47.4563 18.358 47.4312 18.325 47.1268 18.1857C47.0641 18.1564 47.0189 18.0904 46.9652 18.0418C47.0374 18.007 47.1093 17.9428 47.1821 17.9419C47.6738 17.9327 48.1668 17.9355 48.6585 17.941C48.7168 17.9419 48.7746 17.985 48.8338 18.0079C48.8026 18.0729 48.7876 18.1756 48.7369 18.1976C48.1574 18.4515 48.1168 19.0482 47.8781 19.5157C47.734 19.7961 47.6094 20.0858 47.481 20.3736C47.3011 20.776 47.1259 21.1802 46.9476 21.5835C46.7899 21.94 46.6524 22.3085 46.4579 22.644C46.4016 22.7402 46.1772 22.7659 46.0286 22.7714C45.9623 22.7741 45.8608 22.6586 45.8257 22.5761C45.5398 21.8924 45.2628 21.2049 44.9906 20.5156C44.7876 20.0015 44.5977 19.4818 44.3974 18.9666C44.3437 18.8291 44.2976 18.6816 44.212 18.5652C44.1086 18.4268 43.9636 18.3195 43.839 18.1949C43.7818 18.1381 43.732 18.0739 43.6794 18.0125C43.6979 17.9886 43.7184 17.9675 43.7385 17.9465Z" fill="#182849"/>
<path d="M60.7431 17.965C60.7431 18.3233 60.7486 18.6808 60.7366 19.0383C60.7346 19.0859 60.6387 19.1758 60.6029 19.1684C60.5317 19.1538 60.4338 19.097 60.4137 19.0355C60.3363 18.8073 60.2771 18.5672 60.0306 18.4608C59.7021 18.3188 59.3425 18.2977 59.0231 18.4315C58.6345 18.5946 58.6771 19.239 58.9899 19.4251C59.4199 19.6817 59.8426 19.9503 60.2686 20.2133C60.814 20.5506 61.0033 21.2473 60.7772 21.8586C60.6046 22.3252 60.2735 22.591 59.812 22.6625C59.3561 22.734 58.8875 22.7395 58.4244 22.7477C58.2543 22.7514 58.0745 22.701 57.9148 22.6368C57.8355 22.6056 57.749 22.4957 57.7359 22.4104C57.6868 22.0951 57.6612 21.7761 57.6436 21.4581C57.641 21.4049 57.7155 21.3178 57.772 21.2995C57.8696 21.2674 57.9564 21.2867 57.9815 21.4306C58.0338 21.7367 58.187 21.9851 58.4712 22.1427C58.6862 22.2628 59.4273 22.2326 59.6257 22.1043C59.9948 21.866 59.9883 21.3252 59.6559 21.085C59.3535 20.866 59.0407 20.6533 58.7103 20.4801C58.0052 20.1107 57.6566 19.4617 57.8651 18.723C57.974 18.3371 58.2573 18.0612 58.667 17.9375C59.3571 17.7294 60.041 17.8 60.7431 17.965Z" fill="#182849"/>
<path d="M67.9347 17.9371C67.9347 18.1424 67.9347 18.3074 67.9347 18.5063C67.4943 18.5063 67.067 18.5063 66.639 18.5063C66.3197 18.5063 66.3177 18.5063 66.3177 18.8124C66.3177 19.6291 66.3142 20.4467 66.3242 21.2634C66.3291 21.5988 66.3694 21.9407 66.7138 22.1222C67.0147 22.2808 67.3321 22.2322 67.6475 22.1469C67.7308 22.125 67.8247 22.146 67.9142 22.1478C67.88 22.2285 67.868 22.3339 67.8091 22.3862C67.5496 22.6162 67.2507 22.784 66.8911 22.7647C66.5597 22.7473 66.2147 22.7464 65.9038 22.6511C65.5262 22.5346 65.3057 22.212 65.2781 21.8215C65.2208 21.0305 65.1997 20.2368 65.2107 19.4412C65.2173 19.4769 65.2234 19.5118 65.2309 19.5539C65.242 19.5383 65.255 19.5292 65.255 19.5191C65.2576 19.267 65.253 19.015 65.2625 18.7629C65.2696 18.5741 65.1847 18.4989 65.002 18.5044C64.8729 18.509 64.7428 18.5053 64.5389 18.5053C64.6101 18.3981 64.6358 18.3101 64.6885 18.289C65.2852 18.047 65.6638 17.5888 65.9766 17.0544C66.0234 16.9737 66.1464 16.9361 66.2338 16.8784C66.2625 16.9637 66.3106 17.0471 66.3151 17.1332C66.3272 17.3385 66.3242 17.5457 66.3187 17.751C66.3151 17.8885 66.3704 17.938 66.5099 17.9361C66.8937 17.9297 67.2784 17.9352 67.6625 17.9352C67.7454 17.938 67.8283 17.9371 67.9347 17.9371Z" fill="#182849"/>
<path d="M55.1642 17.8867C55.1792 17.9664 55.2023 18.0892 55.2215 18.1928C55.5132 18.0846 55.7974 17.971 56.0872 17.8747C56.4634 17.7501 56.7902 17.9196 57.1011 18.092C57.1519 18.1204 57.1554 18.312 57.1187 18.4027C57.042 18.5869 56.9109 18.7483 56.825 18.9306C56.7236 19.1479 56.5925 19.0819 56.4976 18.9591C56.2725 18.6667 55.9743 18.6034 55.6322 18.6263C55.3294 18.6465 55.214 18.7501 55.2205 19.0516C55.241 20.0425 55.2676 21.0324 55.2963 22.0223C55.3037 22.2798 55.4514 22.4155 55.7161 22.4348C55.7925 22.4403 55.8777 22.4238 55.9441 22.4512C56.0068 22.4769 56.0501 22.5484 56.1018 22.5997C56.0491 22.6492 55.9958 22.74 55.9441 22.74C55.7779 22.7391 55.6127 22.6886 55.4465 22.6859C54.9633 22.6767 54.4787 22.6786 53.9951 22.685C53.8901 22.6859 53.7867 22.74 53.6816 22.7409C53.6114 22.7418 53.5402 22.6914 53.4693 22.6639C53.5099 22.5997 53.5421 22.4852 53.5912 22.4778C54.1317 22.3944 54.1428 21.9939 54.1447 21.5897C54.1473 20.7043 54.1473 19.8197 54.1447 18.9343C54.1437 18.586 54.0062 18.4448 53.6676 18.3926C53.5974 18.3816 53.5385 18.3028 53.4748 18.2542C53.5402 18.19 53.5948 18.0938 53.6732 18.0681C53.7782 18.0342 53.9021 18.0663 54.0156 18.0516C54.3902 18.0021 54.7639 17.9444 55.1642 17.8867Z" fill="#182849"/>
<path d="M43.588 22.5751C43.48 22.797 43.3177 22.7356 43.1701 22.7356C42.5916 22.7328 42.013 22.7356 41.4335 22.7356C41.426 22.7356 41.4179 22.7401 41.4114 22.7392C41.2943 22.7126 41.1779 22.6861 41.0608 22.6595C41.1529 22.5889 41.2351 22.4881 41.3395 22.4532C41.5987 22.3652 41.7333 22.2369 41.7353 21.9702C41.7418 20.9097 41.7444 19.8492 41.7398 18.7878C41.7379 18.4835 41.669 18.4157 41.3616 18.3946C41.1356 18.379 41.1142 18.2608 41.1698 18.0628C41.2472 18.0591 41.3291 18.0527 41.4124 18.0518C41.8413 18.049 42.2621 18.0005 42.6644 17.8391C42.8231 17.7759 42.8868 17.8437 42.8868 18.0637C42.8849 19.17 42.8813 20.2772 42.8794 21.3836C42.8794 21.5898 42.8823 21.796 42.8888 22.0013C42.8959 22.2424 43.0195 22.3799 43.2585 22.445C43.3655 22.4734 43.4664 22.5256 43.588 22.5751Z" fill="#182849"/>
<path d="M63.4338 20.0783C63.4338 20.6053 63.4163 21.1323 63.442 21.6575C63.453 21.8803 63.5307 22.1104 63.6293 22.3129C63.6709 22.3973 63.8517 22.4073 63.9561 22.4724C64.0215 22.5127 64.0611 22.5934 64.1129 22.6566C64.0446 22.6869 63.9753 22.7446 63.908 22.7428C63.4494 22.7281 62.9925 22.6896 62.534 22.6823C62.3145 22.6787 62.095 22.7346 61.8742 22.7446C61.8107 22.7474 61.7434 22.6851 61.6768 22.653C61.7249 22.5952 61.7662 22.4953 61.8218 22.4871C62.332 22.411 62.3707 22.0444 62.3698 21.6466C62.3688 20.7538 62.3717 19.8611 62.3688 18.9674C62.3678 18.5366 62.3311 18.5045 61.9037 18.3826C61.8364 18.3634 61.7932 18.2598 61.7395 18.1956C61.8059 18.148 61.867 18.0673 61.9389 18.0581C62.3015 18.0086 62.668 17.9784 63.0316 17.9362C63.0885 17.9298 63.1411 17.8849 63.1994 17.872C63.2686 17.8565 63.3691 17.8226 63.4059 17.8546C63.4605 17.9014 63.4972 17.9995 63.4946 18.0746C63.4686 18.7428 63.4329 19.411 63.3987 20.0792C63.4117 20.0773 63.4228 20.0783 63.4338 20.0783Z" fill="#182849"/>
<path d="M42.8959 16.3697C42.9486 16.7712 42.5415 16.9939 42.2677 16.9829C41.8836 16.9673 41.628 16.7537 41.6198 16.3496C41.6133 16.0168 41.9343 15.7473 42.3054 15.751C42.6745 15.7547 42.8995 15.9911 42.8959 16.3697Z" fill="#182849"/>
<path d="M62.894 15.7504C63.2364 15.7513 63.5291 16.0299 63.5272 16.3535C63.5242 16.7045 63.2345 16.9997 62.8712 16.985C62.5574 16.9722 62.2371 16.7889 62.2527 16.3801C62.2676 15.9878 62.4966 15.7495 62.894 15.7504Z" fill="#182849"/>
</g>
<defs>
<clipPath id="clip0_2_299">
<rect width="80" height="25.3659" fill="white" transform="translate(0 -0.00292969)"/>
</clipPath>
</defs>
</svg>
