<svg width="32" height="32" viewBox="0 0 32 32" fill="none" xmlns="http://www.w3.org/2000/svg">
<g clip-path="url(#clip0_2_107)">
<path d="M16.3532 0.410278H16.3454C7.74965 0.410278 0.759613 7.40226 0.759613 16C0.759613 19.4102 1.85869 22.571 3.72751 25.1375L1.78464 30.9291L7.77693 29.0135C10.242 30.6465 13.1827 31.5897 16.3532 31.5897C24.949 31.5897 31.939 24.5958 31.939 16C31.939 7.40421 24.949 0.410278 16.3532 0.410278ZM25.4245 22.4249C25.0484 23.487 23.5557 24.3678 22.365 24.625C21.5504 24.7985 20.4864 24.9368 16.9047 23.4518C12.3233 21.5538 9.37296 16.8983 9.14297 16.5963C8.92275 16.2943 7.2917 14.1311 7.2917 11.894C7.2917 9.65688 8.42781 8.56757 8.88574 8.09988C9.26186 7.716 9.88348 7.54062 10.4798 7.54062C10.6727 7.54062 10.8462 7.55036 11.0021 7.55816C11.46 7.57765 11.6899 7.60493 11.992 8.3279C12.3681 9.23407 13.284 11.4712 13.3931 11.7011C13.5042 11.9311 13.6153 12.2429 13.4594 12.5449C13.3132 12.8567 13.1846 12.9951 12.9547 13.2601C12.7247 13.5251 12.5064 13.7278 12.2765 14.0123C12.066 14.2598 11.8283 14.5248 12.0933 14.9828C12.3583 15.431 13.2743 16.9256 14.6228 18.1261C16.363 19.6753 17.7739 20.1702 18.2786 20.3807C18.6547 20.5366 19.1028 20.4995 19.3776 20.2073C19.7264 19.8312 20.1571 19.2076 20.5955 18.5937C20.9073 18.1533 21.301 18.0987 21.7141 18.2546C22.1351 18.4008 24.3624 19.5018 24.8203 19.7298C25.2784 19.9597 25.5804 20.0689 25.6915 20.2618C25.8006 20.4548 25.8006 21.3609 25.4245 22.4249Z" fill="#182849"/>
</g>
<defs>
<clipPath id="clip0_2_107">
<rect width="32" height="32" fill="white"/>
</clipPath>
</defs>
</svg>
