<svg width="32" height="32" viewBox="0 0 32 32" fill="none" xmlns="http://www.w3.org/2000/svg">
<g clip-path="url(#clip0_2_104)">
<path d="M16.3493 31.5897C24.9613 31.5897 31.939 24.612 31.939 16C31.939 7.38797 24.9613 0.410278 16.3493 0.410278C7.7373 0.410278 0.759613 7.38797 0.759613 16C0.759613 24.612 7.7373 31.5897 16.3493 31.5897ZM7.8932 15.6622L22.9243 9.86677C23.6219 9.61471 24.2312 10.0369 24.0052 11.0918L24.0065 11.0906L21.4471 23.1478C21.2575 24.0027 20.7495 24.2106 20.0389 23.8079L16.1415 20.9354L14.2616 22.7464C14.0537 22.9543 13.8783 23.1297 13.4756 23.1297L13.7524 19.1634L20.9756 12.6378C21.2899 12.361 20.9054 12.2052 20.491 12.4806L11.5646 18.1007L7.71652 16.9003C6.88117 16.6353 6.86298 16.0649 7.8932 15.6622Z" fill="#182849"/>
</g>
<defs>
<clipPath id="clip0_2_104">
<rect width="32" height="32" fill="white"/>
</clipPath>
</defs>
</svg>
