<svg width="26" height="27" viewBox="0 0 26 27" fill="none" xmlns="http://www.w3.org/2000/svg">
<rect width="26" height="27" fill="#1E1E1E"/>
<g id="1920w light">
<rect width="1920" height="200" transform="translate(-1145 -1904)" fill="white"/>
<g id="Background" clip-path="url(#clip0_0_1)">
<rect width="1920" height="10561.5" transform="translate(-1145 -1904)" fill="white"/>
<g id="Background_2">
<rect width="1920" height="585" transform="translate(-1145 -0.72998)" fill="#CFEAFF"/>
<g id="Container" clip-path="url(#clip1_0_1)">
<g id="Img">
<g id="tuch.svg fill" clip-path="url(#clip2_0_1)">
<g id="tuch.svg" clip-path="url(#clip3_0_1)">
<g id="Clip path group">
<mask id="mask0_0_1" style="mask-type:luminance" maskUnits="userSpaceOnUse" x="0" y="0" width="26" height="26">
<g id="a">
<path id="Vector" d="M25.5185 0.74707H0.481506V25.7841H25.5185V0.74707Z" fill="white"/>
</g>
</mask>
<g mask="url(#mask0_0_1)">
<g id="Group">
<path id="Vector_2" d="M8.20905 8.20776C7.59633 7.5982 7.17831 6.8205 7.00794 5.97317C6.83757 5.12584 6.92254 4.247 7.25205 3.44799C7.58157 2.64898 8.14082 1.96576 8.85896 1.48485C9.57711 1.00395 10.4219 0.747007 11.2861 0.746583C12.1504 0.746157 12.9954 1.00226 13.7139 1.48247C14.4326 1.96266 14.9926 2.64534 15.3229 3.44402C15.6532 4.2427 15.739 5.12145 15.5694 5.96896C15.3999 6.81645 14.9827 7.59456 14.3705 8.20473C14.3341 8.24098 14.291 8.26972 14.2434 8.28928C14.1959 8.30885 14.1451 8.31888 14.0936 8.31878C14.0423 8.31867 13.9915 8.30846 13.944 8.28871C13.8966 8.26896 13.8535 8.24005 13.8173 8.20366C13.781 8.16726 13.7523 8.12407 13.7327 8.07657C13.7131 8.02907 13.7031 7.97818 13.7032 7.92681C13.7033 7.87542 13.7136 7.82458 13.7333 7.77715C13.753 7.72973 13.7819 7.68665 13.8183 7.6504C14.3206 7.14955 14.663 6.51088 14.8021 5.81531C14.9411 5.11973 14.8707 4.39852 14.5995 3.74304C14.3283 3.08756 13.8688 2.5273 13.279 2.13322C12.6892 1.73913 11.9956 1.52896 11.2863 1.52931C10.577 1.52967 9.88367 1.74054 9.2943 2.13522C8.7049 2.5299 8.24589 3.09062 7.97541 3.74637C7.70492 4.40212 7.63515 5.1234 7.77491 5.81884C7.91467 6.51428 8.25768 7.15259 8.7605 7.65294C8.79725 7.68909 8.8265 7.73214 8.84654 7.77964C8.8666 7.82712 8.87707 7.87811 8.87736 7.92966C8.87765 7.9812 8.86774 8.0323 8.84822 8.08001C8.82869 8.12772 8.79993 8.1711 8.76358 8.20765C8.72723 8.24421 8.68403 8.27322 8.63643 8.29302C8.58883 8.31282 8.53779 8.32302 8.48624 8.32303C8.43469 8.32304 8.38365 8.31286 8.33605 8.29308C8.28844 8.2733 8.24542 8.2443 8.20905 8.20776ZM20.1746 12.0177C19.9189 11.8694 19.6287 11.7908 19.333 11.7898C19.0374 11.7887 18.7467 11.8654 18.4899 12.0118C18.4683 12.0243 18.4478 12.0379 18.4269 12.051C18.3572 11.0077 17.5197 10.4617 16.6909 10.4613H16.6895C16.1956 10.4613 15.6987 10.6552 15.3627 11.0326C15.0276 10.6195 14.5075 10.407 13.9908 10.4067H13.9894C13.6509 10.4056 13.3186 10.4977 13.0289 10.6728L13.0316 5.11437C13.0316 4.6531 12.8485 4.21068 12.5228 3.88412C12.197 3.55756 11.7551 3.37351 11.2938 3.37234H11.2905C10.83 3.37401 10.3887 3.55767 10.0631 3.88329C9.73729 4.2089 9.55355 4.65006 9.55176 5.1106L9.54565 14.2949L8.57889 13.0223C8.03379 12.3031 7.193 11.9195 6.38507 12.0212C5.77963 12.0973 5.29459 12.4363 5.08773 12.928C4.95121 13.2524 4.82435 13.9315 5.50896 14.8341C6.93876 16.7182 7.42072 18.0899 7.84592 19.2999C8.19223 20.2855 8.4914 21.1367 9.22002 21.9698C9.86498 22.7086 10.1748 23.5407 10.1673 24.5137L10.1603 25.3897C10.1599 25.4411 10.1697 25.4921 10.1889 25.5397C10.2082 25.5873 10.2367 25.6307 10.2727 25.6673C10.3087 25.7039 10.3517 25.7331 10.3989 25.7531C10.4463 25.7731 10.4971 25.7837 10.5485 25.7841H18.0745C18.1782 25.7833 18.2774 25.7413 18.3502 25.6673C18.423 25.5934 18.4634 25.4936 18.4626 25.3898L18.4557 24.5127C18.4482 23.5374 18.7583 22.7046 19.404 21.9665C20.4447 20.7778 21.0175 19.2512 21.0159 17.6714L21.02 13.6046C21.0211 12.9078 20.7129 12.3294 20.1746 12.0177Z" fill="#00C1DE"/>
</g>
</g>
</g>
</g>
</g>
</g>
</g>
</g>
</g>
</g>
<defs>
<clipPath id="clip0_0_1">
<rect width="1920" height="10561.5" fill="white" transform="translate(-1145 -1904)"/>
</clipPath>
<clipPath id="clip1_0_1">
<rect width="1920" height="585" fill="white" transform="translate(-1145 -0.72998)"/>
</clipPath>
<clipPath id="clip2_0_1">
<rect width="26" height="26" fill="white" transform="translate(0 0.27002)"/>
</clipPath>
<clipPath id="clip3_0_1">
<rect width="26" height="26" fill="white" transform="translate(0 0.27002)"/>
</clipPath>
</defs>
</svg>
